{
.appVersion = "3260";
.formatVersion = 3;
DisplayStrings = (
"ṌẮḐ/acutecomb_dotaccentcomb.case/caroncomb_dotaccentcomb.case/tildecomb_acutecomb.case/tildecomb_acutecomb.case Ṍ/dieresiscomb_acutecomb.case ḮṦṤṒṐŗḐẮḑŗ",
"ẮẶẰẲẴẤẬẦẨẪ",
"Ụ",
"Ļ",
"̲",
"ṌṸ",
"ǞḮ/dieresiscomb_acutecomb.case Ǘ/dieresiscomb_gravecomb.case Ǜ/dieresiscomb.case/dieresiscomb_caroncomb.case ṒṐǙ/caroncomb_dotaccentcomb.case ṦǛ",
"ḖṒ",
"/dieresiscomb_gravecomb.case"
);
axes = (
{
name = Weight;
tag = wght;
}
);
classes = (
{
automatic = 1;

glyphs = (
{
color = 4;
glyphname = A;
kernLeft = KO_A;
kernRight = KO_A;
lastChange = "2024-05-06 01:18:14 +0000";
layers = (
{
anchors = (
{
name = bottom;
pos = (355,0);
},
{
name = ogonek;
pos = (604,0);
},
{
name = top;
pos = (344,690);
}
);
guides = (
{
pos = (258,75);
}
);
layerId = m01;
shapes = (
{
closed = 1;
nodes = (
(246,0,l),
(246,16,l),
(151,75,l),
(199,214,l),
(484,214,l),
(542,75,l),
(446,16,l),
(446,0,l),
(707,0,l),
(707,16,l),
(642,75,l),
(384,690,l),
(238,690,l),
(238,674,l),
(296,619,l),
(68,75,l),
(2,16,l),
(2,0,l)
);
},
{
closed = 1;
nodes = (
(329,584,l),
(463,264,l),
(217,264,l)
);
}
);
width = 709;
},
{
associatedMasterId = m01;
guides = (
{
pos = (666,73);
}
);
layerId = "59A8539E-3A79-4BB1-9B25-6CE7873D2D08";
name = "24 Aug 23 at 13:37";
shapes = (
{
closed = 1;
nodes = (
(245,0,l),
(245,16,l),
(115,93,l),
(128,13,l),
(352,640,l),
(314,640,l),
(567,13,l),
(577,93,l),
(447,16,l),
(447,0,l),
(708,0,l),
(708,16,l),
(622,92,l),
(669,13,l),
(385,690,l),
(326,690,l),
(42,13,l),
(88,91,l),
(2,16,l),
(2,0,l)
);
},
{
closed = 1;
nodes = (
(518,214,l),
(518,264,l),
(172,264,l),
(172,214,l)
);
},
{
closed = 1;
nodes = (
(343,690,l),
(224,690,l),
(224,674,l),
(307,606,l)
);
}
);
width = 710;
},
{
associatedMasterId = m002;
guides = (
{
pos = (76,88);
}
);
layerId = "EF51FF38-A04C-4C32-A50C-35061E68E57D";
name = "21 Sep 23 at 16:01";
shapes = (
{
closed = 1;
nodes = (
(255,0,l),
(255,24,l),
(178,111,l),
(178,13,l),
(323,542,l),
(310,542,l),
(553,13,l),
(539,105,l),
(442,24,l),
(442,0,l),
(777,0,l),
(777,24,l),
(699,112,l),
(755,13,l),
(442,690,l),
(337,690,l),
(24,13,l),
(80,112,l),
(2,24,l),
(2,0,l)
);
},
{
closed = 1;
nodes = (
(582,189,l),
(582,249,l),
(192,249,l),
(192,189,l)
);
},
{
closed = 1;
nodes = (
(358,690,l),
(225,690,l),
(225,666,l),
(308,575,l)
);
}
);
width = 779;
},
{
anchors = (
{
name = bottom;
pos = (390,0);
},
{
name = ogonek;
pos = (640,0);
},
{
name = top;
pos = (367,690);
}
);
guides = (
{
pos = (58,88);
}
);
layerId = m002;
name = Black;
shapes = (
{
closed = 1;
nodes = (
(266,0,l),
(266,24,l),
(194,88,l),
(223,197,l),
(470,197,l),
(519,88,l),
(448,24,l),
(448,0,l),
(778,0,l),
(778,24,l),
(724,87,l),
(453,690,l),
(223,690,l),
(223,666,l),
(285,596,l),
(57,89,l),
(2,24,l),
(2,0,l)
);
},
{
closed = 1;
nodes = (
(314,544,l),
(443,257,l),
(238,257,l)
);
}
);
width = 780;
},
{
associatedMasterId = m002;
guides = (
{
pos = (43,88);
}
);
layerId = "93DAD2B4-EC99-494F-A670-0D67B122EF2B";
name = "7 Oct 23 at 08:29";
shapes = (
{
closed = 1;
nodes = (
(276,0,l),
(276,24,l),
(179,102,l),
(179,13,l),
(324,639,l),
(258,639,l),
(520,13,l),
(506,102,l),
(409,24,l),
(409,0,l),
(738,0,l),
(738,24,l),
(659,112,l),
(712,13,l),
(428,690,l),
(312,690,l),
(28,13,l),
(81,112,l),
(2,24,l),
(2,0,l)
);
},
{
closed = 1;
nodes = (
(549,189,l),
(549,249,l),
(159,249,l),
(159,189,l)
);
},
{
closed = 1;
nodes = (
(339,690,l),
(198,690,l),
(198,666,l),
(289,575,l)
);
}
);
width = 740;
},
{
associatedMasterId = m002;
guides = (
{
pos = (43,88);
}
);
layerId = "D953B5A1-1B83-4A13-BA53-FDD192E3D8F2";
name = "9 Oct 23 at 18:36";
shapes = (
{
closed = 1;
nodes = (
(276,0,l),
(276,24,l),
(179,102,l),
(179,13,l),
(324,639,l),
(258,639,l),
(520,13,l),
(506,102,l),
(409,24,l),
(409,0,l),
(748,0,l),
(748,24,l),
(669,112,l),
(722,13,l),
(438,690,l),
(312,690,l),
(28,13,l),
(81,112,l),
(2,24,l),
(2,0,l)
);
},
{
closed = 1;
nodes = (
(549,189,l),
(549,249,l),
(159,249,l),
(159,189,l)
);
},
{
closed = 1;
nodes = (
(339,690,l),
(198,690,l),
(198,666,l),
(289,575,l)
);
}
);
width = 750;
},
{
anchors = (
{
name = bottom;
pos = (355,0);
},
{
name = ogonek;
pos = (604,0);
},
{
name = top;
pos = (344,690);
}
);
associatedMasterId = m01;
guides = (
{
pos = (258,75);
}
);
layerId = "A4D8328F-E154-4168-935D-9052E60F598E";
name = "1 May 24 at 13:59";
shapes = (
{
closed = 1;
nodes = (
(246,0,l),
(246,16,l),
(116,97,l),
(129,13,l),
(348,639,l),
(306,639,l),
(568,13,l),
(576,96,l),
(446,16,l),
(446,0,l),
(707,0,l),
(707,16,l),
(621,94,l),
(668,13,l),
(384,690,l),
(326,690,l),
(42,13,l),
(88,93,l),
(2,16,l),
(2,0,l)
);
},
{
closed = 1;
nodes = (
(518,214,l),
(518,264,l),
(172,264,l),
(172,214,l)
);
},
{
closed = 1;
nodes = (
(343,690,l),
(238,690,l),
(238,674,l),
(307,609,l)
);
}
);
width = 709;
},
{
anchors = (
{
name = bottom;
pos = (390,0);
},
{
name = ogonek;
pos = (640,0);
},
{
name = top;
pos = (367,690);
}
);
associatedMasterId = m002;
guides = (
{
pos = (58,88);
}
);
layerId = "775A62A8-2E4D-436E-86C8-B7F3AED4D79B";
name = "1 May 24 at 13:59";
shapes = (
{
closed = 1;
nodes = (
(266,0,l),
(266,24,l),
(174,105,l),
(174,13,l),
(327,592,l),
(293,592,l),
(553,13,l),
(540,106,l),
(448,24,l),
(448,0,l),
(778,0,l),
(778,24,l),
(704,110,l),
(757,13,l),
(453,690,l),
(327,690,l),
(23,13,l),
(76,111,l),
(2,24,l),
(2,0,l)
);
},
{
closed = 1;
nodes = (
(564,197,l),
(564,257,l),
(174,257,l),
(174,197,l)
);
},
{
closed = 1;
nodes = (
(354,690,l),
(223,690,l),
(223,666,l),
(304,575,l)
);
}
);
width = 780;
}
);
metricLeft = V;
metricRight = V;
unicode = 65;
userData = {
KernOnName = A;
};
},
{
color = 9;
glyphname = "Alpha-latin";
lastChange = "2024-05-01 05:24:58 +0000";
layers = (
{
anchors = (
{
name = bottom;
pos = (374,0);
},
{
name = top;
pos = (374,690);
}
);
layerId = m01;
shapes = (
{
closed = 1;
nodes = (
(404,-16,o),
(476,19,o),
(524,81,c),
(530,81,l),
(552,0,o),
(609,-24,o),
(718,0,c),
(718,36,l),
(652,36,o),
(620,74,o),
(620,160,cs),
(620,710,l),
(602,710,l),
(554,649,l),
(506,684,o),
(438,706,o),
(372,706,cs),
(180,706,o),
(45,550,o),
(45,327,cs),
(45,116,o),
(153,-16,o),
(324,-16,cs)
);
},
{
closed = 1;
nodes = (
(151,534,o),
(231,649,o),
(358,649,cs),
(423,649,o),
(479,625,o),
(524,576,c),
(524,139,l),
(481,86,o),
(425,60,o),
(356,60,cs),
(225,60,o),
(151,165,o),
(151,352,cs)
);
}
);
width = 748;
},
{
anchors = (
{
name = bottom;
pos = (417,0);
},
{
name = top;
pos = (417,690);
}
);
layerId = m002;
shapes = (
{
closed = 1;
nodes = (
(407,-16,o),
(485,26,o),
(523,102,c),
(534,102,l),
(559,2,o),
(664,-37,o),
(807,0,c),
(807,49,l),
(747,71,o),
(724,114,o),
(724,206,cs),
(724,705,l),
(695,705,l),
(584,657,l),
(527,689,o),
(456,706,o),
(381,706,cs),
(186,706,o),
(32,536,o),
(32,319,cs),
(32,122,o),
(145,-16,o),
(305,-16,cs)
);
},
{
closed = 1;
nodes = (
(249,513,o),
(320,623,o),
(422,623,cs),
(462,623,o),
(496,614,o),
(528,594,c),
(528,168,l),
(503,142,o),
(465,124,o),
(429,124,cs),
(314,124,o),
(249,207,o),
(249,356,cs)
);
}
);
width = 833;
},
{
associatedMasterId = m01;
layerId = "2A13E7AA-D60D-431B-8705-A54B9D0DF16C";
name = "30 Apr 24 at 21:51";
shapes = (
{
closed = 1;
nodes = (
(404,-16,o),
(476,19,o),
(524,81,c),
(537,81,l),
(537,156,l),
(492,92,o),
(432,60,o),
(356,60,cs),
(225,60,o),
(151,165,o),
(151,352,cs),
(151,534,o),
(231,649,o),
(358,649,cs),
(445,649,o),
(514,606,o),
(566,520,c),
(566,639,l),
(519,680,o),
(444,706,o),
(372,706,cs),
(180,706,o),
(45,550,o),
(45,327,cs),
(45,116,o),
(153,-16,o),
(324,-16,cs)
);
},
{
closed = 1;
nodes = (
(588,-12,l),
(693,48,l),
(693,65,l),
(579,148,l),
(620,81,l),
(620,710,l),
(602,710,l),
(524,612,l),
(524,81,l),
(533,81,l),
(571,-12,l)
);
}
);
width = 723;
},
{
associatedMasterId = m002;
layerId = "D1FBC766-149C-49E6-9CDA-31AB8576B5DA";
name = "30 Apr 24 at 21:52";
shapes = (
{
closed = 1;
nodes = (
(407,-16,o),
(485,26,o),
(523,102,c),
(539,102,l),
(539,182,l),
(516,148,o),
(471,124,o),
(429,124,cs),
(314,124,o),
(249,207,o),
(249,356,cs),
(249,513,o),
(320,623,o),
(422,623,cs),
(506,623,o),
(568,582,o),
(626,487,c),
(626,629,l),
(564,678,o),
(476,706,o),
(381,706,cs),
(186,706,o),
(32,536,o),
(32,319,cs),
(32,122,o),
(145,-16,o),
(305,-16,cs)
);
},
{
closed = 1;
nodes = (
(620,-13,l),
(796,53,l),
(796,77,l),
(681,193,l),
(724,105,l),
(724,705,l),
(695,705,l),
(528,633,l),
(528,102,l),
(536,102,l),
(593,-13,l)
);
}
);
width = 822;
},
{
associatedMasterId = m01;
layerId = "9C52FF41-B412-403A-B7A1-045123FA0E6A";
name = "1 May 24 at 15:24";
shapes = (
{
closed = 1;
nodes = (
(404,-16,o),
(476,19,o),
(524,81,c),
(537,81,l),
(537,156,l),
(492,92,o),
(432,60,o),
(356,60,cs),
(225,60,o),
(151,165,o),
(151,352,cs),
(151,534,o),
(231,649,o),
(358,649,cs),
(445,649,o),
(514,606,o),
(566,520,c),
(566,639,l),
(519,680,o),
(444,706,o),
(372,706,cs),
(180,706,o),
(45,550,o),
(45,327,cs),
(45,116,o),
(153,-16,o),
(324,-16,cs)
);
},
{
closed = 1;
nodes = (
(718,36,l),
(652,36,o),
(620,74,o),
(620,160,cs),
(620,710,l),
(602,710,l),
(524,612,l),
(524,81,l),
(530,81,l),
(552,0,o),
(609,-24,o),
(718,0,c)
);
}
);
width = 748;
},
{
associatedMasterId = m002;
layerId = "CE337F51-F57B-400F-8D7F-8B1E9C2F5EED";
name = "1 May 24 at 15:24";
shapes = (
{
closed = 1;
nodes = (
(407,-16,o),
(485,26,o),
(523,102,c),
(539,102,l),
(539,182,l),
(516,148,o),
(471,124,o),
(429,124,cs),
(314,124,o),
(249,207,o),
(249,356,cs),
(249,513,o),
(320,623,o),
(422,623,cs),
(506,623,o),
(568,582,o),
(626,487,c),
(626,629,l),
(564,678,o),
(476,706,o),
(381,706,cs),
(186,706,o),
(32,536,o),
(32,319,cs),
(32,122,o),
(145,-16,o),
(305,-16,cs)
);
},
{
closed = 1;
nodes = (
(807,49,l),
(747,71,o),
(724,114,o),
(724,206,cs),
(724,705,l),
(695,705,l),
(528,633,l),
(528,102,l),
(534,102,l),
(559,2,o),
(664,-37,o),
(807,0,c)
);
}
);
width = 833;
}
);
metricLeft = "=O";
metricRight = "=N";
unicode = 11373;
},
{
color = 9;
glyphname = Astroke;
lastChange = "2024-04-28 02:21:22 +0000";
layers = (
{
layerId = m01;
shapes = (
{
closed = 1;
nodes = (
(532,781,l),
(485,799,l),
(160,-96,l),
(207,-113,l)
);
},
{
ref = A;
}
);
width = 709;
},
{
guides = (
{
pos = (509,804);
}
);
layerId = m002;
shapes = (
{
closed = 1;
nodes = (
(562,784,l),
(509,804,l),
(172,-122,l),
(225,-141,l)
);
},
{
ref = A;
}
);
width = 780;
}
);
unicode = 570;
},
{
color = 4;
glyphname = AE;
kernLeft = KO_AE;
kernRight = KO_AE;
lastChange = "2024-05-01 04:00:32 +0000";
layers = (
{
anchors = (
{
name = bottom;
pos = (442,0);
},
{
name = top;
pos = (525,690);
}
);
guides = (
{
pos = (228,75);
}
);
layerId = m01;
shapes = (
{
closed = 1;
nodes = (
(231,0,l),
(231,17,l),
(145,74,l),
(212,217,l),
(462,217,l),
(490,74,l),
(395,16,l),
(395,0,l),
(872,0,l),
(878,167,l),
(862,167,l),
(750,54,l),
(591,44,l),
(534,334,l),
(698,328,l),
(766,263,l),
(782,263,l),
(782,453,l),
(766,453,l),
(697,388,l),
(525,381,l),
(474,643,l),
(735,634,l),
(835,546,l),
(851,546,l),
(845,698,l),
(834,698,l),
(721,690,l),
(279,690,l),
(279,674,l),
(353,622,l),
(59,75,l),
(2,16,l),
(2,0,l)
);
},
{
closed = 1;
nodes = (
(388,597,l),
(452,267,l),
(235,267,l)
);
}
);
width = 923;
},
{
anchors = (
{
name = bottom;
pos = (504,0);
},
{
name = top;
pos = (589,690);
}
);
guides = (
{
pos = (108,87);
}
);
layerId = m002;
shapes = (
{
closed = 1;
nodes = (
(285,0,l),
(285,24,l),
(210,87,l),
(261,207,l),
(482,207,l),
(503,87,l),
(432,24,l),
(432,0,l),
(985,0,l),
(991,188,l),
(964,188,l),
(819,61,l),
(700,48,l),
(651,332,l),
(779,325,l),
(862,248,l),
(889,248,l),
(889,472,l),
(862,472,l),
(779,395,l),
(641,386,l),
(599,635,l),
(798,623,l),
(924,518,l),
(951,518,l),
(951,706,l),
(931,706,l),
(774,690,l),
(296,690,l),
(296,666,l),
(369,597,l),
(58,88,l),
(2,24,l),
(2,0,l)
);
},
{
closed = 1;
nodes = (
(418,579,l),
(472,267,l),
(286,267,l)
);
}
);
width = 1023;
},
{
anchors = (
{
name = bottom;
pos = (472,0);
},
{
name = top;
pos = (472,690);
}
);
associatedMasterId = m01;
background = {
shapes = (
{
closed = 1;
nodes = (
(845,0,l),
(845,59,l),
(504,43,l),
(504,0,l)
);
},
{
closed = 1;
nodes = (
(885,0,l),
(891,167,l),
(875,167,l),
(750,41,l),
(750,0,l)
);
},
{
closed = 1;
nodes = (
(760,388,l),
(495,377,l),
(495,334,l),
(760,324,l)
);
},
{
closed = 1;
nodes = (
(792,261,l),
(792,451,l),
(776,451,l),
(696,375,l),
(696,337,l),
(776,261,l)
);
},
{
closed = 1;
nodes = (
(845,690,l),
(504,690,l),
(504,647,l),
(845,631,l)
);
},
{
closed = 1;
nodes = (
(879,546,l),
(873,698,l),
(862,698,l),
(749,690,l),
(749,646,l),
(863,546,l)
);
}
);
};
layerId = "E7B1B7AB-9375-4AFF-A5ED-FD76B2F94673";
name = "23 Nov 23 at 09:27";
shapes = (
{
closed = 1;
nodes = (
(250,0,l),
(250,16,l),
(120,97,l),
(127,13,l),
(400,639,l),
(370,639,l),
(532,13,l),
(550,96,l),
(420,16,l),
(420,0,l),
(635,0,l),
(457,690,l),
(380,690,l),
(36,13,l),
(88,93,l),
(2,16,l),
(2,0,l)
);
},
{
closed = 1;
nodes = (
(542,228,l),
(542,278,l),
(196,278,l),
(196,228,l)
);
},
{
closed = 1;
nodes = (
(852,0,l),
(852,59,l),
(580,41,l),
(580,0,l)
);
},
{
closed = 1;
nodes = (
(397,690,l),
(262,690,l),
(262,674,l),
(361,609,l)
);
},
{
closed = 1;
nodes = (
(892,0,l),
(898,167,l),
(882,167,l),
(757,41,l),
(757,0,l)
);
},
{
closed = 1;
nodes = (
(777,390,l),
(519,379,l),
(519,336,l),
(777,326,l)
);
},
{
closed = 1;
nodes = (
(809,263,l),
(809,453,l),
(793,453,l),
(713,377,l),
(713,339,l),
(793,263,l)
);
},
{
closed = 1;
nodes = (
(832,690,l),
(437,690,l),
(437,645,l),
(832,631,l)
);
},
{
closed = 1;
nodes = (
(866,546,l),
(860,698,l),
(849,698,l),
(736,690,l),
(736,646,l),
(850,546,l)
);
}
);
width = 943;
},
{
anchors = (
{
name = bottom;
pos = (525,0);
},
{
name = top;
pos = (525,690);
}
);
associatedMasterId = m002;
layerId = "D2847CDB-FEB5-4796-9C37-8F36B0CE7994";
name = "23 Nov 23 at 09:27";
shapes = (
{
closed = 1;
nodes = (
(271,0,l),
(271,24,l),
(179,105,l),
(168,13,l),
(405,592,l),
(397,592,l),
(537,13,l),
(540,106,l),
(448,24,l),
(448,0,l),
(732,0,l),
(565,690,l),
(407,690,l),
(13,13,l),
(76,111,l),
(2,24,l),
(2,0,l)
);
},
{
closed = 1;
nodes = (
(548,207,l),
(548,267,l),
(228,267,l),
(228,207,l)
);
},
{
closed = 1;
nodes = (
(978,0,l),
(978,75,l),
(674,43,l),
(674,0,l)
);
},
{
closed = 1;
nodes = (
(434,690,l),
(284,690,l),
(284,666,l),
(381,568,l)
);
},
{
closed = 1;
nodes = (
(1011,0,l),
(1017,188,l),
(990,188,l),
(829,47,l),
(829,0,l)
);
},
{
closed = 1;
nodes = (
(887,400,l),
(612,383,l),
(612,336,l),
(887,320,l)
);
},
{
closed = 1;
nodes = (
(915,248,l),
(915,472,l),
(888,472,l),
(790,381,l),
(790,339,l),
(888,248,l)
);
},
{
closed = 1;
nodes = (
(958,690,l),
(532,690,l),
(532,640,l),
(958,615,l)
);
},
{
closed = 1;
nodes = (
(977,518,l),
(977,706,l),
(957,706,l),
(800,690,l),
(800,643,l),
(950,518,l)
);
}
);
width = 1049;
},
{
anchors = (
{
name = bottom;
pos = (442,0);
},
{
name = top;
pos = (525,690);
}
);
associatedMasterId = m01;
background = {
shapes = (
{
closed = 1;
nodes = (
(815,0,l),
(815,59,l),
(474,43,l),
(474,0,l)
);
},
{
closed = 1;
nodes = (
(855,0,l),
(861,167,l),
(845,167,l),
(720,41,l),
(720,0,l)
);
},
{
closed = 1;
nodes = (
(730,388,l),
(465,377,l),
(465,334,l),
(730,324,l)
);
},
{
closed = 1;
nodes = (
(762,261,l),
(762,451,l),
(746,451,l),
(666,375,l),
(666,337,l),
(746,261,l)
);
},
{
closed = 1;
nodes = (
(815,690,l),
(474,690,l),
(474,647,l),
(815,631,l)
);
},
{
closed = 1;
nodes = (
(849,546,l),
(843,698,l),
(832,698,l),
(719,690,l),
(719,646,l),
(833,546,l)
);
}
);
};
guides = (
{
pos = (228,75);
}
);
layerId = "5AF433EC-079A-42C2-AEBD-68067A768F98";
name = "1 May 24 at 14:00";
shapes = (
{
closed = 1;
nodes = (
(231,0,l),
(231,17,l),
(104,102,l),
(117,13,l),
(408,639,l),
(380,639,l),
(502,13,l),
(525,96,l),
(395,16,l),
(395,0,l),
(599,0,l),
(465,690,l),
(390,690,l),
(26,13,l),
(74,90,l),
(2,16,l),
(2,0,l)
);
},
{
closed = 1;
nodes = (
(506,217,l),
(506,267,l),
(192,267,l),
(192,217,l)
);
},
{
closed = 1;
nodes = (
(832,0,l),
(832,59,l),
(550,41,l),
(550,0,l)
);
},
{
closed = 1;
nodes = (
(872,0,l),
(878,167,l),
(862,167,l),
(737,41,l),
(737,0,l)
);
},
{
closed = 1;
nodes = (
(750,390,l),
(489,379,l),
(489,336,l),
(750,326,l)
);
},
{
closed = 1;
nodes = (
(407,690,l),
(279,690,l),
(279,674,l),
(371,609,l)
);
},
{
closed = 1;
nodes = (
(782,263,l),
(782,453,l),
(766,453,l),
(686,377,l),
(686,339,l),
(766,263,l)
);
},
{
closed = 1;
nodes = (
(817,690,l),
(407,690,l),
(407,645,l),
(817,631,l)
);
},
{
closed = 1;
nodes = (
(851,546,l),
(845,698,l),
(834,698,l),
(721,690,l),
(721,646,l),
(835,546,l)
);
}
);
width = 923;
},
{
anchors = (
{
name = bottom;
pos = (504,0);
},
{
name = top;
pos = (589,690);
}
);
associatedMasterId = m002;
guides = (
{
pos = (108,87);
}
);
layerId = "A9531242-F839-4002-B190-6E1A0456BDB8";
name = "1 May 24 at 14:00";
shapes = (
{
closed = 1;
nodes = (
(285,0,l),
(285,24,l),
(193,102,l),
(179,13,l),
(424,592,l),
(416,592,l),
(516,13,l),
(524,106,l),
(432,24,l),
(432,0,l),
(708,0,l),
(589,690,l),
(426,690,l),
(12,13,l),
(77,110,l),
(2,24,l),
(2,0,l)
);
},
{
closed = 1;
nodes = (
(527,207,l),
(527,267,l),
(207,267,l),
(207,207,l)
);
},
{
closed = 1;
nodes = (
(952,0,l),
(952,75,l),
(653,43,l),
(653,0,l)
);
},
{
closed = 1;
nodes = (
(985,0,l),
(991,188,l),
(964,188,l),
(803,47,l),
(803,0,l)
);
},
{
closed = 1;
nodes = (
(861,400,l),
(591,383,l),
(591,336,l),
(861,320,l)
);
},
{
closed = 1;
nodes = (
(453,690,l),
(296,690,l),
(296,666,l),
(400,568,l)
);
},
{
closed = 1;
nodes = (
(889,248,l),
(889,472,l),
(862,472,l),
(764,381,l),
(764,339,l),
(862,248,l)
);
},
{
closed = 1;
nodes = (
(932,690,l),
(511,690,l),
(511,640,l),
(932,615,l)
);
},
{
closed = 1;
nodes = (
(951,518,l),
(951,706,l),
(931,706,l),
(774,690,l),
(774,643,l),
(924,518,l)
);
}
);
width = 1023;
}
);
metricLeft = "=A";
metricRight = "=E";
unicode = 198;
},
{
color = 4;
glyphname = B;
kernLeft = KO_H;
kernRight = KO_B;
lastChange = "2024-05-05 07:53:39 +0000";
layers = (
{
anchors = (
{
name = bottom;
pos = (324,0);
},
{
name = center;
pos = (194,203);
},
{
name = top;
pos = (324,690);
}
);
layerId = m01;
shapes = (
{
closed = 1;
nodes = (
(332,0,ls),
(498,0,o),
(602,85,o),
(602,220,cs),
(602,297,o),
(549,354,o),
(458,378,c),
(458,383,l),
(527,409,o),
(565,462,o),
(565,536,cs),
(565,635,o),
(476,690,o),
(317,690,cs),
(30,690,l),
(30,674,l),
(109,615,l),
(109,75,l),
(30,16,l),
(30,0,l)
);
},
{
closed = 1;
nodes = (
(205,340,l),
(342,340,ls),
(441,340,o),
(497,288,o),
(497,194,cs),
(497,106,o),
(433,50,o),
(332,50,cs),
(205,50,l)
);
},
{
closed = 1;
nodes = (
(205,640,l),
(307,640,ls),
(411,640,o),
(462,597,o),
(462,510,cs),
(462,433,o),
(417,390,o),
(337,390,cs),
(205,390,l)
);
}
);
width = 647;
},
{
anchors = (
{
name = bottom;
pos = (364,0);
},
{
name = center;
pos = (223,200);
},
{
name = top;
pos = (364,690);
}
);
layerId = m002;
shapes = (
{
closed = 1;
nodes = (
(326,0,ls),
(573,0,o),
(695,70,o),
(695,211,cs),
(695,311,o),
(630,368,o),
(497,383,c),
(497,386,l),
(604,406,o),
(653,453,o),
(653,535,cs),
(653,643,o),
(564,690,o),
(361,690,cs),
(26,690,l),
(26,666,l),
(95,597,l),
(95,93,l),
(26,24,l),
(26,0,l)
);
},
{
closed = 1;
nodes = (
(291,337,l),
(351,337,ls),
(434,337,o),
(481,289,o),
(481,203,cs),
(481,107,o),
(428,60,o),
(322,60,cs),
(291,60,l)
);
},
{
closed = 1;
nodes = (
(291,630,l),
(340,630,ls),
(419,630,o),
(458,591,o),
(458,513,cs),
(458,449,o),
(427,409,o),
(371,402,cs),
(291,393,l)
);
}
);
width = 727;
},
{
associatedMasterId = m002;
layerId = "8C32BF93-8A24-4AE5-A938-9894639337BC";
name = "29 Oct 23 at 22:56";
shapes = (
{
closed = 1;
nodes = (
(326,0,ls),
(563,0,o),
(695,76,o),
(695,211,cs),
(695,329,o),
(604,387,o),
(419,387,cs),
(213,387,l),
(213,337,l),
(351,337,ls),
(434,337,o),
(481,289,o),
(481,203,cs),
(481,107,o),
(428,60,o),
(322,60,cs),
(185,60,l),
(185,0,l)
);
},
{
closed = 1;
nodes = (
(291,0,l),
(291,690,l),
(26,690,l),
(26,666,l),
(95,597,l),
(95,93,l),
(26,24,l),
(26,0,l)
);
},
{
closed = 1;
nodes = (
(465,373,l),
(465,411,l),
(429,411,l),
(429,373,l)
);
},
{
closed = 1;
nodes = (
(285,376,ls),
(516,376,o),
(645,438,o),
(645,548,cs),
(645,643,o),
(548,690,o),
(353,690,cs),
(195,690,l),
(195,630,l),
(332,630,ls),
(411,630,o),
(450,591,o),
(450,513,cs),
(450,446,o),
(423,409,o),
(368,402,cs),
(193,379,l),
(193,376,l)
);
}
);
width = 731;
},
{
associatedMasterId = m002;
layerId = "65EC8FCD-7400-4E0E-893F-AE80A0B46AD1";
name = "10 Nov 23 at 21:11";
shapes = (
{
closed = 1;
nodes = (
(326,0,ls),
(563,0,o),
(695,76,o),
(695,211,cs),
(695,329,o),
(604,387,o),
(419,387,cs),
(213,387,l),
(213,337,l),
(351,337,ls),
(434,337,o),
(481,289,o),
(481,203,cs),
(481,107,o),
(428,60,o),
(322,60,cs),
(185,60,l),
(185,0,l)
);
},
{
closed = 1;
nodes = (
(291,0,l),
(291,690,l),
(26,690,l),
(26,666,l),
(95,597,l),
(95,93,l),
(26,24,l),
(26,0,l)
);
},
{
closed = 1;
nodes = (
(476,373,l),
(476,411,l),
(440,411,l),
(440,373,l)
);
},
{
closed = 1;
nodes = (
(322,376,ls),
(543,376,o),
(653,433,o),
(653,548,cs),
(653,643,o),
(556,690,o),
(361,690,cs),
(203,690,l),
(203,630,l),
(340,630,ls),
(419,630,o),
(458,591,o),
(458,513,cs),
(458,446,o),
(433,410,o),
(382,403,cs),
(201,382,l),
(201,376,l)
);
}
);
width = 731;
},
{
anchors = (
{
name = bottom;
pos = (324,0);
},
{
name = center;
pos = (194,203);
},
{
name = top;
pos = (324,690);
}
);
associatedMasterId = m01;
layerId = "5EB9548D-7442-43D2-9B8E-D6C304B8551B";
name = "1 May 24 at 14:00";
shapes = (
{
closed = 1;
nodes = (
(332,0,ls),
(498,0,o),
(602,85,o),
(602,220,cs),
(602,324,o),
(506,390,o),
(352,390,cs),
(187,390,l),
(187,340,l),
(342,340,ls),
(441,340,o),
(497,288,o),
(497,194,cs),
(497,106,o),
(433,50,o),
(332,50,cs),
(187,50,l),
(187,0,l)
);
},
{
closed = 1;
nodes = (
(205,0,l),
(205,690,l),
(30,690,l),
(30,674,l),
(109,615,l),
(109,75,l),
(30,16,l),
(30,0,l)
);
},
{
closed = 1;
nodes = (
(458,367,l),
(458,395,l),
(412,395,l),
(412,367,l)
);
},
{
closed = 1;
nodes = (
(337,364,ls),
(483,364,o),
(565,426,o),
(565,536,cs),
(565,635,o),
(476,690,o),
(317,690,cs),
(152,690,l),
(152,640,l),
(307,640,ls),
(411,640,o),
(462,597,o),
(462,510,cs),
(462,433,o),
(417,390,o),
(337,390,c),
(220,390,l),
(220,364,l)
);
}
);
width = 647;
},
{
anchors = (
{
name = bottom;
pos = (364,0);
},
{
name = center;
pos = (223,200);
},
{
name = top;
pos = (364,690);
}
);
associatedMasterId = m002;
layerId = "0BFC920E-ED01-4609-8705-9E50A358606B";
name = "1 May 24 at 14:00";
shapes = (
{
closed = 1;
nodes = (
(326,0,ls),
(573,0,o),
(695,70,o),
(695,211,cs),
(695,329,o),
(604,387,o),
(419,387,cs),
(213,387,l),
(213,337,l),
(351,337,ls),
(434,337,o),
(481,289,o),
(481,203,cs),
(481,107,o),
(428,60,o),
(322,60,cs),
(185,60,l),
(185,0,l)
);
},
{
closed = 1;
nodes = (
(291,0,l),
(291,690,l),
(26,690,l),
(26,666,l),
(95,597,l),
(95,93,l),
(26,24,l),
(26,0,l)
);
},
{
closed = 1;
nodes = (
(497,373,l),
(497,411,l),
(461,411,l),
(461,373,l)
);
},
{
closed = 1;
nodes = (
(357,376,ls),
(563,376,o),
(653,424,o),
(653,535,cs),
(653,643,o),
(564,690,o),
(361,690,cs),
(203,690,l),
(203,630,l),
(340,630,ls),
(419,630,o),
(458,591,o),
(458,513,cs),
(458,449,o),
(427,409,o),
(371,402,cs),
(201,382,l),
(201,376,l)
);
}
);
width = 727;
}
);
metricLeft = "=H";
metricRight = "=O";
unicode = 66;
},
{
color = 9;
glyphname = "Beta-latin";
lastChange = "2024-05-01 05:25:07 +0000";
layers = (
{
layerId = m01;
shapes = (
{
closed = 1;
nodes = (
(284,-235,l),
(284,-219,l),
(205,-160,l),
(205,0,l),
(332,0,ls),
(498,0,o),
(602,85,o),
(602,220,cs),
(602,297,o),
(549,354,o),
(458,378,c),
(458,383,l),
(527,409,o),
(565,462,o),
(565,536,cs),
(565,635,o),
(476,690,o),
(317,690,cs),
(30,690,l),
(30,674,l),
(109,615,l),
(109,-160,l),
(30,-219,l),
(30,-235,l)
);
},
{
closed = 1;
nodes = (
(205,340,l),
(342,340,ls),
(441,340,o),
(497,288,o),
(497,194,cs),
(497,106,o),
(433,50,o),
(332,50,cs),
(205,50,l)
);
},
{
closed = 1;
nodes = (
(205,640,l),
(307,640,ls),
(411,640,o),
(462,597,o),
(462,510,cs),
(462,433,o),
(417,390,o),
(337,390,cs),
(205,390,l)
);
}
);
width = 647;
},
{
layerId = m002;
shapes = (
{
closed = 1;
nodes = (
(360,-235,l),
(360,-211,l),
(291,-142,l),
(291,0,l),
(326,0,ls),
(573,0,o),
(695,70,o),
(695,211,cs),
(695,311,o),
(630,368,o),
(497,383,c),
(497,386,l),
(604,406,o),
(653,453,o),
(653,535,cs),
(653,643,o),
(564,690,o),
(361,690,cs),
(26,690,l),
(26,666,l),
(95,597,l),
(95,-142,l),
(26,-211,l),
(26,-235,l)
);
},
{
closed = 1;
nodes = (
(291,337,l),
(351,337,ls),
(434,337,o),
(481,289,o),
(481,203,cs),
(481,107,o),
(428,60,o),
(322,60,cs),
(291,60,l)
);
},
{
closed = 1;
nodes = (
(291,630,l),
(340,630,ls),
(419,630,o),
(458,591,o),
(458,513,cs),
(458,449,o),
(427,409,o),
(371,402,cs),
(291,393,l)
);
}
);
width = 727;
},
{
associatedMasterId = m01;
layerId = "2C3F011D-AF5C-4DE1-9075-89BC2E2BF03A";
name = "1 May 24 at 15:25";
shapes = (
{
closed = 1;
nodes = (
(284,-235,l),
(284,-219,l),
(205,-160,l),
(205,690,l),
(30,690,l),
(30,674,l),
(109,615,l),
(109,-160,l),
(30,-219,l),
(30,-235,l)
);
},
{
closed = 1;
nodes = (
(332,0,ls),
(498,0,o),
(602,85,o),
(602,220,cs),
(602,324,o),
(506,390,o),
(352,390,cs),
(187,390,l),
(187,340,l),
(342,340,ls),
(441,340,o),
(497,288,o),
(497,194,cs),
(497,106,o),
(433,50,o),
(332,50,cs),
(187,50,l),
(187,0,l)
);
},
{
closed = 1;
nodes = (
(458,367,l),
(458,395,l),
(412,395,l),
(412,367,l)
);
},
{
closed = 1;
nodes = (
(337,364,ls),
(483,364,o),
(565,426,o),
(565,536,cs),
(565,635,o),
(476,690,o),
(317,690,cs),
(152,690,l),
(152,640,l),
(307,640,ls),
(411,640,o),
(462,597,o),
(462,510,cs),
(462,433,o),
(417,390,o),
(337,390,c),
(220,390,l),
(220,364,l)
);
}
);
width = 647;
},
{
associatedMasterId = m002;
layerId = "B815A5D5-4EC1-4CDA-B141-50EFFAB513C3";
name = "1 May 24 at 15:25";
shapes = (
{
closed = 1;
nodes = (
(360,-235,l),
(360,-211,l),
(291,-142,l),
(291,690,l),
(26,690,l),
(26,666,l),
(95,597,l),
(95,-142,l),
(26,-211,l),
(26,-235,l)
);
},
{
closed = 1;
nodes = (
(326,0,ls),
(573,0,o),
(695,70,o),
(695,211,cs),
(695,329,o),
(604,387,o),
(419,387,cs),
(213,387,l),
(213,337,l),
(351,337,ls),
(434,337,o),
(481,289,o),
(481,203,cs),
(481,107,o),
(428,60,o),
(322,60,cs),
(185,60,l),
(185,0,l)
);
},
{
closed = 1;
nodes = (
(497,373,l),
(497,411,l),
(461,411,l),
(461,373,l)
);
},
{
closed = 1;
nodes = (
(357,376,ls),
(563,376,o),
(653,424,o),
(653,535,cs),
(653,643,o),
(564,690,o),
(361,690,cs),
(203,690,l),
(203,630,l),
(340,630,ls),
(419,630,o),
(458,591,o),
(458,513,cs),
(458,449,o),
(427,409,o),
(371,402,cs),
(201,382,l),
(201,376,l)
);
}
);
width = 727;
}
);
metricLeft = "=B";
metricRight = "=B";
unicode = 42932;
},
{
color = 9;
glyphname = Bhook;
kernRight = KO_B;
lastChange = "2024-04-30 11:32:30 +0000";
layers = (
{
layerId = m002;
shapes = (
{
closed = 1;
nodes = (
(473,0,ls),
(720,0,o),
(842,70,o),
(842,211,cs),
(842,311,o),
(777,368,o),
(644,383,c),
(644,386,l),
(751,406,o),
(800,453,o),
(800,535,cs),
(800,643,o),
(711,690,o),
(508,690,cs),
(300,690,ls),
(109,690,o),
(2,618,o),
(2,489,cs),
(2,415,o),
(27,359,o),
(85,304,c),
(209,400,l),
(209,427,l),
(109,490,l),
(108,497,o),
(107,504,o),
(107,511,cs),
(107,574,o),
(165,624,o),
(242,629,c),
(242,93,l),
(163,24,l),
(163,0,l)
);
},
{
closed = 1;
nodes = (
(438,337,l),
(498,337,ls),
(581,337,o),
(628,289,o),
(628,203,cs),
(628,107,o),
(575,60,o),
(469,60,cs),
(438,60,l)
);
},
{
closed = 1;
nodes = (
(438,630,l),
(487,630,ls),
(566,630,o),
(605,591,o),
(605,513,cs),
(605,449,o),
(574,409,o),
(518,402,cs),
(438,393,l)
);
}
);
width = 874;
},
{
associatedMasterId = m01;
layerId = "86465FE1-DA90-4071-A1FA-87D358813B95";
name = "24 Apr 24 at 10:21";
shapes = (
{
closed = 1;
nodes = (
(383,0,ls),
(549,0,o),
(653,85,o),
(653,220,cs),
(653,324,o),
(557,390,o),
(403,390,cs),
(238,390,l),
(238,340,l),
(393,340,ls),
(492,340,o),
(548,288,o),
(548,194,cs),
(548,106,o),
(484,50,o),
(383,50,cs),
(238,50,l),
(238,0,l)
);
},
{
closed = 1;
nodes = (
(256,0,l),
(256,690,l),
(160,690,l),
(160,75,l),
(81,16,l),
(81,0,l)
);
},
{
closed = 1;
nodes = (
(87,538,l),
(87,601,o),
(115,640,o),
(160,640,cs),
(186,640,l),
(186,690,l),
(159,690,ls),
(67,690,o),
(2,627,o),
(2,538,c)
);
},
{
closed = 1;
nodes = (
(509,367,l),
(509,395,l),
(463,395,l),
(463,367,l)
);
},
{
closed = 1;
nodes = (
(388,364,ls),
(534,364,o),
(616,426,o),
(616,536,cs),
(616,635,o),
(527,690,o),
(368,690,cs),
(203,690,l),
(203,640,l),
(358,640,ls),
(462,640,o),
(513,597,o),
(513,510,cs),
(513,433,o),
(468,390,o),
(388,390,c),
(271,390,l),
(271,364,l)
);
}
);
width = 698;
},
{
associatedMasterId = m002;
layerId = "17A9E6CF-F547-42DA-91B7-C13001D26AE8";
name = "24 Apr 24 at 10:21";
shapes = (
{
closed = 1;
nodes = (
(428,0,ls),
(675,0,o),
(797,70,o),
(797,211,cs),
(797,329,o),
(706,387,o),
(521,387,cs),
(315,387,l),
(315,337,l),
(453,337,ls),
(536,337,o),
(583,289,o),
(583,203,cs),
(583,107,o),
(530,60,o),
(424,60,cs),
(287,60,l),
(287,0,l)
);
},
{
closed = 1;
nodes = (
(393,0,l),
(393,690,l),
(197,690,l),
(197,93,l),
(128,24,l),
(128,0,l)
);
},
{
closed = 1;
nodes = (
(145,504,l),
(145,578,o),
(166,630,o),
(197,630,c),
(219,630,l),
(219,690,l),
(184,690,ls),
(67,690,o),
(2,623,o),
(2,504,c)
);
},
{
closed = 1;
nodes = (
(599,373,l),
(599,411,l),
(563,411,l),
(563,373,l)
);
},
{
closed = 1;
nodes = (
(459,376,ls),
(665,376,o),
(755,424,o),
(755,535,cs),
(755,643,o),
(666,690,o),
(463,690,cs),
(305,690,l),
(305,630,l),
(442,630,ls),
(521,630,o),
(560,591,o),
(560,513,cs),
(560,449,o),
(529,409,o),
(473,402,cs),
(303,382,l),
(303,376,l)
);
}
);
width = 829;
},
{
associatedMasterId = m01;
layerId = "DDBDD0DE-14F0-46B1-A777-DC535C4BEF07";
name = "25 Apr 24 at 13:28";
shapes = (
{
closed = 1;
nodes = (
(435,364,ls),
(581,364,o),
(663,426,o),
(663,536,cs),
(663,635,o),
(574,690,o),
(415,690,cs),
(275,690,ls),
(152,690,o),
(72,659,o),
(11,589,c),
(92,498,l),
(107,498,l),
(197,652,l),
(121,640,l),
(405,640,ls),
(509,640,o),
(560,597,o),
(560,510,cs),
(560,433,o),
(515,390,o),
(435,390,c),
(318,390,l),
(318,364,l)
);
},
{
closed = 1;
nodes = (
(303,0,l),
(303,690,l),
(207,659,l),
(207,75,l),
(118,16,l),
(118,0,l)
);
},
{
closed = 1;
nodes = (
(430,0,ls),
(596,0,o),
(700,85,o),
(700,220,cs),
(700,324,o),
(604,390,o),
(450,390,cs),
(285,390,l),
(285,340,l),
(440,340,ls),
(539,340,o),
(595,288,o),
(595,194,cs),
(595,106,o),
(531,50,o),
(430,50,cs),
(285,50,l),
(285,0,l)
);
},
{
closed = 1;
nodes = (
(556,367,l),
(556,395,l),
(510,395,l),
(510,367,l)
);
}
);
width = 745;
},
{
layerId = m01;
name = Light;
shapes = (
{
closed = 1;
nodes = (
(439,0,ls),
(605,0,o),
(709,85,o),
(709,220,cs),
(709,297,o),
(656,354,o),
(565,378,c),
(565,383,l),
(634,409,o),
(672,462,o),
(672,536,cs),
(672,635,o),
(583,690,o),
(424,690,cs),
(214,690,ls),
(84,690,o),
(2,622,o),
(2,513,cs),
(2,462,o),
(19,412,o),
(57,350,c),
(155,444,l),
(155,460,l),
(75,501,l),
(70,512,o),
(68,522,o),
(68,532,cs),
(68,595,o),
(129,640,o),
(216,640,c),
(216,75,l),
(127,16,l),
(127,0,l)
);
},
{
closed = 1;
nodes = (
(312,340,l),
(449,340,ls),
(548,340,o),
(604,288,o),
(604,194,cs),
(604,106,o),
(540,50,o),
(439,50,cs),
(312,50,l)
);
},
{
closed = 1;
nodes = (
(312,640,l),
(414,640,ls),
(518,640,o),
(569,597,o),
(569,510,cs),
(569,433,o),
(524,390,o),
(444,390,cs),
(312,390,l)
);
}
);
width = 754;
}
);
metricLeft = "=V";
metricRight = "=B";
unicode = 385;
},
{
color = 4;
glyphname = C;
kernLeft = KO_O;
kernRight = KO_C;
lastChange = "2024-05-06 01:18:14 +0000";
layers = (
{
associatedMasterId = m01;
layerId = "FF84DA91-87F1-4B12-A336-B0BA15A5C589";
name = "22 Aug 23 at 19:00";
shapes = (
{
closed = 1;
nodes = (
(507,-16,o),
(605,42,o),
(656,147,c),
(625,164,l),
(568,81,o),
(500,45,o),
(401,45,cs),
(239,45,o),
(138,170,o),
(138,369,cs),
(138,542,o),
(231,650,o),
(378,650,cs),
(454,650,o),
(506,631,o),
(548,589,c),
(548,659,l),
(470,659,l),
(561,512,l),
(577,512,l),
(636,642,l),
(581,683,o),
(495,706,o),
(396,706,cs),
(188,706,o),
(42,552,o),
(42,333,cs),
(42,128,o),
(183,-16,o),
(383,-16,cs)
);
}
);
width = 698;
},
{
associatedMasterId = m01;
layerId = "DCA530CF-AEC9-40EC-B436-3B882F2ED0AF";
name = "24 Aug 23 at 13:47";
shapes = (
{
closed = 1;
nodes = (
(514,-16,o),
(599,34,o),
(669,147,c),
(630,168,l),
(572,87,o),
(498,47,o),
(406,47,cs),
(252,47,o),
(155,171,o),
(155,369,cs),
(155,541,o),
(243,649,o),
(383,649,cs),
(452,649,o),
(499,635,o),
(539,602,c),
(539,672,l),
(473,672,l),
(579,517,l),
(595,517,l),
(646,644,l),
(581,685,o),
(500,706,o),
(401,706,cs),
(204,706,o),
(50,542,o),
(50,333,cs),
(50,138,o),
(199,-16,o),
(388,-16,cs)
);
}
);
width = 719;
},
{
associatedMasterId = m002;
layerId = "FD08D04A-80CC-40C7-806D-5A4BAF50979B";
name = "7 Oct 23 at 10:49";
shapes = (
{
closed = 1;
nodes = (
(524,-16,o),
(635,48,o),
(683,150,c),
(644,171,l),
(593,109,o),
(529,79,o),
(452,79,cs),
(322,79,o),
(241,191,o),
(241,369,cs),
(241,525,o),
(324,634,o),
(442,634,cs),
(479,634,o),
(515,622,o),
(551,597,c),
(551,663,l),
(418,663,l),
(574,470,l),
(598,470,l),
(679,619,l),
(606,677,o),
(517,706,o),
(409,706,cs),
(200,706,o),
(36,537,o),
(36,323,cs),
(36,124,o),
(185,-16,o),
(396,-16,cs)
);
}
);
width = 719;
},
{
associatedMasterId = m002;
guides = (
{
angle = 90;
pos = (673,156);
}
);
layerId = "A7AB8324-320B-404C-8365-58E769A2FB41";
name = "10 Oct 23 at 17:07";
shapes = (
{
closed = 1;
nodes = (
(519,-16,o),
(632,55,o),
(673,156,c),
(634,177,l),
(591,120,o),
(528,91,o),
(444,91,cs),
(316,91,o),
(245,184,o),
(245,350,cs),
(245,517,o),
(326,634,o),
(441,634,cs),
(478,634,o),
(514,622,o),
(550,597,c),
(550,663,l),
(417,663,l),
(568,473,l),
(595,473,l),
(673,614,l),
(601,676,o),
(516,706,o),
(418,706,cs),
(193,706,o),
(34,548,o),
(34,323,cs),
(34,124,o),
(185,-16,o),
(399,-16,cs)
);
}
);
width = 707;
},
{
associatedMasterId = m002;
guides = (
{
angle = 90;
pos = (673,156);
}
);
layerId = "4B744737-7E10-4739-B3D0-654F257092DE";
name = "11 Oct 23 at 11:49";
shapes = (
{
closed = 1;
nodes = (
(519,-16,o),
(632,55,o),
(673,156,c),
(634,177,l),
(591,120,o),
(528,91,o),
(444,91,cs),
(316,91,o),
(245,184,o),
(245,350,cs),
(245,517,o),
(326,634,o),
(441,634,cs),
(478,634,o),
(514,622,o),
(550,597,c),
(550,663,l),
(417,663,l),
(568,473,l),
(595,473,l),
(673,614,l),
(601,676,o),
(516,706,o),
(418,706,cs),
(193,706,o),
(34,548,o),
(34,323,cs),
(34,124,o),
(185,-16,o),
(399,-16,cs)
);
}
);
width = 707;
},
{
associatedMasterId = m002;
guides = (
{
angle = 90;
pos = (671,156);
}
);
layerId = "C85D32B9-4516-4B6D-BAD2-682BB10AC02A";
name = "15 Oct 23 at 14:50";
shapes = (
{
closed = 1;
nodes = (
(519,-16,o),
(630,55,o),
(671,156,c),
(632,177,l),
(594,130,o),
(538,104,o),
(476,104,cs),
(337,104,o),
(249,204,o),
(249,364,cs),
(249,515,o),
(333,634,o),
(439,634,cs),
(476,634,o),
(512,622,o),
(548,597,c),
(548,663,l),
(415,663,l),
(566,473,l),
(593,473,l),
(671,614,l),
(600,676,o),
(517,706,o),
(422,706,cs),
(185,706,o),
(36,561,o),
(36,330,cs),
(36,127,o),
(188,-16,o),
(403,-16,cs)
);
}
);
width = 707;
},
{
associatedMasterId = m002;
guides = (
{
angle = 90;
pos = (671,156);
}
);
layerId = "876F2014-B0F4-47BD-BD04-16CED044A4A9";
name = "27 Oct 23 at 19:13";
shapes = (
{
closed = 1;
nodes = (
(517,-16,o),
(628,50,o),
(671,156,c),
(632,177,l),
(594,130,o),
(538,104,o),
(476,104,cs),
(337,104,o),
(249,204,o),
(249,364,cs),
(249,515,o),
(333,634,o),
(439,634,cs),
(476,634,o),
(512,622,o),
(548,597,c),
(548,663,l),
(415,663,l),
(566,473,l),
(593,473,l),
(671,614,l),
(600,676,o),
(517,706,o),
(422,706,cs),
(185,706,o),
(36,561,o),
(36,330,cs),
(36,127,o),
(179,-16,o),
(383,-16,cs)
);
}
);
width = 707;
},
{
associatedMasterId = m01;
layerId = "E31D7688-E2B2-491C-A922-3EAD9624CB81";
name = "10 Nov 23 at 22:29";
shapes = (
{
closed = 1;
nodes = (
(503,-16,o),
(598,41,o),
(654,143,c),
(619,163,l),
(559,80,o),
(493,43,o),
(403,43,cs),
(251,43,o),
(155,169,o),
(155,369,cs),
(155,533,o),
(249,649,o),
(383,649,cs),
(458,649,o),
(501,632,o),
(539,586,c),
(539,672,l),
(446,672,l),
(579,517,l),
(595,517,l),
(646,626,l),
(586,677,o),
(498,706,o),
(401,706,cs),
(204,706,o),
(50,542,o),
(50,333,cs),
(50,119,o),
(181,-16,o),
(389,-16,cs)
);
}
);
width = 704;
},
{
associatedMasterId = m002;
guides = (
{
angle = 90;
pos = (667,156);
}
);
layerId = "257C914B-DFBA-4479-9EA1-21609B1E07ED";
name = "11 Nov 23 at 08:29";
shapes = (
{
closed = 1;
nodes = (
(522,-16,o),
(633,52,o),
(674,160,c),
(635,181,l),
(600,134,o),
(541,104,o),
(479,104,cs),
(335,104,o),
(245,204,o),
(245,364,cs),
(245,515,o),
(329,634,o),
(435,634,cs),
(482,634,o),
(521,609,o),
(544,565,c),
(544,663,l),
(411,663,l),
(562,473,l),
(589,473,l),
(667,614,l),
(596,676,o),
(513,706,o),
(418,706,cs),
(181,706,o),
(32,561,o),
(32,330,cs),
(32,117,o),
(169,-16,o),
(386,-16,cs)
);
}
);
width = 706;
},
{
associatedMasterId = m01;
background = {
anchors = (
{
name = bottom;
pos = (419,0);
},
{
name = center;
pos = (387,345);
},
{
name = ogonek;
pos = (700,10);
},
{
name = qtail;
pos = (451,0);
},
{
name = top;
pos = (387,690);
},
{
name = topleft;
pos = (15,690);
},
{
name = topright;
pos = (758,690);
}
);
shapes = (
{
closed = 1;
nodes = (
(584,-16,o),
(728,136,o),
(728,352,cs),
(728,563,o),
(590,706,o),
(393,706,cs),
(189,706,o),
(45,554,o),
(45,338,cs),
(45,127,o),
(183,-16,o),
(380,-16,cs)
);
},
{
closed = 1;
nodes = (
(246,41,o),
(150,164,o),
(150,359,cs),
(150,537,o),
(237,649,o),
(375,649,cs),
(527,649,o),
(623,526,o),
(623,331,cs),
(623,153,o),
(536,41,o),
(398,41,cs)
);
}
);
};
layerId = "17D751EA-3F18-495B-A2B0-140FE7CB2137";
name = "14 Nov 23 at 14:04";
shapes = (
{
closed = 1;
nodes = (
(498,-16,o),
(593,41,o),
(649,143,c),
(614,163,l),
(554,80,o),
(488,43,o),
(398,43,cs),
(252,43,o),
(150,171,o),
(150,354,cs),
(150,527,o),
(248,649,o),
(388,649,cs),
(453,649,o),
(498,630,o),
(534,586,c),
(534,672,l),
(441,672,l),
(574,517,l),
(590,517,l),
(641,626,l),
(581,677,o),
(493,706,o),
(396,706,cs),
(199,706,o),
(45,542,o),
(45,333,cs),
(45,119,o),
(176,-16,o),
(384,-16,cs)
);
}
);
width = 694;
},
{
associatedMasterId = m01;
background = {
anchors = (
{
name = bottom;
pos = (419,0);
},
{
name = center;
pos = (387,345);
},
{
name = ogonek;
pos = (700,10);
},
{
name = qtail;
pos = (451,0);
},
{
name = top;
pos = (387,690);
},
{
name = topleft;
pos = (15,690);
},
{
name = topright;
pos = (758,690);
}
);
shapes = (
{
closed = 1;
nodes = (
(611,-16,o),
(767,136,o),
(767,352,cs),
(767,550,o),
(606,706,o),
(402,706,cs),
(198,706,o),
(54,554,o),
(54,338,cs),
(54,127,o),
(192,-16,o),
(389,-16,cs)
);
},
{
closed = 1;
nodes = (
(255,41,o),
(159,164,o),
(159,359,cs),
(159,537,o),
(246,649,o),
(384,649,cs),
(547,649,o),
(662,518,o),
(662,331,cs),
(662,161,o),
(557,41,o),
(407,41,cs)
);
}
);
};
layerId = "8BF1723F-E548-46D7-A45C-F693D7606CD5";
name = "14 Nov 23 at 14:15";
shapes = (
{
closed = 1;
nodes = (
(502,-16,o),
(593,41,o),
(649,143,c),
(614,163,l),
(554,80,o),
(488,43,o),
(398,43,cs),
(252,43,o),
(150,171,o),
(150,354,cs),
(150,527,o),
(248,649,o),
(388,649,cs),
(453,649,o),
(498,630,o),
(534,586,c),
(534,655,l),
(456,655,l),
(557,517,l),
(573,517,l),
(640,623,l),
(570,678,o),
(489,706,o),
(396,706,cs),
(199,706,o),
(45,542,o),
(45,333,cs),
(45,119,o),
(180,-16,o),
(394,-16,cs)
);
}
);
width = 694;
},
{
associatedMasterId = m002;
guides = (
{
angle = 90;
pos = (667,156);
}
);
layerId = "B608DC97-0A90-4FB4-991B-441D80F7EBAD";
name = "14 Nov 23 at 16:58";
shapes = (
{
closed = 1;
nodes = (
(513,-16,o),
(624,50,o),
(667,156,c),
(628,177,l),
(590,130,o),
(534,104,o),
(472,104,cs),
(333,104,o),
(245,204,o),
(245,364,cs),
(245,515,o),
(329,634,o),
(435,634,cs),
(482,634,o),
(521,609,o),
(544,565,c),
(544,663,l),
(411,663,l),
(562,473,l),
(589,473,l),
(667,614,l),
(596,676,o),
(513,706,o),
(418,706,cs),
(181,706,o),
(32,561,o),
(32,330,cs),
(32,117,o),
(166,-16,o),
(379,-16,cs)
);
}
);
width = 699;
},
{
anchors = (
{
name = bottom;
pos = (394,0);
},
{
name = top;
pos = (398,690);
}
);
associatedMasterId = m01;
background = {
shapes = (
{
closed = 1;
nodes = (
(584,-16,o),
(728,136,o),
(728,352,cs),
(728,563,o),
(590,706,o),
(393,706,cs),
(189,706,o),
(45,554,o),
(45,338,cs),
(45,127,o),
(183,-16,o),
(380,-16,cs)
);
},
{
closed = 1;
nodes = (
(246,41,o),
(150,164,o),
(150,359,cs),
(150,537,o),
(237,649,o),
(375,649,cs),
(527,649,o),
(623,526,o),
(623,331,cs),
(623,153,o),
(536,41,o),
(398,41,cs)
);
}
);
};
layerId = "CB009CBD-DBDA-415F-8E30-DF33B5B2CD6B";
name = "5 May 24 at 16:59";
shapes = (
{
closed = 1;
nodes = (
(502,-16,o),
(593,41,o),
(649,143,c),
(614,163,l),
(554,80,o),
(488,43,o),
(398,43,cs),
(252,43,o),
(150,171,o),
(150,354,cs),
(150,527,o),
(248,649,o),
(388,649,cs),
(422,649,o),
(451,644,o),
(476,633,c),
(553,524,l),
(569,524,l),
(639,636,l),
(584,677,o),
(483,706,o),
(396,706,cs),
(199,706,o),
(45,542,o),
(45,333,cs),
(45,119,o),
(180,-16,o),
(394,-16,cs)
);
}
);
width = 694;
},
{
anchors = (
{
name = bottom;
pos = (394,0);
},
{
name = top;
pos = (398,690);
}
);
background = {
shapes = (
{
closed = 1;
nodes = (
(584,-16,o),
(728,136,o),
(728,352,cs),
(728,563,o),
(590,706,o),
(393,706,cs),
(189,706,o),
(45,554,o),
(45,338,cs),
(45,127,o),
(183,-16,o),
(380,-16,cs)
);
},
{
closed = 1;
nodes = (
(246,41,o),
(150,164,o),
(150,359,cs),
(150,537,o),
(237,649,o),
(375,649,cs),
(527,649,o),
(623,526,o),
(623,331,cs),
(623,153,o),
(536,41,o),
(398,41,cs)
);
}
);
};
layerId = m01;
name = Light;
shapes = (
{
closed = 1;
nodes = (
(502,-16,o),
(593,41,o),
(649,143,c),
(614,163,l),
(554,80,o),
(488,43,o),
(398,43,cs),
(252,43,o),
(150,171,o),
(150,354,cs),
(150,527,o),
(248,649,o),
(388,649,cs),
(460,649,o),
(510,625,o),
(540,577,c),
(540,672,l),
(448,672,l),
(553,524,l),
(569,524,l),
(639,636,l),
(584,677,o),
(483,706,o),
(396,706,cs),
(199,706,o),
(45,542,o),
(45,333,cs),
(45,119,o),
(180,-16,o),
(394,-16,cs)
);
}
);
width = 694;
},
{
anchors = (
{
name = bottom;
pos = (351,0);
},
{
name = top;
pos = (418,690);
}
);
associatedMasterId = m002;
guides = (
{
angle = 90;
pos = (669,156);
}
);
layerId = "22AA842D-2778-4EA9-B127-B25E423E2043";
name = "5 May 24 at 16:59";
shapes = (
{
closed = 1;
nodes = (
(519,-16,o),
(626,50,o),
(669,156,c),
(630,177,l),
(592,130,o),
(536,104,o),
(474,104,cs),
(333,104,o),
(245,204,o),
(245,364,cs),
(245,515,o),
(329,634,o),
(437,634,c),
(564,480,l),
(591,480,l),
(669,632,l),
(592,679,o),
(503,706,o),
(420,706,cs),
(182,706,o),
(32,561,o),
(32,330,cs),
(32,117,o),
(170,-16,o),
(391,-16,cs)
);
}
);
width = 701;
},
{
anchors = (
{
name = bottom;
pos = (351,0);
},
{
name = top;
pos = (418,690);
}
);
guides = (
{
angle = 90;
pos = (669,156);
}
);
layerId = m002;
name = "Extra Bold";
shapes = (
{
closed = 1;
nodes = (
(519,-16,o),
(626,50,o),
(669,156,c),
(630,177,l),
(592,130,o),
(536,104,o),
(474,104,cs),
(333,104,o),
(245,204,o),
(245,364,cs),
(245,515,o),
(329,634,o),
(437,634,cs),
(484,634,o),
(523,609,o),
(546,565,c),
(546,663,l),
(413,663,l),
(564,480,l),
(591,480,l),
(669,632,l),
(592,679,o),
(503,706,o),
(420,706,cs),
(182,706,o),
(32,561,o),
(32,330,cs),
(32,117,o),
(170,-16,o),
(391,-16,cs)
);
}
);
width = 701;
}
);
metricLeft = "=O";
metricRight = "=O";
unicode = 67;
userData = {
KernOnName = C;
};
},
{
color = 9;
glyphname = "Chi-latin";
lastChange = "2024-05-06 01:18:14 +0000";
layers = (
{
background = {
shapes = (
{
closed = 1;
nodes = (
(824,0,l),
(824,16,l),
(722,93,l),
(794,13,l),
(271,677,l),
(271,589,l),
(404,674,l),
(404,690,l),
(126,690,l),
(126,674,l),
(228,597,l),
(156,677,l),
(679,13,l),
(679,101,l),
(546,16,l),
(546,0,l)
);
},
{
closed = 1;
nodes = (
(367,0,l),
(367,16,l),
(243,95,l),
(243,13,l),
(456,368,l),
(421,384,l),
(131,13,l),
(201,93,l),
(105,16,l),
(105,0,l)
);
},
{
closed = 1;
nodes = (
(489,322,l),
(769,677,l),
(698,597,l),
(794,674,l),
(794,690,l),
(533,690,l),
(533,674,l),
(657,595,l),
(657,677,l),
(444,322,l)
);
}
);
};
layerId = m01;
shapes = (
{
closed = 1;
nodes = (
(756,-199,l),
(678,-199,o),
(625,-150,o),
(563,-22,cs),
(438,236,l),
(673,621,l),
(739,674,l),
(739,690,l),
(478,690,l),
(478,674,l),
(567,617,l),
(413,286,l),
(319,480,ls),
(232,659,o),
(158,719,o),
(29,690,c),
(29,654,l),
(106,654,o),
(160,605,o),
(222,477,cs),
(335,245,l),
(74,-161,l),
(2,-219,l),
(2,-235,l),
(264,-235,l),
(264,-219,l),
(177,-163,l),
(358,197,l),
(466,-25,ls),
(553,-204,o),
(627,-264,o),
(756,-235,c)
);
}
);
width = 758;
},
{
layerId = m002;
shapes = (
{
closed = 1;
nodes = (
(867,-188,l),
(806,-188,o),
(756,-142,o),
(689,-22,cs),
(529,261,l),
(768,605,l),
(833,666,l),
(833,690,l),
(547,690,l),
(547,666,l),
(609,611,l),
(496,319,l),
(405,480,ls),
(298,669,o),
(181,733,o),
(19,690,c),
(19,643,l),
(80,643,o),
(130,597,o),
(197,477,cs),
(326,248,l),
(60,-157,l),
(2,-211,l),
(2,-235,l),
(288,-235,l),
(288,-211,l),
(227,-156,l),
(362,185,l),
(481,-25,ls),
(588,-214,o),
(705,-278,o),
(867,-235,c)
);
}
);
width = 869;
},
{
associatedMasterId = m01;
background = {
shapes = (
{
closed = 1;
nodes = (
(824,0,l),
(824,16,l),
(722,93,l),
(794,13,l),
(271,677,l),
(271,589,l),
(404,674,l),
(404,690,l),
(126,690,l),
(126,674,l),
(228,597,l),
(156,677,l),
(679,13,l),
(679,101,l),
(546,16,l),
(546,0,l)
);
},
{
closed = 1;
nodes = (
(367,0,l),
(367,16,l),
(243,95,l),
(243,13,l),
(456,368,l),
(421,384,l),
(131,13,l),
(201,93,l),
(105,16,l),
(105,0,l)
);
},
{
closed = 1;
nodes = (
(489,322,l),
(769,677,l),
(698,597,l),
(794,674,l),
(794,690,l),
(533,690,l),
(533,674,l),
(657,595,l),
(657,677,l),
(444,322,l)
);
}
);
};
layerId = "DD6F2A92-37C0-4CB0-BADD-6827D4C5D273";
name = "1 May 24 at 15:25";
shapes = (
{
closed = 1;
nodes = (
(756,-199,l),
(678,-199,o),
(625,-150,o),
(563,-22,cs),
(319,480,ls),
(232,659,o),
(158,719,o),
(29,690,c),
(29,654,l),
(106,654,o),
(160,605,o),
(222,477,cs),
(466,-25,ls),
(553,-204,o),
(627,-264,o),
(756,-235,c)
);
},
{
closed = 1;
nodes = (
(264,-235,l),
(264,-219,l),
(140,-140,l),
(147,-222,l),
(393,266,l),
(358,282,l),
(35,-222,l),
(98,-142,l),
(2,-219,l),
(2,-235,l)
);
},
{
closed = 1;
nodes = (
(427,218,l),
(707,677,l),
(643,597,l),
(739,674,l),
(739,690,l),
(478,690,l),
(478,674,l),
(602,595,l),
(595,677,l),
(382,218,l)
);
}
);
width = 758;
},
{
associatedMasterId = m002;
layerId = "21F4D404-8BDB-4D1C-A1C5-B348A27E30D1";
name = "1 May 24 at 15:25";
shapes = (
{
closed = 1;
nodes = (
(867,-188,l),
(806,-188,o),
(756,-142,o),
(689,-22,cs),
(405,480,ls),
(298,669,o),
(181,733,o),
(19,690,c),
(19,643,l),
(80,643,o),
(130,597,o),
(197,477,cs),
(481,-25,ls),
(588,-214,o),
(705,-278,o),
(867,-235,c)
);
},
{
closed = 1;
nodes = (
(288,-235,l),
(288,-211,l),
(194,-127,l),
(201,-222,l),
(397,272,l),
(342,272,l),
(17,-222,l),
(96,-123,l),
(2,-211,l),
(2,-235,l)
);
},
{
closed = 1;
nodes = (
(488,203,l),
(818,677,l),
(739,578,l),
(833,666,l),
(833,690,l),
(547,690,l),
(547,666,l),
(641,582,l),
(634,677,l),
(451,203,l)
);
}
);
width = 869;
}
);
metricLeft = "=X";
metricRight = "=X";
unicode = 42931;
userData = {
KernOnName = "Chi-latin";
};
},
{
color = 9;
glyphname = Chook;
lastChange = "2024-05-06 01:18:14 +0000";
layers = (
{
layerId = m01;
shapes = (
{
closed = 1;
nodes = (
(502,-16,o),
(593,41,o),
(649,143,c),
(614,163,l),
(554,80,o),
(488,43,o),
(398,43,cs),
(252,43,o),
(150,171,o),
(150,354,cs),
(150,527,o),
(256,649,o),
(406,649,cs),
(486,649,o),
(567,606,o),
(616,537,c),
(664,565,l),
(634,677,o),
(652,765,o),
(705,765,cs),
(783,765,l),
(783,788,l),
(659,788,l),
(763,681,l),
(777,681,l),
(844,798,l),
(803,817,o),
(760,827,o),
(717,827,cs),
(602,827,o),
(554,726,o),
(607,598,c),
(599,632,l),
(550,681,o),
(482,706,o),
(396,706,cs),
(199,706,o),
(45,542,o),
(45,333,cs),
(45,119,o),
(180,-16,o),
(394,-16,cs)
);
}
);
width = 846;
},
{
layerId = m002;
shapes = (
{
closed = 1;
nodes = (
(519,-16,o),
(626,50,o),
(669,156,c),
(630,177,l),
(592,130,o),
(536,104,o),
(474,104,cs),
(333,104,o),
(245,204,o),
(245,364,cs),
(245,517,o),
(328,624,o),
(446,624,cs),
(509,624,o),
(570,587,o),
(604,528,c),
(675,560,l),
(619,688,o),
(636,789,o),
(714,789,cs),
(746,789,l),
(746,829,l),
(634,829,l),
(756,681,l),
(781,681,l),
(856,852,l),
(803,878,o),
(746,893,o),
(697,893,cs),
(497,893,o),
(497,669,o),
(591,634,c),
(591,654,l),
(536,689,o),
(480,706,o),
(420,706,cs),
(182,706,o),
(32,561,o),
(32,330,cs),
(32,117,o),
(170,-16,o),
(391,-16,cs)
);
}
);
width = 858;
}
);
metricLeft = "=C";
metricRight = "=V";
unicode = 391;
userData = {
KernOnName = Chook;
};
},
{
color = 9;
glyphname = Cstroke;
lastChange = "2024-04-27 12:20:03 +0000";
layers = (
{
guides = (
{
pos = (485,799);
}
);
layerId = m01;
shapes = (
{
ref = C;
},
{
closed = 1;
nodes = (
(542,781,l),
(495,799,l),
(170,-96,l),
(217,-113,l)
);
}
);
width = 694;
},
{
guides = (
{
pos = (509,804);
}
);
layerId = m002;
shapes = (
{
ref = C;
},
{
closed = 1;
nodes = (
(547,784,l),
(494,804,l),
(158,-122,l),
(211,-141,l)
);
}
);
width = 701;
}
);
unicode = 571;
},
{
color = 4;
glyphname = D;
kernLeft = KO_H;
kernRight = KO_D;
lastChange = "2024-05-05 07:53:39 +0000";
layers = (
{
anchors = (
{
name = bottom;
pos = (334,0);
},
{
name = center;
pos = (198,354);
},
{
name = top;
pos = (342,690);
}
);
guides = (
{
pos = (325,345);
},
{
angle = 90;
pos = (30,434);
}
);
layerId = m01;
shapes = (
{
closed = 1;
nodes = (
(322,0,ls),
(538,0,o),
(690,147,o),
(690,357,cs),
(690,553,o),
(546,690,o),
(342,690,cs),
(30,690,l),
(30,674,l),
(109,615,l),
(109,75,l),
(30,16,l),
(30,0,l)
);
},
{
closed = 1;
nodes = (
(205,640,l),
(332,640,ls),
(487,640,o),
(585,521,o),
(585,331,cs),
(585,151,o),
(491,50,o),
(322,50,cs),
(205,50,l)
);
}
);
width = 735;
},
{
associatedMasterId = m01;
layerId = "FA5023BE-B049-482D-861D-576E181B670A";
name = "22 Aug 23 at 12:10";
shapes = (
{
closed = 1;
nodes = (
(301,0,ls),
(540,0,o),
(708,147,o),
(708,357,cs),
(708,562,o),
(556,690,o),
(313,690,cs),
(193,690,l),
(193,639,l),
(287,639,ls),
(504,639,o),
(612,535,o),
(612,325,cs),
(612,150,o),
(502,52,o),
(305,52,cs),
(193,52,l),
(193,0,l)
);
},
{
closed = 1;
nodes = (
(217,0,l),
(217,690,l),
(46,690,l),
(46,674,l),
(125,617,l),
(125,73,l),
(46,16,l),
(46,0,l)
);
}
);
width = 750;
},
{
anchors = (
{
name = bottom;
pos = (378,0);
},
{
name = center;
pos = (225,352);
},
{
name = top;
pos = (373,690);
}
);
guides = (
{
angle = 90;
pos = (318,345);
},
{
pos = (318,345);
},
{
angle = 90;
pos = (26,436);
}
);
layerId = m002;
shapes = (
{
closed = 1;
nodes = (
(356,0,ls),
(602,0,o),
(775,146,o),
(775,353,cs),
(775,560,o),
(620,690,o),
(373,690,cs),
(26,690,l),
(26,666,l),
(95,597,l),
(95,93,l),
(26,24,l),
(26,0,l)
);
},
{
closed = 1;
nodes = (
(291,630,l),
(352,630,ls),
(480,630,o),
(561,520,o),
(561,345,cs),
(561,170,o),
(480,60,o),
(352,60,cs),
(291,60,l)
);
}
);
width = 807;
},
{
associatedMasterId = m002;
layerId = "8299D61C-C4DB-448F-85E1-F5454371D085";
name = "7 Oct 23 at 08:22";
shapes = (
{
closed = 1;
nodes = (
(328,0,ls),
(565,0,o),
(752,161,o),
(752,367,cs),
(752,565,o),
(595,690,o),
(345,690,cs),
(207,690,l),
(207,630,l),
(320,630,ls),
(466,630,o),
(547,519,o),
(547,321,cs),
(547,161,o),
(457,60,o),
(314,60,cs),
(207,60,l),
(207,0,l)
);
},
{
closed = 1;
nodes = (
(287,0,l),
(287,690,l),
(22,690,l),
(22,666,l),
(91,597,l),
(91,93,l),
(22,24,l),
(22,0,l)
);
}
);
width = 788;
},
{
associatedMasterId = m002;
guides = (
{
angle = 90;
pos = (316,345);
},
{
pos = (316,345);
}
);
layerId = "52B66C4D-9C34-44AE-824D-ED2AF1D7F876";
name = "7 Oct 23 at 18:34";
shapes = (
{
closed = 1;
nodes = (
(330,0,ls),
(574,0,o),
(766,158,o),
(766,359,cs),
(766,562,o),
(604,690,o),
(347,690,cs),
(209,690,l),
(209,630,l),
(322,630,ls),
(466,630,o),
(556,520,o),
(556,345,cs),
(556,162,o),
(470,60,o),
(316,60,cs),
(209,60,l),
(209,0,l)
);
},
{
closed = 1;
nodes = (
(289,0,l),
(289,690,l),
(24,690,l),
(24,666,l),
(93,597,l),
(93,93,l),
(24,24,l),
(24,0,l)
);
}
);
width = 800;
},
{
associatedMasterId = m002;
guides = (
{
angle = 90;
pos = (316,345);
},
{
pos = (316,345);
}
);
layerId = "BA4A45DE-3B7F-4C3C-86D0-8374433645CB";
name = "10 Oct 23 at 17:07";
shapes = (
{
closed = 1;
nodes = (
(330,0,ls),
(575,0,o),
(767,158,o),
(767,359,cs),
(767,562,o),
(605,690,o),
(347,690,cs),
(209,690,l),
(209,630,l),
(322,630,ls),
(465,630,o),
(555,520,o),
(555,345,cs),
(555,162,o),
(469,60,o),
(316,60,cs),
(209,60,l),
(209,0,l)
);
},
{
closed = 1;
nodes = (
(289,0,l),
(289,690,l),
(24,690,l),
(24,666,l),
(93,597,l),
(93,93,l),
(24,24,l),
(24,0,l)
);
}
);
width = 801;
},
{
associatedMasterId = m002;
guides = (
{
angle = 90;
pos = (316,345);
},
{
pos = (316,345);
}
);
layerId = "A00FC461-3F32-490D-8514-95A716E84736";
name = "11 Oct 23 at 11:44";
shapes = (
{
closed = 1;
nodes = (
(359,0,ls),
(602,0,o),
(773,151,o),
(773,365,cs),
(773,565,o),
(620,690,o),
(376,690,cs),
(213,690,l),
(213,630,l),
(351,630,ls),
(479,630,o),
(559,520,o),
(559,345,cs),
(559,162,o),
(482,60,o),
(345,60,cs),
(213,60,l),
(213,0,l)
);
},
{
closed = 1;
nodes = (
(289,0,l),
(289,690,l),
(24,690,l),
(24,666,l),
(93,597,l),
(93,93,l),
(24,24,l),
(24,0,l)
);
}
);
width = 807;
},
{
associatedMasterId = m002;
guides = (
{
angle = 90;
pos = (318,345);
},
{
pos = (318,345);
}
);
layerId = "249883B7-DB7C-4C96-AE87-CE9ED6137E8D";
name = "20 Oct 23 at 17:01";
shapes = (
{
closed = 1;
nodes = (
(356,0,ls),
(602,0,o),
(775,147,o),
(775,355,cs),
(775,561,o),
(620,690,o),
(373,690,cs),
(215,690,l),
(215,630,l),
(348,630,ls),
(479,630,o),
(561,520,o),
(561,345,cs),
(561,162,o),
(482,60,o),
(342,60,cs),
(215,60,l),
(215,0,l)
);
},
{
closed = 1;
nodes = (
(291,0,l),
(291,690,l),
(26,690,l),
(26,666,l),
(95,597,l),
(95,93,l),
(26,24,l),
(26,0,l)
);
}
);
width = 811;
},
{
associatedMasterId = m002;
guides = (
{
angle = 90;
pos = (318,345);
},
{
pos = (318,345);
}
);
layerId = "4850712F-A543-4827-B36B-B0CF78DC8FF3";
name = "27 Oct 23 at 19:18";
shapes = (
{
closed = 1;
nodes = (
(356,0,ls),
(602,0,o),
(775,144,o),
(775,350,cs),
(775,559,o),
(620,690,o),
(373,690,cs),
(215,690,l),
(215,630,l),
(352,630,ls),
(480,630,o),
(561,518,o),
(561,340,cs),
(561,160,o),
(482,60,o),
(342,60,cs),
(215,60,l),
(215,0,l)
);
},
{
closed = 1;
nodes = (
(291,0,l),
(291,690,l),
(26,690,l),
(26,666,l),
(95,597,l),
(95,93,l),
(26,24,l),
(26,0,l)
);
}
);
width = 811;
},
{
anchors = (
{
name = bottom;
pos = (334,0);
},
{
name = center;
pos = (198,354);
},
{
name = top;
pos = (342,690);
}
);
associatedMasterId = m01;
guides = (
{
pos = (325,345);
},
{
angle = 90;
pos = (30,434);
}
);
layerId = "AC048E0E-B98B-450D-80D8-5A94F7E94E66";
name = "1 May 24 at 14:01";
shapes = (
{
closed = 1;
nodes = (
(322,0,ls),
(538,0,o),
(690,147,o),
(690,357,cs),
(690,553,o),
(546,690,o),
(342,690,cs),
(177,690,l),
(177,640,l),
(332,640,ls),
(487,640,o),
(585,521,o),
(585,331,cs),
(585,151,o),
(491,50,o),
(322,50,cs),
(177,50,l),
(177,0,l)
);
},
{
closed = 1;
nodes = (
(205,0,l),
(205,690,l),
(30,690,l),
(30,674,l),
(109,615,l),
(109,75,l),
(30,16,l),
(30,0,l)
);
}
);
width = 735;
},
{
anchors = (
{
name = bottom;
pos = (378,0);
},
{
name = center;
pos = (225,352);
},
{
name = top;
pos = (373,690);
}
);
associatedMasterId = m002;
guides = (
{
angle = 90;
pos = (318,345);
},
{
pos = (318,345);
},
{
angle = 90;
pos = (26,436);
}
);
layerId = "4A7DC610-C72D-4C40-BDA9-C4CE80502756";
name = "1 May 24 at 14:01";
shapes = (
{
closed = 1;
nodes = (
(356,0,ls),
(602,0,o),
(775,146,o),
(775,353,cs),
(775,560,o),
(620,690,o),
(373,690,cs),
(215,690,l),
(215,630,l),
(352,630,ls),
(480,630,o),
(561,520,o),
(561,345,cs),
(561,170,o),
(480,60,o),
(352,60,cs),
(215,60,l),
(215,0,l)
);
},
{
closed = 1;
nodes = (
(291,0,l),
(291,690,l),
(26,690,l),
(26,666,l),
(95,597,l),
(95,93,l),
(26,24,l),
(26,0,l)
);
}
);
width = 807;
}
);
metricLeft = "=H";
metricRight = "=O";
unicode = 68;
},
{
color = 9;
glyphname = Dhook;
kernRight = KO_D;
lastChange = "2024-04-30 11:34:06 +0000";
layers = (
{
layerId = m002;
shapes = (
{
closed = 1;
nodes = (
(503,0,ls),
(749,0,o),
(922,146,o),
(922,353,cs),
(922,560,o),
(767,690,o),
(520,690,cs),
(300,690,ls),
(109,690,o),
(2,618,o),
(2,489,cs),
(2,415,o),
(27,359,o),
(85,304,c),
(209,425,l),
(209,452,l),
(37,561,l),
(37,427,l),
(161,427,l),
(122,454,o),
(107,478,o),
(107,511,cs),
(107,578,o),
(173,630,o),
(257,630,cs),
(499,630,ls),
(627,630,o),
(708,520,o),
(708,345,cs),
(708,170,o),
(627,60,o),
(499,60,cs),
(362,60,l),
(362,0,l)
);
},
{
closed = 1;
nodes = (
(438,0,l),
(438,690,l),
(242,646,l),
(242,93,l),
(163,24,l),
(163,0,l)
);
}
);
width = 954;
},
{
associatedMasterId = m01;
layerId = "EB789C3E-F462-4CC9-8B03-744AFF2E034E";
name = "21 Apr 24 at 20:29";
shapes = (
{
closed = 1;
nodes = (
(373,0,ls),
(589,0,o),
(741,147,o),
(741,357,cs),
(741,553,o),
(597,690,o),
(393,690,cs),
(228,690,l),
(228,640,l),
(383,640,ls),
(538,640,o),
(636,521,o),
(636,331,cs),
(636,151,o),
(542,50,o),
(373,50,cs),
(228,50,l),
(228,0,l)
);
},
{
closed = 1;
nodes = (
(256,0,l),
(256,690,l),
(160,690,l),
(160,75,l),
(81,16,l),
(81,0,l)
);
},
{
closed = 1;
nodes = (
(87,538,l),
(87,601,o),
(115,640,o),
(160,640,cs),
(186,640,l),
(186,690,l),
(159,690,ls),
(67,690,o),
(2,627,o),
(2,538,c)
);
}
);
width = 786;
},
{
associatedMasterId = m01;
guides = (
{
pos = (306,640);
}
);
layerId = "524F7879-EAAA-472D-83BE-AE955AA8DF81";
name = "21 Apr 24 at 20:33";
shapes = (
{
closed = 1;
nodes = (
(373,0,ls),
(589,0,o),
(741,147,o),
(741,357,cs),
(741,553,o),
(597,690,o),
(393,690,cs),
(228,690,l),
(228,640,l),
(383,640,ls),
(538,640,o),
(636,521,o),
(636,331,cs),
(636,151,o),
(542,50,o),
(373,50,cs),
(228,50,l),
(228,0,l)
);
},
{
closed = 1;
nodes = (
(256,0,l),
(256,690,l),
(160,690,l),
(160,75,l),
(81,16,l),
(81,0,l)
);
},
{
closed = 1;
nodes = (
(76,527,l),
(160,640,l),
(60,641,l),
(60,578,l),
(74,607,o),
(129,640,o),
(160,640,c),
(196,640,l),
(196,690,l),
(160,690,ls),
(95,690,o),
(41,670,o),
(-18,625,c),
(60,527,l)
);
}
);
width = 786;
},
{
associatedMasterId = m01;
guides = (
{
pos = (362,640);
}
);
layerId = "33CC14D9-3BF8-467A-B814-D9910FFC2CE5";
name = "23 Apr 24 at 13:47";
shapes = (
{
closed = 1;
nodes = (
(429,0,ls),
(645,0,o),
(797,147,o),
(797,357,cs),
(797,553,o),
(653,690,o),
(449,690,cs),
(284,690,l),
(284,640,l),
(439,640,ls),
(594,640,o),
(692,521,o),
(692,331,cs),
(692,151,o),
(598,50,o),
(429,50,cs),
(284,50,l),
(284,0,l)
);
},
{
closed = 1;
nodes = (
(312,0,l),
(312,690,l),
(216,690,l),
(216,75,l),
(137,16,l),
(137,0,l)
);
},
{
closed = 1;
nodes = (
(99,690,o),
(48,676,o),
(2,638,c),
(80,502,l),
(96,502,l),
(149,646,l),
(80,666,l),
(80,583,l),
(97,608,o),
(125,640,o),
(164,640,c),
(258,640,l),
(258,690,l),
(185,690,l)
);
}
);
width = 842;
},
{
associatedMasterId = m002;
layerId = "E7459F10-388C-490B-9AA9-8A8E04D62EF5";
name = "24 Apr 24 at 10:26";
shapes = (
{
closed = 1;
nodes = (
(458,0,ls),
(704,0,o),
(877,146,o),
(877,353,cs),
(877,560,o),
(722,690,o),
(475,690,cs),
(317,690,l),
(317,630,l),
(454,630,ls),
(582,630,o),
(663,520,o),
(663,345,cs),
(663,170,o),
(582,60,o),
(454,60,cs),
(317,60,l),
(317,0,l)
);
},
{
closed = 1;
nodes = (
(393,0,l),
(393,690,l),
(197,690,l),
(197,93,l),
(128,24,l),
(128,0,l)
);
},
{
closed = 1;
nodes = (
(145,504,l),
(145,578,o),
(166,630,o),
(197,630,c),
(219,630,l),
(219,690,l),
(184,690,ls),
(67,690,o),
(2,623,o),
(2,504,c)
);
}
);
width = 909;
},
{
associatedMasterId = m01;
guides = (
{
pos = (353,640);
}
);
layerId = "E8068B0F-2CFD-44BD-BB27-33E8294F8481";
name = "25 Apr 24 at 14:52";
shapes = (
{
closed = 1;
nodes = (
(420,0,ls),
(636,0,o),
(788,147,o),
(788,357,cs),
(788,553,o),
(644,690,o),
(440,690,cs),
(275,690,ls),
(121,690,o),
(37,669,o),
(-28,614,c),
(53,516,l),
(68,516,l),
(137,655,l),
(89,640,l),
(430,640,ls),
(585,640,o),
(683,521,o),
(683,331,cs),
(683,151,o),
(589,50,o),
(420,50,cs),
(275,50,l),
(275,0,l)
);
},
{
closed = 1;
nodes = (
(303,0,l),
(303,690,l),
(207,667,l),
(207,75,l),
(118,16,l),
(118,0,l)
);
}
);
width = 833;
},
{
associatedMasterId = m002;
layerId = "74AA45A3-B159-4549-980C-74DB059A6D17";
name = "25 Apr 24 at 14:53";
shapes = (
{
closed = 1;
nodes = (
(503,0,ls),
(749,0,o),
(922,146,o),
(922,353,cs),
(922,560,o),
(767,690,o),
(520,690,cs),
(362,690,ls),
(209,690,o),
(90,664,o),
(2,613,c),
(113,472,l),
(138,472,l),
(224,640,l),
(179,630,l),
(499,630,ls),
(627,630,o),
(708,520,o),
(708,345,cs),
(708,170,o),
(627,60,o),
(499,60,cs),
(362,60,l),
(362,0,l)
);
},
{
closed = 1;
nodes = (
(438,0,l),
(438,690,l),
(242,646,l),
(242,93,l),
(163,24,l),
(163,0,l)
);
}
);
width = 954;
},
{
associatedMasterId = m01;
guides = (
{
pos = (322,640);
}
);
layerId = "29289CFA-21AC-4737-885A-6407AE82C2DE";
name = "30 Apr 24 at 18:59";
shapes = (
{
closed = 1;
nodes = (
(389,0,ls),
(605,0,o),
(757,147,o),
(757,357,cs),
(757,553,o),
(613,690,o),
(409,690,cs),
(174,690,ls),
(68,690,o),
(2,637,o),
(2,553,cs),
(2,502,o),
(19,452,o),
(57,390,c),
(145,468,l),
(145,484,l),
(49,545,l),
(49,474,l),
(131,474,l),
(77,502,o),
(56,524,o),
(56,554,cs),
(56,616,o),
(89,640,o),
(176,640,cs),
(399,640,ls),
(554,640,o),
(652,521,o),
(652,331,cs),
(652,151,o),
(558,50,o),
(389,50,cs),
(244,50,l),
(244,0,l)
);
},
{
closed = 1;
nodes = (
(272,0,l),
(272,690,l),
(176,667,l),
(176,75,l),
(87,16,l),
(87,0,l)
);
}
);
width = 802;
},
{
guides = (
{
pos = (362,640);
}
);
layerId = m01;
name = Light;
shapes = (
{
closed = 1;
nodes = (
(429,0,ls),
(645,0,o),
(797,147,o),
(797,357,cs),
(797,553,o),
(653,690,o),
(449,690,cs),
(214,690,ls),
(84,690,o),
(2,622,o),
(2,513,cs),
(2,462,o),
(19,412,o),
(57,350,c),
(155,444,l),
(155,460,l),
(49,515,l),
(49,434,l),
(131,434,l),
(89,470,o),
(68,503,o),
(68,532,cs),
(68,595,o),
(129,640,o),
(216,640,cs),
(439,640,ls),
(594,640,o),
(692,521,o),
(692,331,cs),
(692,151,o),
(598,50,o),
(429,50,cs),
(284,50,l),
(284,0,l)
);
},
{
closed = 1;
nodes = (
(312,0,l),
(312,690,l),
(216,667,l),
(216,75,l),
(127,16,l),
(127,0,l)
);
}
);
width = 842;
}
);
metricLeft = "=V";
metricRight = "=D";
unicode = 394;
},
{
color = 4;
glyphname = E;
kernLeft = KO_H;
kernRight = KO_E;
lastChange = "2024-05-06 01:18:14 +0000";
layers = (
{
anchors = (
{
name = bottom;
pos = (310,0);
},
{
name = ogonek;
pos = (455,0);
},
{
name = top;
pos = (310,690);
},
{
name = topleft;
pos = (20,690);
}
);
layerId = m01;
shapes = (
{
closed = 1;
nodes = (
(568,0,l),
(574,167,l),
(558,167,l),
(447,55,l),
(205,44,l),
(205,333,l),
(391,326,l),
(459,261,l),
(475,261,l),
(475,451,l),
(459,451,l),
(390,386,l),
(205,378,l),
(205,646,l),
(445,635,l),
(546,546,l),
(562,546,l),
(556,698,l),
(545,698,l),
(432,690,l),
(30,690,l),
(30,674,l),
(109,615,l),
(109,75,l),
(30,16,l),
(30,0,l)
);
}
);
width = 619;
},
{
associatedMasterId = m01;
layerId = "46645CCB-1EDC-43F2-B982-546AB978FA13";
name = "22 Aug 23 at 18:35";
shapes = (
{
closed = 1;
nodes = (
(217,0,l),
(217,690,l),
(46,690,l),
(46,674,l),
(125,617,l),
(125,73,l),
(46,16,l),
(46,0,l)
);
},
{
closed = 1;
nodes = (
(540,0,l),
(540,56,l),
(199,40,l),
(199,0,l)
);
},
{
closed = 1;
nodes = (
(580,0,l),
(591,165,l),
(575,165,l),
(463,41,l),
(463,0,l)
);
},
{
closed = 1;
nodes = (
(455,386,l),
(190,375,l),
(190,336,l),
(455,326,l)
);
},
{
closed = 1;
nodes = (
(540,690,l),
(199,690,l),
(199,650,l),
(540,634,l)
);
},
{
closed = 1;
nodes = (
(477,257,l),
(487,451,l),
(471,451,l),
(396,375,l),
(396,336,l),
(461,257,l)
);
},
{
closed = 1;
nodes = (
(572,546,l),
(568,696,l),
(557,696,l),
(459,690,l),
(459,646,l),
(556,546,l)
);
}
);
width = 660;
},
{
anchors = (
{
name = bottom;
pos = (320,0);
},
{
name = ogonek;
pos = (464,0);
},
{
name = top;
pos = (320,690);
},
{
name = topleft;
pos = (20,690);
}
);
guides = (
{
angle = 270;
pos = (223,669);
}
);
layerId = m002;
shapes = (
{
closed = 1;
nodes = (
(602,0,l),
(608,188,l),
(581,188,l),
(440,65,l),
(291,53,l),
(291,329,l),
(401,322,l),
(485,244,l),
(512,244,l),
(512,468,l),
(485,468,l),
(401,390,l),
(291,382,l),
(291,637,l),
(431,626,l),
(561,518,l),
(588,518,l),
(588,706,l),
(568,706,l),
(411,690,l),
(26,690,l),
(26,666,l),
(95,597,l),
(95,93,l),
(26,24,l),
(26,0,l)
);
}
);
width = 640;
},
{
associatedMasterId = m01;
layerId = "12FCFE73-9792-4E08-BBA0-751DB871D85E";
name = "15 Nov 23 at 14:09";
shapes = (
{
closed = 1;
nodes = (
(205,0,l),
(205,690,l),
(30,690,l),
(30,674,l),
(109,615,l),
(109,75,l),
(30,16,l),
(30,0,l)
);
},
{
closed = 1;
nodes = (
(528,0,l),
(528,59,l),
(187,43,l),
(187,0,l)
);
},
{
closed = 1;
nodes = (
(568,0,l),
(574,167,l),
(558,167,l),
(443,41,l),
(443,0,l)
);
},
{
closed = 1;
nodes = (
(443,388,l),
(178,377,l),
(178,334,l),
(443,324,l)
);
},
{
closed = 1;
nodes = (
(475,261,l),
(475,451,l),
(459,451,l),
(384,375,l),
(384,337,l),
(459,261,l)
);
},
{
closed = 1;
nodes = (
(528,690,l),
(187,690,l),
(187,647,l),
(528,631,l)
);
},
{
closed = 1;
nodes = (
(562,546,l),
(556,698,l),
(545,698,l),
(442,690,l),
(442,646,l),
(546,546,l)
);
}
);
width = 619;
},
{
associatedMasterId = m002;
guides = (
{
angle = 270;
pos = (223,669);
}
);
layerId = "70B5B155-7DA6-4AB9-9377-8E2D98DD58CB";
name = "15 Nov 23 at 14:14";
shapes = (
{
closed = 1;
nodes = (
(291,0,l),
(291,690,l),
(26,690,l),
(26,666,l),
(95,597,l),
(95,93,l),
(26,24,l),
(26,0,l)
);
},
{
closed = 1;
nodes = (
(569,0,l),
(569,75,l),
(233,48,l),
(233,0,l)
);
},
{
closed = 1;
nodes = (
(602,0,l),
(608,183,l),
(581,183,l),
(435,47,l),
(435,0,l)
);
},
{
closed = 1;
nodes = (
(484,396,l),
(233,378,l),
(233,333,l),
(484,316,l)
);
},
{
closed = 1;
nodes = (
(516,249,l),
(516,463,l),
(489,463,l),
(401,377,l),
(401,335,l),
(489,249,l)
);
},
{
closed = 1;
nodes = (
(569,690,l),
(233,690,l),
(233,642,l),
(569,615,l)
);
},
{
closed = 1;
nodes = (
(588,523,l),
(588,706,l),
(568,706,l),
(426,690,l),
(426,643,l),
(561,523,l)
);
}
);
width = 640;
},
{
anchors = (
{
name = bottom;
pos = (310,0);
},
{
name = ogonek;
pos = (455,0);
},
{
name = top;
pos = (310,690);
},
{
name = topleft;
pos = (20,690);
}
);
associatedMasterId = m01;
layerId = "A5EE808C-DFE1-4F30-9444-86D57DFD0029";
name = "1 May 24 at 14:01";
shapes = (
{
closed = 1;
nodes = (
(205,0,l),
(205,690,l),
(30,690,l),
(30,674,l),
(109,615,l),
(109,75,l),
(30,16,l),
(30,0,l)
);
},
{
closed = 1;
nodes = (
(528,0,l),
(528,59,l),
(187,43,l),
(187,0,l)
);
},
{
closed = 1;
nodes = (
(568,0,l),
(574,167,l),
(558,167,l),
(433,41,l),
(433,0,l)
);
},
{
closed = 1;
nodes = (
(443,388,l),
(178,377,l),
(178,334,l),
(443,324,l)
);
},
{
closed = 1;
nodes = (
(475,261,l),
(475,451,l),
(459,451,l),
(379,375,l),
(379,337,l),
(459,261,l)
);
},
{
closed = 1;
nodes = (
(528,690,l),
(187,690,l),
(187,647,l),
(528,631,l)
);
},
{
closed = 1;
nodes = (
(562,546,l),
(556,698,l),
(545,698,l),
(432,690,l),
(432,646,l),
(546,546,l)
);
}
);
width = 619;
},
{
anchors = (
{
name = bottom;
pos = (320,0);
},
{
name = ogonek;
pos = (464,0);
},
{
name = top;
pos = (320,690);
},
{
name = topleft;
pos = (20,690);
}
);
associatedMasterId = m002;
guides = (
{
angle = 270;
pos = (223,669);
}
);
layerId = "712A8B8E-BE70-414D-A706-91829D51900B";
name = "1 May 24 at 14:01";
shapes = (
{
closed = 1;
nodes = (
(291,0,l),
(291,690,l),
(26,690,l),
(26,666,l),
(95,597,l),
(95,93,l),
(26,24,l),
(26,0,l)
);
},
{
closed = 1;
nodes = (
(569,0,l),
(569,75,l),
(233,48,l),
(233,0,l)
);
},
{
closed = 1;
nodes = (
(602,0,l),
(608,188,l),
(581,188,l),
(420,47,l),
(420,0,l)
);
},
{
closed = 1;
nodes = (
(484,396,l),
(233,378,l),
(233,333,l),
(484,316,l)
);
},
{
closed = 1;
nodes = (
(512,244,l),
(512,468,l),
(485,468,l),
(387,377,l),
(387,335,l),
(485,244,l)
);
},
{
closed = 1;
nodes = (
(569,690,l),
(233,690,l),
(233,642,l),
(569,615,l)
);
},
{
closed = 1;
nodes = (
(588,518,l),
(588,706,l),
(568,706,l),
(411,690,l),
(411,643,l),
(561,518,l)
);
}
);
width = 640;
}
);
metricLeft = "=H";
metricRight = "=O";
unicode = 69;
userData = {
KernOnName = E;
};
},
{
color = 9;
glyphname = Eopen;
kernRight = KO_T;
lastChange = "2024-05-04 05:38:15 +0000";
layers = (
{
anchors = (
{
name = bottom;
pos = (317,0);
},
{
name = top;
pos = (317,690);
}
);
layerId = m01;
shapes = (
{
closed = 1;
nodes = (
(447,-16,o),
(542,41,o),
(588,143,c),
(553,163,l),
(507,86,o),
(426,43,o),
(327,43,cs),
(234,43,o),
(148,104,o),
(148,191,cs),
(148,284,o),
(216,343,o),
(324,343,cs),
(378,343,l),
(378,395,l),
(324,395,ls),
(238,395,o),
(170,455,o),
(170,531,cs),
(170,603,o),
(219,649,o),
(297,649,cs),
(369,649,o),
(419,625,o),
(449,577,c),
(449,672,l),
(357,672,l),
(462,524,l),
(478,524,l),
(548,636,l),
(493,677,o),
(392,706,o),
(293,706,cs),
(160,706,o),
(67,638,o),
(67,541,cs),
(67,460,o),
(115,405,o),
(205,381,c),
(205,376,l),
(104,351,o),
(45,290,o),
(45,207,cs),
(45,64,o),
(158,-16,o),
(323,-16,cs)
);
}
);
width = 633;
},
{
anchors = (
{
name = bottom;
pos = (332,0);
},
{
name = top;
pos = (332,690);
}
);
layerId = m002;
shapes = (
{
closed = 1;
nodes = (
(481,-16,o),
(588,50,o),
(631,156,c),
(592,177,l),
(556,132,o),
(488,104,o),
(415,104,cs),
(307,104,o),
(239,148,o),
(239,218,cs),
(239,286,o),
(296,334,o),
(376,334,cs),
(416,334,l),
(416,402,l),
(375,402,ls),
(304,402,o),
(248,459,o),
(248,531,cs),
(248,591,o),
(301,634,o),
(376,634,cs),
(425,634,o),
(461,611,o),
(485,565,c),
(485,663,l),
(352,663,l),
(503,480,l),
(530,480,l),
(608,632,l),
(528,679,o),
(427,706,o),
(327,706,cs),
(157,706,o),
(51,642,o),
(51,541,cs),
(51,460,o),
(104,408,o),
(212,386,c),
(212,379,l),
(92,356,o),
(32,298,o),
(32,205,cs),
(32,75,o),
(165,-16,o),
(353,-16,cs)
);
}
);
width = 663;
},
{
anchors = (
{
name = bottom;
pos = (317,0);
},
{
name = top;
pos = (317,690);
}
);
associatedMasterId = m01;
layerId = "20FE2434-AD85-4117-B2E2-439A7EC5E425";
name = "1 May 24 at 15:25";
shapes = (
{
closed = 1;
nodes = (
(447,-16,o),
(542,41,o),
(588,143,c),
(553,163,l),
(507,86,o),
(426,43,o),
(327,43,cs),
(234,43,o),
(148,104,o),
(148,191,cs),
(148,284,o),
(216,343,o),
(324,343,c),
(378,343,l),
(378,395,l),
(324,395,ls),
(238,395,o),
(170,455,o),
(170,531,cs),
(170,603,o),
(219,649,o),
(297,649,cs),
(369,649,o),
(419,625,o),
(449,577,c),
(449,672,l),
(357,672,l),
(462,524,l),
(478,524,l),
(548,636,l),
(493,677,o),
(392,706,o),
(293,706,cs),
(160,706,o),
(67,638,o),
(67,541,cs),
(67,429,o),
(159,367,o),
(324,367,c),
(324,390,l),
(153,390,o),
(45,319,o),
(45,207,cs),
(45,64,o),
(158,-16,o),
(323,-16,cs)
);
},
{
closed = 1;
nodes = (
(251,366,l),
(251,394,l),
(205,394,l),
(205,366,l)
);
}
);
width = 633;
},
{
anchors = (
{
name = bottom;
pos = (332,0);
},
{
name = top;
pos = (332,690);
}
);
associatedMasterId = m002;
layerId = "1308230D-6B26-48C1-8226-A08296CACFBA";
name = "1 May 24 at 15:25";
shapes = (
{
closed = 1;
nodes = (
(481,-16,o),
(588,50,o),
(631,156,c),
(592,177,l),
(556,132,o),
(488,104,o),
(415,104,cs),
(307,104,o),
(239,148,o),
(239,218,cs),
(239,286,o),
(296,334,o),
(376,334,c),
(416,334,l),
(416,402,l),
(375,402,ls),
(304,402,o),
(248,459,o),
(248,531,cs),
(248,591,o),
(301,634,o),
(376,634,cs),
(425,634,o),
(461,611,o),
(485,565,c),
(485,663,l),
(352,663,l),
(503,480,l),
(530,480,l),
(608,632,l),
(528,679,o),
(427,706,o),
(327,706,cs),
(157,706,o),
(51,642,o),
(51,541,cs),
(51,429,o),
(152,374,o),
(356,374,c),
(356,391,l),
(139,391,o),
(32,329,o),
(32,205,cs),
(32,75,o),
(165,-16,o),
(353,-16,cs)
);
},
{
closed = 1;
nodes = (
(258,366,l),
(258,394,l),
(212,394,l),
(212,366,l)
);
}
);
width = 663;
}
);
metricLeft = "=C";
metricRight = "=C";
unicode = 400;
},
{
color = 9;
glyphname = Esh;
lastChange = "2024-05-01 05:25:41 +0000";
layers = (
{
layerId = m01;
shapes = (
{
closed = 1;
nodes = (
(628,0,l),
(638,169,l),
(622,169,l),
(529,84,l),
(159,84,l),
(388,373,l),
(388,386,l),
(192,620,l),
(506,620,l),
(602,521,l),
(618,521,l),
(608,690,l),
(60,690,l),
(44,667,l),
(304,355,l),
(44,23,l),
(60,0,l)
);
}
);
width = 682;
},
{
layerId = m002;
shapes = (
{
closed = 1;
nodes = (
(626,0,l),
(646,247,l),
(619,247,l),
(507,139,l),
(218,139,l),
(406,368,l),
(406,404,l),
(288,565,l),
(512,565,l),
(599,467,l),
(626,467,l),
(626,690,l),
(48,690,l),
(34,660,l),
(276,327,l),
(34,32,l),
(53,0,l)
);
}
);
width = 680;
},
{
associatedMasterId = m01;
layerId = "24217752-E4B9-4F87-BC05-2457CB6D5709";
name = "1 May 24 at 15:25";
shapes = (
{
closed = 1;
nodes = (
(628,0,l),
(638,169,l),
(622,169,l),
(529,84,l),
(139,84,l),
(139,59,l),
(388,373,l),
(388,386,l),
(178,637,l),
(156,620,l),
(506,620,l),
(602,521,l),
(618,521,l),
(608,690,l),
(60,690,l),
(44,667,l),
(323,332,l),
(310,362,l),
(44,23,l),
(60,0,l)
);
}
);
width = 682;
},
{
associatedMasterId = m002;
layerId = "F1438528-61AB-4161-B984-36EED6338D28";
name = "1 May 24 at 15:25";
shapes = (
{
closed = 1;
nodes = (
(626,0,l),
(646,247,l),
(619,247,l),
(507,139,l),
(173,139,l),
(134,36,l),
(406,368,l),
(406,404,l),
(222,655,l),
(115,565,l),
(512,565,l),
(599,467,l),
(626,467,l),
(626,690,l),
(48,690,l),
(34,660,l),
(292,305,l),
(317,378,l),
(34,32,l),
(53,0,l)
);
}
);
width = 680;
}
);
metricLeft = "=o";
metricRight = "=o";
unicode = 425;
},
{
color = 9;
glyphname = Estroke;
lastChange = "2024-04-27 12:19:56 +0000";
layers = (
{
guides = (
{
pos = (485,799);
}
);
layerId = m01;
shapes = (
{
ref = E;
},
{
closed = 1;
nodes = (
(504,781,l),
(457,799,l),
(132,-96,l),
(179,-113,l)
);
}
);
width = 619;
},
{
guides = (
{
pos = (509,804);
}
);
layerId = m002;
shapes = (
{
ref = E;
},
{
closed = 1;
nodes = (
(553,784,l),
(500,804,l),
(163,-122,l),
(216,-141,l)
);
}
);
width = 640;
}
);
unicode = 582;
},
{
color = 4;
glyphname = Schwa;
kernRight = KO_O;
lastChange = "2024-05-01 01:04:09 +0000";
layers = (
{
anchors = (
{
name = bottom;
pos = (352,0);
},
{
name = top;
pos = (352,690);
}
);
background = {
shapes = (
{
closed = 1;
nodes = (
(206,705,o),
(106,656,o),
(44,570,c),
(76,536,l),
(129,586,o),
(197,611,o),
(282,611,cs),
(441,611,o),
(529,510,o),
(529,330,cs),
(529,173,o),
(450,62,o),
(337,62,cs),
(241,62,o),
(182,129,o),
(182,237,c),
(578,266,l),
(578,325,l),
(30,325,l),
(30,116,o),
(137,-16,o),
(307,-16,cs),
(515,-16,o),
(663,142,o),
(663,371,cs),
(663,565,o),
(525,705,o),
(326,705,cs)
);
}
);
};
layerId = m01;
shapes = (
{
closed = 1;
nodes = (
(513,-16,o),
(659,148,o),
(659,357,cs),
(659,571,o),
(528,706,o),
(320,706,cs),
(222,706,o),
(113,677,o),
(57,636,c),
(125,524,l),
(141,524,l),
(246,672,l),
(156,672,l),
(132,589,l),
(182,627,o),
(248,649,o),
(316,649,cs),
(463,649,o),
(555,528,o),
(555,336,cs),
(555,163,o),
(465,41,o),
(336,41,cs),
(234,41,o),
(154,141,o),
(154,269,c),
(573,282,l),
(573,325,l),
(45,325,l),
(45,116,o),
(154,-16,o),
(328,-16,cs)
);
}
);
width = 704;
},
{
anchors = (
{
name = bottom;
pos = (371,0);
},
{
name = top;
pos = (371,690);
}
);
layerId = m002;
shapes = (
{
closed = 1;
nodes = (
(572,-16,o),
(710,129,o),
(710,360,cs),
(710,563,o),
(558,706,o),
(343,706,cs),
(233,706,o),
(136,681,o),
(51,632,c),
(137,480,l),
(164,480,l),
(307,663,l),
(174,663,l),
(140,565,l),
(186,603,o),
(245,624,o),
(307,624,cs),
(424,624,o),
(497,509,o),
(497,326,cs),
(497,160,o),
(448,56,o),
(369,56,cs),
(303,56,o),
(256,132,o),
(256,241,c),
(552,288,l),
(552,336,l),
(32,336,l),
(32,110,o),
(147,-16,o),
(352,-16,cs)
);
}
);
width = 742;
},
{
associatedMasterId = m01;
background = {
shapes = (
{
closed = 1;
nodes = (
(206,705,o),
(106,656,o),
(44,570,c),
(76,536,l),
(129,586,o),
(197,611,o),
(282,611,cs),
(441,611,o),
(529,510,o),
(529,330,cs),
(529,173,o),
(450,62,o),
(337,62,cs),
(241,62,o),
(182,129,o),
(182,237,c),
(578,266,l),
(578,325,l),
(30,325,l),
(30,116,o),
(137,-16,o),
(307,-16,cs),
(515,-16,o),
(663,142,o),
(663,371,cs),
(663,565,o),
(525,705,o),
(326,705,cs)
);
}
);
};
layerId = "B22082BC-8FBA-4895-ACAA-AF02797CCF17";
name = "24 Nov 23 at 22:15";
shapes = (
{
closed = 1;
nodes = (
(45,116,o),
(154,-16,o),
(328,-16,cs),
(513,-16,o),
(659,148,o),
(659,357,cs),
(659,571,o),
(528,706,o),
(320,706,cs),
(211,706,o),
(109,645,o),
(55,547,c),
(90,527,l),
(146,604,o),
(227,647,o),
(316,647,cs),
(463,647,o),
(555,527,o),
(555,336,cs),
(555,163,o),
(465,41,o),
(336,41,cs),
(234,41,o),
(154,141,o),
(154,269,c),
(573,282,l),
(573,325,l),
(45,325,l)
);
}
);
width = 704;
},
{
associatedMasterId = m01;
background = {
shapes = (
{
closed = 1;
nodes = (
(206,705,o),
(106,656,o),
(44,570,c),
(76,536,l),
(129,586,o),
(197,611,o),
(282,611,cs),
(441,611,o),
(529,510,o),
(529,330,cs),
(529,173,o),
(450,62,o),
(337,62,cs),
(241,62,o),
(182,129,o),
(182,237,c),
(578,266,l),
(578,325,l),
(30,325,l),
(30,116,o),
(137,-16,o),
(307,-16,cs),
(515,-16,o),
(663,142,o),
(663,371,cs),
(663,565,o),
(525,705,o),
(326,705,cs)
);
}
);
};
layerId = "71D40913-55EA-4099-9AD8-4E00CA578CCA";
name = "29 Nov 23 at 11:16";
shapes = (
{
closed = 1;
nodes = (
(513,-16,o),
(659,148,o),
(659,357,cs),
(659,571,o),
(528,706,o),
(320,706,cs),
(222,706,o),
(113,677,o),
(57,636,c),
(125,524,l),
(141,524,l),
(246,672,l),
(156,672,l),
(132,589,l),
(182,627,o),
(248,649,o),
(316,649,cs),
(463,649,o),
(555,528,o),
(555,336,cs),
(555,163,o),
(465,41,o),
(336,41,cs),
(234,41,o),
(154,141,o),
(154,269,c),
(573,282,l),
(573,325,l),
(45,325,l),
(45,116,o),
(154,-16,o),
(328,-16,cs)
);
}
);
width = 704;
}
);
metricLeft = "=O";
metricRight = "=O";
unicode = 399;
},
{
color = 9;
glyphname = Ezh;
lastChange = "2024-05-01 05:25:50 +0000";
layers = (
{
anchors = (
{
name = bottom;
pos = (319,0);
},
{
name = top;
pos = (319,690);
}
);
layerId = m01;
shapes = (
{
closed = 1;
nodes = (
(466,-16,o),
(583,76,o),
(583,207,cs),
(583,310,o),
(502,373,o),
(353,387,c),
(576,668,l),
(559,690,l),
(93,690,l),
(83,521,l),
(99,521,l),
(195,620,l),
(469,620,l),
(289,390,l),
(289,343,l),
(401,343,o),
(480,280,o),
(480,191,cs),
(480,105,o),
(401,37,o),
(300,37,cs),
(267,37,o),
(239,41,o),
(215,49,c),
(126,176,l),
(110,176,l),
(45,60,l),
(113,11,o),
(204,-16,o),
(300,-16,cs)
);
}
);
width = 628;
},
{
anchors = (
{
name = bottom;
pos = (319,0);
},
{
name = top;
pos = (319,690);
}
);
layerId = m002;
shapes = (
{
closed = 1;
nodes = (
(507,-16,o),
(641,71,o),
(641,195,cs),
(641,308,o),
(554,371,o),
(377,387,c),
(601,660,l),
(587,690,l),
(93,690,l),
(93,467,l),
(120,467,l),
(207,565,l),
(426,565,l),
(284,391,l),
(284,334,l),
(372,324,o),
(434,264,o),
(434,189,cs),
(434,112,o),
(369,51,o),
(286,51,cs),
(273,51,o),
(260,52,o),
(249,54,c),
(143,213,l),
(116,213,l),
(32,57,l),
(114,8,o),
(208,-16,o),
(317,-16,cs)
);
}
);
width = 673;
},
{
anchors = (
{
name = bottom;
pos = (319,0);
},
{
name = top;
pos = (319,690);
}
);
associatedMasterId = m01;
layerId = "5B6B3E31-4568-4BE1-9504-FF514A12EC22";
name = "1 May 24 at 15:25";
shapes = (
{
closed = 1;
nodes = (
(466,-16,o),
(583,76,o),
(583,207,cs),
(583,324,o),
(478,390,o),
(289,390,c),
(289,343,l),
(401,343,o),
(480,280,o),
(480,191,cs),
(480,105,o),
(401,37,o),
(300,37,cs),
(211,37,o),
(153,66,o),
(124,123,c),
(146,28,l),
(236,18,l),
(126,176,l),
(110,176,l),
(45,60,l),
(113,11,o),
(204,-16,o),
(300,-16,cs)
);
},
{
closed = 1;
nodes = (
(576,668,l),
(559,690,l),
(93,690,l),
(83,521,l),
(99,521,l),
(195,620,l),
(493,620,l),
(482,636,l),
(289,390,l),
(330,358,l)
);
}
);
width = 628;
},
{
anchors = (
{
name = bottom;
pos = (319,0);
},
{
name = top;
pos = (319,690);
}
);
associatedMasterId = m002;
layerId = "18F4F198-1671-4795-AB32-26B0F7504EF1";
name = "1 May 24 at 15:25";
shapes = (
{
closed = 1;
nodes = (
(507,-16,o),
(641,71,o),
(641,195,cs),
(641,326,o),
(523,391,o),
(284,391,c),
(284,334,l),
(372,324,o),
(434,264,o),
(434,189,cs),
(434,112,o),
(369,51,o),
(286,51,cs),
(228,51,o),
(183,72,o),
(149,114,c),
(149,28,l),
(272,19,l),
(143,213,l),
(116,213,l),
(32,57,l),
(114,8,o),
(208,-16,o),
(317,-16,cs)
);
},
{
closed = 1;
nodes = (
(601,660,l),
(587,690,l),
(93,690,l),
(93,467,l),
(120,467,l),
(207,565,l),
(465,565,l),
(451,595,l),
(284,391,l),
(342,344,l)
);
}
);
width = 673;
}
);
metricLeft = "=three";
metricRight = "=three";
unicode = 439;
},
{
color = 9;
glyphname = Ezhreversed;
lastChange = "2024-05-01 05:26:02 +0000";
layers = (
{
anchors = (
{
name = bottom;
pos = (309,0);
},
{
name = top;
pos = (309,690);
}
);
layerId = m01;
shapes = (
{
closed = 1;
nodes = (
(447,-16,o),
(542,41,o),
(588,143,c),
(553,163,l),
(507,86,o),
(426,43,o),
(327,43,cs),
(234,43,o),
(148,104,o),
(148,191,cs),
(148,284,o),
(216,343,o),
(324,343,cs),
(339,343,l),
(339,390,l),
(177,620,l),
(423,620,l),
(519,521,l),
(535,521,l),
(525,690,l),
(89,690,l),
(72,668,l),
(276,388,l),
(133,376,o),
(45,308,o),
(45,207,cs),
(45,64,o),
(158,-16,o),
(323,-16,cs)
);
}
);
width = 633;
},
{
anchors = (
{
name = bottom;
pos = (312,0);
},
{
name = top;
pos = (312,690);
}
);
layerId = m002;
shapes = (
{
closed = 1;
nodes = (
(481,-16,o),
(588,50,o),
(631,156,c),
(592,177,l),
(556,132,o),
(488,104,o),
(415,104,cs),
(307,104,o),
(239,148,o),
(239,218,cs),
(239,279,o),
(292,323,o),
(376,334,c),
(383,334,l),
(383,391,l),
(258,565,l),
(440,565,l),
(527,467,l),
(554,467,l),
(554,690,l),
(100,690,l),
(86,660,l),
(291,389,l),
(118,377,o),
(32,316,o),
(32,205,cs),
(32,75,o),
(165,-16,o),
(353,-16,cs)
);
}
);
width = 663;
},
{
anchors = (
{
name = bottom;
pos = (309,0);
},
{
name = top;
pos = (309,690);
}
);
associatedMasterId = m01;
layerId = "E242A7EC-3CBB-453D-9BBF-EEAA8981443B";
name = "1 May 24 at 15:25";
shapes = (
{
closed = 1;
nodes = (
(447,-16,o),
(542,41,o),
(588,143,c),
(553,163,l),
(507,86,o),
(426,43,o),
(327,43,cs),
(234,43,o),
(148,104,o),
(148,191,cs),
(148,284,o),
(216,343,o),
(324,343,c),
(339,343,l),
(339,390,l),
(324,390,ls),
(153,390,o),
(45,319,o),
(45,207,cs),
(45,64,o),
(158,-16,o),
(323,-16,cs)
);
},
{
closed = 1;
nodes = (
(339,390,l),
(166,636,l),
(155,620,l),
(423,620,l),
(519,521,l),
(535,521,l),
(525,690,l),
(89,690,l),
(72,668,l),
(298,358,l)
);
}
);
width = 633;
},
{
anchors = (
{
name = bottom;
pos = (312,0);
},
{
name = top;
pos = (312,690);
}
);
associatedMasterId = m002;
layerId = "87262450-BB57-4575-9D49-753C67A0DF56";
name = "1 May 24 at 15:25";
shapes = (
{
closed = 1;
nodes = (
(481,-16,o),
(588,50,o),
(631,156,c),
(592,177,l),
(556,132,o),
(488,104,o),
(415,104,cs),
(307,104,o),
(239,148,o),
(239,218,cs),
(239,279,o),
(292,323,o),
(376,334,c),
(383,334,l),
(383,391,l),
(356,391,ls),
(139,391,o),
(32,329,o),
(32,205,cs),
(32,75,o),
(165,-16,o),
(353,-16,cs)
);
},
{
closed = 1;
nodes = (
(383,391,l),
(236,595,l),
(222,565,l),
(440,565,l),
(527,467,l),
(554,467,l),
(554,690,l),
(100,690,l),
(86,660,l),
(325,344,l)
);
}
);
width = 663;
}
);
metricLeft = "=three";
metricRight = "=three";
unicode = 440;
},
{
color = 4;
glyphname = F;
kernLeft = KO_H;
kernRight = KO_F;
lastChange = "2024-05-05 07:53:39 +0000";
layers = (
{
anchors = (
{
name = bottom;
pos = (296,0);
},
{
name = top;
pos = (296,690);
}
);
layerId = m01;
shapes = (
{
closed = 1;
nodes = (
(314,0,l),
(314,16,l),
(205,75,l),
(205,321,l),
(384,314,l),
(453,249,l),
(469,249,l),
(469,439,l),
(453,439,l),
(384,373,l),
(205,366,l),
(205,646,l),
(429,635,l),
(531,546,l),
(547,546,l),
(541,698,l),
(530,698,l),
(417,690,l),
(30,690,l),
(30,674,l),
(109,615,l),
(109,75,l),
(30,16,l),
(30,0,l)
);
}
);
width = 592;
},
{
anchors = (
{
name = bottom;
pos = (305,0);
},
{
name = top;
pos = (305,690);
}
);
layerId = m002;
shapes = (
{
closed = 1;
nodes = (
(381,0,l),
(381,24,l),
(291,93,l),
(291,317,l),
(391,310,l),
(475,232,l),
(502,232,l),
(502,456,l),
(475,456,l),
(391,378,l),
(291,370,l),
(291,637,l),
(421,626,l),
(551,518,l),
(578,518,l),
(578,706,l),
(558,706,l),
(401,690,l),
(26,690,l),
(26,666,l),
(95,597,l),
(95,93,l),
(26,24,l),
(26,0,l)
);
}
);
width = 610;
},
{
associatedMasterId = m002;
layerId = "1F43119E-2001-48F7-A78F-6BD52A03ED8D";
name = "7 Oct 23 at 10:43";
shapes = (
{
closed = 1;
nodes = (
(374,0,l),
(374,24,l),
(289,93,l),
(289,690,l),
(24,690,l),
(24,666,l),
(93,597,l),
(93,93,l),
(24,24,l),
(24,0,l)
);
},
{
closed = 1;
nodes = (
(472,384,l),
(231,366,l),
(231,321,l),
(472,304,l)
);
},
{
closed = 1;
nodes = (
(504,237,l),
(504,451,l),
(480,451,l),
(384,365,l),
(384,323,l),
(480,237,l)
);
},
{
closed = 1;
nodes = (
(557,690,l),
(231,690,l),
(231,642,l),
(557,615,l)
);
},
{
closed = 1;
nodes = (
(576,523,l),
(576,706,l),
(556,706,l),
(414,690,l),
(414,643,l),
(552,523,l)
);
}
);
width = 593;
},
{
associatedMasterId = m01;
layerId = "18B6E08A-EF58-45E9-8FCE-5284AA18DFFF";
name = "15 Nov 23 at 14:09";
shapes = (
{
closed = 1;
nodes = (
(314,0,l),
(314,16,l),
(205,75,l),
(205,690,l),
(30,690,l),
(30,674,l),
(109,615,l),
(109,75,l),
(30,16,l),
(30,0,l)
);
},
{
closed = 1;
nodes = (
(447,376,l),
(182,365,l),
(182,322,l),
(447,312,l)
);
},
{
closed = 1;
nodes = (
(469,249,l),
(469,439,l),
(453,439,l),
(378,363,l),
(378,325,l),
(453,249,l)
);
},
{
closed = 1;
nodes = (
(518,690,l),
(187,690,l),
(187,647,l),
(518,631,l)
);
},
{
closed = 1;
nodes = (
(547,546,l),
(541,698,l),
(530,698,l),
(427,690,l),
(427,646,l),
(531,546,l)
);
}
);
width = 592;
},
{
associatedMasterId = m01;
layerId = "A53ACAF7-4044-4049-9A18-ACC3E049D19D";
name = "15 Nov 23 at 14:09";
shapes = (
{
closed = 1;
nodes = (
(314,0,l),
(314,16,l),
(205,75,l),
(205,690,l),
(30,690,l),
(30,674,l),
(109,615,l),
(109,75,l),
(30,16,l),
(30,0,l)
);
},
{
closed = 1;
nodes = (
(447,376,l),
(182,365,l),
(182,322,l),
(447,312,l)
);
},
{
closed = 1;
nodes = (
(469,249,l),
(469,439,l),
(453,439,l),
(378,363,l),
(378,325,l),
(453,249,l)
);
},
{
closed = 1;
nodes = (
(518,690,l),
(187,690,l),
(187,647,l),
(518,631,l)
);
},
{
closed = 1;
nodes = (
(547,546,l),
(541,698,l),
(530,698,l),
(427,690,l),
(427,646,l),
(531,546,l)
);
}
);
width = 592;
},
{
associatedMasterId = m002;
layerId = "52DBC5B9-2B94-4D86-B954-9C0751C7DBE0";
name = "15 Nov 23 at 14:14";
shapes = (
{
closed = 1;
nodes = (
(376,0,l),
(376,24,l),
(291,93,l),
(291,690,l),
(26,690,l),
(26,666,l),
(95,597,l),
(95,93,l),
(26,24,l),
(26,0,l)
);
},
{
closed = 1;
nodes = (
(474,384,l),
(233,366,l),
(233,321,l),
(474,304,l)
);
},
{
closed = 1;
nodes = (
(506,237,l),
(506,451,l),
(479,451,l),
(391,365,l),
(391,323,l),
(479,237,l)
);
},
{
closed = 1;
nodes = (
(559,690,l),
(233,690,l),
(233,642,l),
(559,615,l)
);
},
{
closed = 1;
nodes = (
(578,523,l),
(578,706,l),
(558,706,l),
(416,690,l),
(416,643,l),
(551,523,l)
);
}
);
width = 610;
},
{
anchors = (
{
name = bottom;
pos = (296,0);
},
{
name = top;
pos = (296,690);
}
);
associatedMasterId = m01;
layerId = "E75496D6-5323-4798-AB1C-5F7EA10152EA";
name = "1 May 24 at 14:01";
shapes = (
{
closed = 1;
nodes = (
(314,0,l),
(314,16,l),
(205,75,l),
(205,690,l),
(30,690,l),
(30,674,l),
(109,615,l),
(109,75,l),
(30,16,l),
(30,0,l)
);
},
{
closed = 1;
nodes = (
(447,376,l),
(182,365,l),
(182,322,l),
(447,312,l)
);
},
{
closed = 1;
nodes = (
(469,249,l),
(469,439,l),
(453,439,l),
(373,363,l),
(373,325,l),
(453,249,l)
);
},
{
closed = 1;
nodes = (
(518,690,l),
(187,690,l),
(187,647,l),
(518,631,l)
);
},
{
closed = 1;
nodes = (
(547,546,l),
(541,698,l),
(530,698,l),
(417,690,l),
(417,646,l),
(531,546,l)
);
}
);
width = 592;
},
{
anchors = (
{
name = bottom;
pos = (305,0);
},
{
name = top;
pos = (305,690);
}
);
associatedMasterId = m002;
layerId = "C6259D4B-A362-45CF-8FAF-5A80BA763FC5";
name = "1 May 24 at 14:01";
shapes = (
{
closed = 1;
nodes = (
(381,0,l),
(381,24,l),
(291,93,l),
(291,690,l),
(26,690,l),
(26,666,l),
(95,597,l),
(95,93,l),
(26,24,l),
(26,0,l)
);
},
{
closed = 1;
nodes = (
(474,384,l),
(233,366,l),
(233,321,l),
(474,304,l)
);
},
{
closed = 1;
nodes = (
(502,232,l),
(502,456,l),
(475,456,l),
(377,365,l),
(377,323,l),
(475,232,l)
);
},
{
closed = 1;
nodes = (
(559,690,l),
(233,690,l),
(233,642,l),
(559,615,l)
);
},
{
closed = 1;
nodes = (
(578,518,l),
(578,706,l),
(558,706,l),
(401,690,l),
(401,643,l),
(551,518,l)
);
}
);
width = 610;
}
);
metricLeft = "=H";
metricRight = "=O";
unicode = 70;
},
{
color = 9;
glyphname = Fhook;
kernRight = KO_F;
lastChange = "2024-05-01 05:26:12 +0000";
layers = (
{
layerId = m01;
shapes = (
{
closed = 1;
nodes = (
(10,-235,l),
(139,-201,o),
(196,-128,o),
(196,4,cs),
(196,321,l),
(375,314,l),
(444,249,l),
(460,249,l),
(460,439,l),
(444,439,l),
(375,373,l),
(196,366,l),
(196,646,l),
(420,635,l),
(522,546,l),
(538,546,l),
(532,698,l),
(521,698,l),
(408,690,l),
(21,690,l),
(21,674,l),
(100,615,l),
(100,-117,l),
(-32,-95,l),
(-42,-107,l),
(-1,-235,l)
);
}
);
width = 583;
},
{
layerId = m002;
shapes = (
{
closed = 1;
nodes = (
(-27,-251,l),
(179,-197,o),
(281,-89,o),
(281,75,cs),
(281,317,l),
(381,310,l),
(465,232,l),
(492,232,l),
(492,456,l),
(465,456,l),
(381,378,l),
(281,370,l),
(281,637,l),
(411,626,l),
(541,518,l),
(568,518,l),
(568,706,l),
(548,706,l),
(391,690,l),
(16,690,l),
(16,666,l),
(85,597,l),
(85,-102,l),
(-58,-58,l),
(-76,-77,l),
(-42,-251,l)
);
}
);
width = 600;
},
{
associatedMasterId = m01;
layerId = "3D4C4A7C-25A3-4959-BDEB-E01B4DFA1704";
name = "1 May 24 at 15:26";
shapes = (
{
closed = 1;
nodes = (
(10,-235,l),
(139,-201,o),
(196,-128,o),
(196,4,cs),
(196,690,l),
(21,690,l),
(21,674,l),
(100,615,l),
(100,-149,l),
(119,-120,l),
(-32,-95,l),
(-42,-107,l),
(-1,-235,l)
);
},
{
closed = 1;
nodes = (
(438,376,l),
(173,365,l),
(173,322,l),
(438,312,l)
);
},
{
closed = 1;
nodes = (
(460,249,l),
(460,439,l),
(444,439,l),
(364,363,l),
(364,325,l),
(444,249,l)
);
},
{
closed = 1;
nodes = (
(509,690,l),
(178,690,l),
(178,647,l),
(509,631,l)
);
},
{
closed = 1;
nodes = (
(538,546,l),
(532,698,l),
(521,698,l),
(408,690,l),
(408,646,l),
(522,546,l)
);
}
);
width = 583;
},
{
associatedMasterId = m002;
layerId = "EB135066-E70B-4BDF-9898-60806E9BEA50";
name = "1 May 24 at 15:26";
shapes = (
{
closed = 1;
nodes = (
(-27,-251,l),
(179,-197,o),
(281,-89,o),
(281,75,cs),
(281,690,l),
(16,690,l),
(16,666,l),
(85,597,l),
(85,-148,l),
(128,-115,l),
(-58,-58,l),
(-76,-77,l),
(-42,-251,l)
);
},
{
closed = 1;
nodes = (
(464,384,l),
(223,366,l),
(223,321,l),
(464,304,l)
);
},
{
closed = 1;
nodes = (
(492,232,l),
(492,456,l),
(465,456,l),
(367,365,l),
(367,323,l),
(465,232,l)
);
},
{
closed = 1;
nodes = (
(549,690,l),
(223,690,l),
(223,642,l),
(549,615,l)
);
},
{
closed = 1;
nodes = (
(568,518,l),
(568,706,l),
(548,706,l),
(391,690,l),
(391,643,l),
(541,518,l)
);
}
);
width = 600;
}
);
metricLeft = "=Nhookleft";
metricRight = "=F";
unicode = 401;
},
{
color = 4;
glyphname = G;
kernLeft = KO_O;
kernRight = KO_G;
lastChange = "2024-05-06 01:18:14 +0000";
layers = (
{
anchors = (
{
name = bottom;
pos = (396,0);
},
{
name = top;
pos = (420,690);
}
);
layerId = m002;
shapes = (
{
closed = 1;
nodes = (
(467,-16,o),
(533,8,o),
(581,50,c),
(691,-16,l),
(717,-16,l),
(717,256,l),
(766,317,l),
(766,341,l),
(442,341,l),
(442,317,l),
(521,248,l),
(521,93,l),
(507,88,o),
(491,86,o),
(474,86,cs),
(333,86,o),
(245,193,o),
(245,364,cs),
(245,515,o),
(329,634,o),
(437,634,cs),
(441,634,o),
(444,634,o),
(448,634,c),
(584,479,l),
(611,479,l),
(689,632,l),
(618,677,o),
(515,706,o),
(420,706,cs),
(182,706,o),
(32,561,o),
(32,330,cs),
(32,117,o),
(170,-16,o),
(391,-16,cs)
);
}
);
width = 792;
},
{
associatedMasterId = m01;
layerId = "144E9ED1-EA0E-43A9-9CC8-9AE9BB7D5CF8";
name = "10 Nov 23 at 22:30";
shapes = (
{
closed = 1;
nodes = (
(511,-16,o),
(589,53,o),
(608,177,c),
(573,197,l),
(573,102,o),
(507,43,o),
(403,43,cs),
(251,43,o),
(155,169,o),
(155,369,cs),
(155,533,o),
(249,649,o),
(383,649,cs),
(457,649,o),
(496,637,o),
(539,602,c),
(539,672,l),
(446,672,l),
(595,530,l),
(611,530,l),
(662,639,l),
(599,682,o),
(505,706,o),
(401,706,cs),
(204,706,o),
(50,542,o),
(50,333,cs),
(50,119,o),
(181,-16,o),
(389,-16,cs)
);
},
{
closed = 1;
nodes = (
(646,-16,l),
(646,261,l),
(715,320,l),
(715,336,l),
(461,336,l),
(461,320,l),
(550,256,l),
(550,59,l),
(636,-16,l)
);
}
);
width = 743;
},
{
associatedMasterId = m002;
layerId = "98541C00-59DE-4408-95C0-E7AB5D705A59";
name = "10 Nov 23 at 22:39";
shapes = (
{
closed = 1;
nodes = (
(498,-16,o),
(571,37,o),
(604,145,c),
(590,151,l),
(572,121,o),
(531,104,o),
(476,104,cs),
(337,104,o),
(249,204,o),
(249,364,cs),
(249,515,o),
(333,634,o),
(439,634,cs),
(505,634,o),
(555,599,o),
(588,528,c),
(588,663,l),
(415,663,l),
(596,473,l),
(623,473,l),
(699,628,l),
(634,680,o),
(542,706,o),
(422,706,cs),
(185,706,o),
(36,561,o),
(36,330,cs),
(36,117,o),
(170,-16,o),
(383,-16,cs)
);
},
{
closed = 1;
nodes = (
(709,-16,l),
(709,261,l),
(758,322,l),
(758,346,l),
(434,346,l),
(434,322,l),
(513,253,l),
(513,85,l),
(683,-16,l)
);
}
);
width = 784;
},
{
associatedMasterId = m01;
layerId = "13862934-0E8A-4FE6-B706-34BB3C3B7853";
name = "14 Nov 23 at 13:40";
shapes = (
{
closed = 1;
nodes = (
(518,-16,o),
(604,53,o),
(623,177,c),
(588,197,l),
(588,102,o),
(515,43,o),
(398,43,cs),
(252,43,o),
(150,171,o),
(150,354,cs),
(150,527,o),
(248,649,o),
(388,649,cs),
(453,649,o),
(494,634,o),
(534,595,c),
(534,672,l),
(445,672,l),
(590,522,l),
(606,522,l),
(657,639,l),
(589,680,o),
(489,706,o),
(396,706,cs),
(199,706,o),
(45,542,o),
(45,333,cs),
(45,119,o),
(176,-16,o),
(384,-16,cs)
);
},
{
closed = 1;
nodes = (
(661,-16,l),
(661,261,l),
(730,320,l),
(730,336,l),
(476,336,l),
(476,320,l),
(565,256,l),
(565,59,l),
(651,-16,l)
);
}
);
width = 760;
},
{
anchors = (
{
name = bottom;
pos = (378,0);
},
{
name = top;
pos = (394,690);
}
);
guides = (
{
pos = (237,345);
}
);
layerId = m01;
name = Light;
shapes = (
{
closed = 1;
nodes = (
(474,-16,o),
(533,6,o),
(572,49,c),
(647,-16,l),
(657,-16,l),
(657,257,l),
(726,316,l),
(726,332,l),
(472,332,l),
(472,316,l),
(561,252,l),
(561,102,l),
(531,64,o),
(475,43,o),
(398,43,cs),
(252,43,o),
(150,171,o),
(150,354,cs),
(150,527,o),
(248,649,o),
(388,649,cs),
(426,649,o),
(459,644,o),
(486,633,c),
(567,526,l),
(583,526,l),
(654,639,l),
(599,678,o),
(492,706,o),
(396,706,cs),
(199,706,o),
(45,542,o),
(45,333,cs),
(45,119,o),
(180,-16,o),
(394,-16,cs)
);
}
);
width = 756;
},
{
associatedMasterId = m002;
layerId = "63EB0D9C-1579-4BE6-8956-A1F237B7A338";
name = "14 Nov 23 at 17:07";
shapes = (
{
closed = 1;
nodes = (
(493,-16,o),
(561,18,o),
(624,107,c),
(590,137,l),
(559,103,o),
(523,88,o),
(472,88,cs),
(333,88,o),
(245,194,o),
(245,364,cs),
(245,515,o),
(329,634,o),
(435,634,cs),
(501,634,o),
(551,599,o),
(584,528,c),
(584,663,l),
(411,663,l),
(592,473,l),
(619,473,l),
(695,628,l),
(630,680,o),
(538,706,o),
(418,706,cs),
(181,706,o),
(32,561,o),
(32,330,cs),
(32,117,o),
(166,-16,o),
(379,-16,cs)
);
},
{
closed = 1;
nodes = (
(715,-16,l),
(715,261,l),
(764,322,l),
(764,346,l),
(440,346,l),
(440,322,l),
(519,253,l),
(519,85,l),
(689,-16,l)
);
}
);
width = 790;
},
{
associatedMasterId = m01;
layerId = "DC0F49F3-3169-4D34-AF6D-7F1273A05980";
name = "14 Nov 23 at 17:07";
shapes = (
{
closed = 1;
nodes = (
(518,-16,o),
(604,53,o),
(623,177,c),
(588,197,l),
(588,102,o),
(515,43,o),
(398,43,cs),
(252,43,o),
(150,171,o),
(150,354,cs),
(150,527,o),
(248,649,o),
(388,649,cs),
(453,649,o),
(494,634,o),
(534,595,c),
(534,672,l),
(445,672,l),
(590,522,l),
(606,522,l),
(657,639,l),
(597,680,o),
(496,706,o),
(396,706,cs),
(199,706,o),
(45,542,o),
(45,333,cs),
(45,119,o),
(176,-16,o),
(384,-16,cs)
);
},
{
closed = 1;
nodes = (
(661,-16,l),
(661,261,l),
(730,320,l),
(730,336,l),
(476,336,l),
(476,320,l),
(565,256,l),
(565,59,l),
(651,-16,l)
);
}
);
width = 760;
},
{
anchors = (
{
name = bottom;
pos = (378,0);
},
{
name = top;
pos = (394,690);
}
);
associatedMasterId = m01;
guides = (
{
pos = (237,345);
}
);
layerId = "D824B9C3-54B8-4566-9DCB-80D6EEA30B22";
name = "1 May 24 at 14:01";
shapes = (
{
closed = 1;
nodes = (
(528,-16,o),
(604,45,o),
(623,167,c),
(588,187,l),
(588,95,o),
(520,43,o),
(398,43,cs),
(252,43,o),
(150,171,o),
(150,354,cs),
(150,527,o),
(248,649,o),
(388,649,cs),
(462,649,o),
(513,630,o),
(555,588,c),
(550,675,l),
(455,675,l),
(567,526,l),
(583,526,l),
(654,639,l),
(599,678,o),
(492,706,o),
(396,706,cs),
(199,706,o),
(45,542,o),
(45,333,cs),
(45,119,o),
(180,-16,o),
(394,-16,cs)
);
},
{
closed = 1;
nodes = (
(657,-16,l),
(657,257,l),
(726,316,l),
(726,332,l),
(472,332,l),
(472,316,l),
(561,252,l),
(561,59,l),
(647,-16,l)
);
}
);
width = 756;
},
{
anchors = (
{
name = bottom;
pos = (396,0);
},
{
name = top;
pos = (420,690);
}
);
associatedMasterId = m002;
layerId = "C206E898-DDE4-43CA-85D5-6770F6482861";
name = "1 May 24 at 14:01";
shapes = (
{
closed = 1;
nodes = (
(517,-16,o),
(617,50,o),
(649,156,c),
(610,174,l),
(573,113,o),
(532,86,o),
(474,86,cs),
(333,86,o),
(245,193,o),
(245,364,cs),
(245,515,o),
(329,634,o),
(437,634,cs),
(490,634,o),
(533,609,o),
(556,565,c),
(556,663,l),
(422,663,l),
(584,479,l),
(611,479,l),
(689,632,l),
(618,677,o),
(515,706,o),
(420,706,cs),
(182,706,o),
(32,561,o),
(32,330,cs),
(32,117,o),
(170,-16,o),
(391,-16,cs)
);
},
{
closed = 1;
nodes = (
(717,-16,l),
(717,256,l),
(766,317,l),
(766,341,l),
(442,341,l),
(442,317,l),
(521,248,l),
(521,85,l),
(691,-16,l)
);
}
);
width = 792;
}
);
metricLeft = "=O";
metricRight = "=H";
unicode = 71;
userData = {
KernOnName = G;
};
},
{
color = 9;
glyphname = Ghook;
kernLeft = KO_O;
lastChange = "2024-05-06 01:18:14 +0000";
layers = (
{
layerId = m01;
shapes = (
{
closed = 1;
nodes = (
(528,-16,o),
(604,45,o),
(623,167,c),
(588,187,l),
(588,95,o),
(520,43,o),
(398,43,cs),
(252,43,o),
(150,171,o),
(150,354,cs),
(150,527,o),
(256,649,o),
(406,649,cs),
(486,649,o),
(567,606,o),
(616,537,c),
(664,565,l),
(634,677,o),
(652,765,o),
(705,765,cs),
(783,765,l),
(783,788,l),
(659,788,l),
(763,681,l),
(777,681,l),
(844,798,l),
(803,817,o),
(760,827,o),
(717,827,cs),
(602,827,o),
(554,726,o),
(607,598,c),
(599,632,l),
(550,681,o),
(482,706,o),
(396,706,cs),
(199,706,o),
(45,542,o),
(45,333,cs),
(45,119,o),
(180,-16,o),
(394,-16,cs)
);
},
{
closed = 1;
nodes = (
(657,-16,l),
(657,257,l),
(726,316,l),
(726,332,l),
(472,332,l),
(472,316,l),
(561,252,l),
(561,59,l),
(647,-16,l)
);
}
);
width = 846;
},
{
layerId = m002;
shapes = (
{
closed = 1;
nodes = (
(517,-16,o),
(617,50,o),
(649,156,c),
(610,174,l),
(573,113,o),
(532,86,o),
(474,86,cs),
(333,86,o),
(245,193,o),
(245,364,cs),
(245,517,o),
(328,624,o),
(446,624,cs),
(509,624,o),
(570,587,o),
(604,528,c),
(675,560,l),
(619,688,o),
(636,789,o),
(714,789,cs),
(746,789,l),
(746,829,l),
(634,829,l),
(756,681,l),
(781,681,l),
(856,852,l),
(803,878,o),
(746,893,o),
(697,893,cs),
(497,893,o),
(497,669,o),
(591,634,c),
(591,654,l),
(536,689,o),
(480,706,o),
(420,706,cs),
(182,706,o),
(32,561,o),
(32,330,cs),
(32,117,o),
(170,-16,o),
(391,-16,cs)
);
},
{
closed = 1;
nodes = (
(717,-16,l),
(717,256,l),
(766,317,l),
(766,341,l),
(442,341,l),
(442,317,l),
(521,248,l),
(521,85,l),
(691,-16,l)
);
}
);
width = 858;
},
{
associatedMasterId = m01;
layerId = "A7EAB7C7-6A38-4BAF-BBBE-149FBF94FCB2";
name = "25 Apr 24 at 13:08";
shapes = (
{
closed = 1;
nodes = (
(528,-16,o),
(604,45,o),
(623,167,c),
(588,187,l),
(588,95,o),
(520,43,o),
(398,43,cs),
(252,43,o),
(150,171,o),
(150,354,cs),
(150,527,o),
(256,649,o),
(406,649,cs),
(486,649,o),
(567,606,o),
(616,537,c),
(651,557,l),
(651,615,ls),
(651,707,o),
(669,753,o),
(705,753,cs),
(783,753,l),
(783,769,l),
(659,768,l),
(763,661,l),
(777,661,l),
(844,778,l),
(803,797,o),
(760,807,o),
(717,807,cs),
(605,807,o),
(560,721,o),
(607,598,c),
(599,632,l),
(550,681,o),
(482,706,o),
(396,706,cs),
(199,706,o),
(45,542,o),
(45,333,cs),
(45,119,o),
(180,-16,o),
(394,-16,cs)
);
},
{
closed = 1;
nodes = (
(657,-16,l),
(657,257,l),
(726,316,l),
(726,332,l),
(472,332,l),
(472,316,l),
(561,252,l),
(561,59,l),
(647,-16,l)
);
}
);
width = 846;
}
);
metricLeft = "=G";
metricRight = "=V";
unicode = 403;
userData = {
KernOnName = Ghook;
};
},
{
color = 9;
glyphname = Glottalstopsmall;
lastChange = "2024-05-01 05:26:25 +0000";
layers = (
{
layerId = m01;
shapes = (
{
closed = 1;
nodes = (
(287,412,o),
(501,371,o),
(501,539,c),
(501,642,o),
(413,706,o),
(272,706,cs),
(188,706,o),
(90,677,o),
(34,636,c),
(102,524,l),
(118,524,l),
(223,672,l),
(133,672,l),
(133,577,l),
(164,627,o),
(203,649,o),
(261,649,cs),
(343,649,o),
(401,606,o),
(401,544,cs),
(401,422,o),
(194,466,o),
(194,206,cs),
(194,75,l),
(115,16,l),
(115,0,l),
(366,0,l),
(366,16,l),
(287,75,l),
(287,217,ls)
);
}
);
width = 545;
},
{
layerId = m002;
shapes = (
{
closed = 1;
nodes = (
(395,358,o),
(568,329,o),
(568,534,c),
(568,640,o),
(462,706,o),
(293,706,cs),
(193,706,o),
(103,681,o),
(22,632,c),
(108,480,l),
(135,480,l),
(278,663,l),
(145,663,l),
(145,565,l),
(168,609,o),
(207,634,o),
(254,634,cs),
(325,634,o),
(370,599,o),
(370,543,cs),
(370,438,o),
(199,425,o),
(199,257,cs),
(199,93,l),
(130,24,l),
(130,0,l),
(464,0,l),
(464,24,l),
(395,93,l),
(395,218,ls)
);
}
);
width = 602;
},
{
associatedMasterId = m01;
layerId = "CEFDD02D-D442-4274-B5DE-747A3E608C9C";
name = "1 May 24 at 15:26";
shapes = (
{
closed = 1;
nodes = (
(287,412,o),
(501,371,o),
(501,539,c),
(501,642,o),
(413,706,o),
(272,706,cs),
(188,706,o),
(90,677,o),
(34,636,c),
(102,524,l),
(118,524,l),
(223,672,l),
(133,672,l),
(133,577,l),
(164,627,o),
(203,649,o),
(261,649,cs),
(343,649,o),
(401,606,o),
(401,544,cs),
(401,422,o),
(194,466,o),
(194,206,cs),
(194,75,l),
(115,16,l),
(115,0,l),
(366,0,l),
(366,16,l),
(287,75,l),
(287,217,ls)
);
}
);
width = 545;
},
{
associatedMasterId = m002;
layerId = "36493695-1EB2-4600-8BC3-9217D1927FA6";
name = "1 May 24 at 15:26";
shapes = (
{
closed = 1;
nodes = (
(395,358,o),
(568,329,o),
(568,534,c),
(568,640,o),
(462,706,o),
(293,706,cs),
(193,706,o),
(103,681,o),
(22,632,c),
(108,480,l),
(135,480,l),
(278,663,l),
(145,663,l),
(145,565,l),
(168,609,o),
(207,634,o),
(254,634,cs),
(325,634,o),
(370,599,o),
(370,543,cs),
(370,438,o),
(199,425,o),
(199,257,cs),
(199,93,l),
(130,24,l),
(130,0,l),
(464,0,l),
(464,24,l),
(395,93,l),
(395,218,ls)
);
}
);
width = 602;
}
);
metricLeft = "=question";
metricRight = "=question";
unicode = 577;
},
{
color = 4;
glyphname = H;
kernLeft = KO_H;
kernRight = KO_H;
lastChange = "2024-05-06 01:18:14 +0000";
layers = (
{
anchors = (
{
name = bottom;
pos = (378,0);
},
{
name = center;
pos = (378,509);
},
{
name = top;
pos = (378,690);
},
{
name = topleft;
pos = (20,690);
}
);
layerId = m01;
shapes = (
{
closed = 1;
nodes = (
(726,0,l),
(726,16,l),
(647,75,l),
(647,615,l),
(726,674,l),
(726,690,l),
(472,690,l),
(472,674,l),
(551,615,l),
(551,386,l),
(205,386,l),
(205,615,l),
(284,674,l),
(284,690,l),
(30,690,l),
(30,674,l),
(109,615,l),
(109,75,l),
(30,16,l),
(30,0,l),
(284,0,l),
(284,16,l),
(205,75,l),
(205,331,l),
(551,331,l),
(551,75,l),
(472,16,l),
(472,0,l)
);
}
);
width = 756;
},
{
associatedMasterId = m01;
layerId = "EF4CC439-7004-4BD6-B653-68A6C12CD5CB";
name = "22 Aug 23 at 12:07";
shapes = (
{
closed = 1;
nodes = (
(752,0,l),
(752,16,l),
(673,73,l),
(673,617,l),
(752,674,l),
(752,690,l),
(502,690,l),
(502,674,l),
(581,617,l),
(581,73,l),
(502,16,l),
(502,0,l)
);
},
{
closed = 1;
nodes = (
(295,0,l),
(295,16,l),
(217,73,l),
(217,617,l),
(295,674,l),
(295,690,l),
(46,690,l),
(46,674,l),
(125,617,l),
(125,73,l),
(46,16,l),
(46,0,l)
);
},
{
closed = 1;
nodes = (
(608,334,l),
(608,386,l),
(190,386,l),
(190,334,l)
);
}
);
width = 798;
},
{
anchors = (
{
name = bottom;
pos = (416,0);
},
{
name = center;
pos = (416,508);
},
{
name = top;
pos = (416,690);
},
{
name = topleft;
pos = (20,690);
}
);
layerId = m002;
shapes = (
{
closed = 1;
nodes = (
(806,0,l),
(806,24,l),
(737,93,l),
(737,597,l),
(806,666,l),
(806,690,l),
(480,690,l),
(480,666,l),
(541,597,l),
(541,386,l),
(291,386,l),
(291,597,l),
(352,666,l),
(352,690,l),
(26,690,l),
(26,666,l),
(95,597,l),
(95,93,l),
(26,24,l),
(26,0,l),
(352,0,l),
(352,24,l),
(291,93,l),
(291,321,l),
(541,321,l),
(541,93,l),
(480,24,l),
(480,0,l)
);
}
);
width = 832;
},
{
associatedMasterId = m002;
layerId = "AB507E1B-90A9-4F25-99F4-C72F7BAA0184";
name = "7 Oct 23 at 08:20";
shapes = (
{
closed = 1;
nodes = (
(802,0,l),
(802,24,l),
(733,93,l),
(733,597,l),
(802,666,l),
(802,690,l),
(473,690,l),
(473,666,l),
(537,597,l),
(537,93,l),
(473,24,l),
(473,0,l)
);
},
{
closed = 1;
nodes = (
(351,0,l),
(351,24,l),
(287,93,l),
(287,597,l),
(351,666,l),
(351,690,l),
(22,690,l),
(22,666,l),
(91,597,l),
(91,93,l),
(22,24,l),
(22,0,l)
);
},
{
closed = 1;
nodes = (
(634,321,l),
(634,386,l),
(206,386,l),
(206,321,l)
);
}
);
width = 824;
},
{
anchors = (
{
name = bottom;
pos = (378,0);
},
{
name = center;
pos = (378,509);
},
{
name = top;
pos = (378,690);
},
{
name = topleft;
pos = (20,690);
}
);
associatedMasterId = m01;
layerId = "C5189420-8239-46D0-B7E6-B63B7419BBC5";
name = "1 May 24 at 14:02";
shapes = (
{
closed = 1;
nodes = (
(726,0,l),
(726,16,l),
(647,75,l),
(647,615,l),
(726,674,l),
(726,690,l),
(472,690,l),
(472,674,l),
(551,615,l),
(551,75,l),
(472,16,l),
(472,0,l)
);
},
{
closed = 1;
nodes = (
(284,0,l),
(284,16,l),
(205,75,l),
(205,615,l),
(284,674,l),
(284,690,l),
(30,690,l),
(30,674,l),
(109,615,l),
(109,75,l),
(30,16,l),
(30,0,l)
);
},
{
closed = 1;
nodes = (
(582,331,l),
(582,386,l),
(174,386,l),
(174,331,l)
);
}
);
width = 756;
},
{
anchors = (
{
name = bottom;
pos = (416,0);
},
{
name = center;
pos = (416,508);
},
{
name = top;
pos = (416,690);
},
{
name = topleft;
pos = (20,690);
}
);
associatedMasterId = m002;
layerId = "8D30F390-2B25-4974-8A92-3C86A3BE1299";
name = "1 May 24 at 14:02";
shapes = (
{
closed = 1;
nodes = (
(806,0,l),
(806,24,l),
(737,93,l),
(737,597,l),
(806,666,l),
(806,690,l),
(480,690,l),
(480,666,l),
(541,597,l),
(541,93,l),
(480,24,l),
(480,0,l)
);
},
{
closed = 1;
nodes = (
(352,0,l),
(352,24,l),
(291,93,l),
(291,597,l),
(352,666,l),
(352,690,l),
(26,690,l),
(26,666,l),
(95,597,l),
(95,93,l),
(26,24,l),
(26,0,l)
);
},
{
closed = 1;
nodes = (
(628,321,l),
(628,386,l),
(210,386,l),
(210,321,l)
);
}
);
width = 832;
}
);
metricRight = "=|";
unicode = 72;
userData = {
KernOnName = H;
};
},
{
color = 9;
glyphname = Heng;
lastChange = "2024-05-01 05:26:37 +0000";
layers = (
{
layerId = m01;
shapes = (
{
closed = 1;
nodes = (
(556,-251,o),
(647,-163,o),
(647,-38,cs),
(647,615,l),
(726,674,l),
(726,690,l),
(472,690,l),
(472,674,l),
(551,615,l),
(551,386,l),
(205,386,l),
(205,615,l),
(284,674,l),
(284,690,l),
(30,690,l),
(30,674,l),
(109,615,l),
(109,75,l),
(30,16,l),
(30,0,l),
(284,0,l),
(284,16,l),
(205,75,l),
(205,331,l),
(551,331,l),
(551,-42,ls),
(551,-137,o),
(507,-197,o),
(438,-197,cs),
(418,-197,o),
(401,-194,o),
(384,-186,c),
(318,-48,l),
(302,-48,l),
(234,-166,l),
(284,-218,o),
(358,-251,o),
(426,-251,cs)
);
}
);
width = 756;
},
{
layerId = m002;
shapes = (
{
closed = 1;
nodes = (
(624,-251,o),
(737,-119,o),
(737,90,cs),
(737,597,l),
(806,666,l),
(806,690,l),
(480,690,l),
(480,666,l),
(541,597,l),
(541,386,l),
(291,386,l),
(291,597,l),
(352,666,l),
(352,690,l),
(26,690,l),
(26,666,l),
(95,597,l),
(95,93,l),
(26,24,l),
(26,0,l),
(352,0,l),
(352,24,l),
(291,93,l),
(291,321,l),
(541,321,l),
(541,13,ls),
(541,-103,o),
(504,-176,o),
(446,-176,cs),
(436,-176,o),
(426,-175,o),
(417,-173,c),
(312,-41,l),
(285,-41,l),
(209,-168,l),
(275,-221,o),
(359,-251,o),
(445,-251,cs)
);
}
);
width = 832;
},
{
associatedMasterId = m01;
layerId = "AB77D82A-6C29-4C55-BECC-0AFE8492DC0D";
name = "1 May 24 at 15:26";
shapes = (
{
closed = 1;
nodes = (
(556,-251,o),
(647,-163,o),
(647,-38,cs),
(647,615,l),
(726,674,l),
(726,690,l),
(472,690,l),
(472,674,l),
(551,615,l),
(551,-42,ls),
(551,-137,o),
(507,-197,o),
(438,-197,cs),
(389,-197,o),
(357,-178,o),
(312,-122,c),
(312,-204,l),
(393,-204,l),
(318,-48,l),
(302,-48,l),
(234,-166,l),
(284,-218,o),
(358,-251,o),
(426,-251,cs)
);
},
{
closed = 1;
nodes = (
(284,0,l),
(284,16,l),
(205,75,l),
(205,615,l),
(284,674,l),
(284,690,l),
(30,690,l),
(30,674,l),
(109,615,l),
(109,75,l),
(30,16,l),
(30,0,l)
);
},
{
closed = 1;
nodes = (
(582,331,l),
(582,386,l),
(174,386,l),
(174,331,l)
);
}
);
width = 756;
},
{
associatedMasterId = m002;
layerId = "7BD52943-8DA0-4580-A795-A68CB4DA3479";
name = "1 May 24 at 15:26";
shapes = (
{
closed = 1;
nodes = (
(624,-251,o),
(737,-119,o),
(737,90,cs),
(737,597,l),
(806,666,l),
(806,690,l),
(480,690,l),
(480,666,l),
(541,597,l),
(541,13,ls),
(541,-103,o),
(504,-176,o),
(446,-176,cs),
(398,-176,o),
(360,-156,o),
(332,-115,c),
(332,-216,l),
(451,-216,l),
(312,-41,l),
(285,-41,l),
(209,-168,l),
(275,-221,o),
(359,-251,o),
(445,-251,cs)
);
},
{
closed = 1;
nodes = (
(352,0,l),
(352,24,l),
(291,93,l),
(291,597,l),
(352,666,l),
(352,690,l),
(26,690,l),
(26,666,l),
(95,597,l),
(95,93,l),
(26,24,l),
(26,0,l)
);
},
{
closed = 1;
nodes = (
(628,321,l),
(628,386,l),
(210,386,l),
(210,321,l)
);
}
);
width = 832;
}
);
metricLeft = "=H";
metricRight = "=H";
unicode = 42790;
},
{
color = 9;
glyphname = Hhook;
kernRight = KO_H;
lastChange = "2024-04-30 11:33:05 +0000";
layers = (
{
layerId = m01;
shapes = (
{
closed = 1;
nodes = (
(391,0,l),
(391,16,l),
(312,75,l),
(312,615,l),
(391,674,l),
(391,690,l),
(214,690,ls),
(84,690,o),
(2,622,o),
(2,513,cs),
(2,462,o),
(19,412,o),
(57,350,c),
(155,444,l),
(155,460,l),
(49,515,l),
(49,434,l),
(131,434,l),
(89,470,o),
(68,503,o),
(68,532,cs),
(68,595,o),
(131,640,o),
(221,640,c),
(216,658,l),
(216,75,l),
(137,16,l),
(137,0,l)
);
},
{
closed = 1;
nodes = (
(689,331,l),
(689,386,l),
(281,386,l),
(281,331,l)
);
},
{
closed = 1;
nodes = (
(833,0,l),
(833,16,l),
(754,75,l),
(754,615,l),
(833,674,l),
(833,690,l),
(579,690,l),
(579,674,l),
(658,615,l),
(658,75,l),
(579,16,l),
(579,0,l)
);
}
);
width = 863;
},
{
layerId = m002;
shapes = (
{
closed = 1;
nodes = (
(499,0,l),
(499,24,l),
(438,93,l),
(438,597,l),
(499,666,l),
(499,690,l),
(300,690,ls),
(109,690,o),
(2,618,o),
(2,489,cs),
(2,415,o),
(27,359,o),
(85,304,c),
(209,400,l),
(209,427,l),
(37,536,l),
(37,427,l),
(161,427,l),
(122,454,o),
(107,478,o),
(107,511,cs),
(107,578,o),
(173,630,o),
(257,630,c),
(242,647,l),
(242,93,l),
(173,24,l),
(173,0,l)
);
},
{
closed = 1;
nodes = (
(775,321,l),
(775,386,l),
(357,386,l),
(357,321,l)
);
},
{
closed = 1;
nodes = (
(953,0,l),
(953,24,l),
(884,93,l),
(884,597,l),
(953,666,l),
(953,690,l),
(627,690,l),
(627,666,l),
(688,597,l),
(688,93,l),
(627,24,l),
(627,0,l)
);
}
);
width = 979;
}
);
metricLeft = "=V";
metricRight = "=H";
unicode = 42922;
},
{
color = 9;
glyphname = Hturned;
kernRight = KO_H;
lastChange = "2024-05-01 05:27:14 +0000";
layers = (
{
layerId = m01;
shapes = (
{
closed = 1;
nodes = (
(648,0,l),
(648,16,l),
(569,75,l),
(569,615,l),
(648,674,l),
(648,690,l),
(394,690,l),
(394,674,l),
(473,615,l),
(473,397,l),
(434,341,o),
(384,314,o),
(322,314,cs),
(247,314,o),
(205,365,o),
(205,455,cs),
(205,615,l),
(284,674,l),
(284,690,l),
(30,690,l),
(30,674,l),
(109,615,l),
(109,428,ls),
(109,318,o),
(182,240,o),
(287,240,cs),
(360,240,o),
(437,281,o),
(473,339,c),
(473,75,l),
(394,16,l),
(394,0,l)
);
}
);
width = 678;
},
{
layerId = m002;
shapes = (
{
closed = 1;
nodes = (
(758,0,l),
(758,24,l),
(689,93,l),
(689,597,l),
(758,666,l),
(758,690,l),
(437,690,l),
(437,666,l),
(493,597,l),
(493,385,l),
(470,356,o),
(434,340,o),
(392,340,cs),
(327,340,o),
(291,388,o),
(291,474,cs),
(291,597,l),
(355,666,l),
(355,690,l),
(26,690,l),
(26,666,l),
(95,597,l),
(95,404,ls),
(95,279,o),
(169,201,o),
(286,201,cs),
(373,201,o),
(444,240,o),
(493,319,c),
(493,93,l),
(432,24,l),
(432,0,l)
);
}
);
width = 784;
},
{
associatedMasterId = m01;
layerId = "0A9B9CA3-EAA0-4DB0-8B8E-7AF48ABD5B9A";
name = "1 May 24 at 15:26";
shapes = (
{
closed = 1;
nodes = (
(360,240,o),
(437,281,o),
(473,339,c),
(488,339,l),
(488,420,l),
(447,349,o),
(392,314,o),
(322,314,cs),
(247,314,o),
(205,365,o),
(205,455,cs),
(205,615,l),
(284,674,l),
(284,690,l),
(30,690,l),
(30,674,l),
(109,615,l),
(109,428,ls),
(109,318,o),
(182,240,o),
(287,240,cs)
);
},
{
closed = 1;
nodes = (
(648,0,l),
(648,16,l),
(569,75,l),
(569,615,l),
(648,674,l),
(648,690,l),
(394,690,l),
(394,674,l),
(473,615,l),
(473,75,l),
(394,16,l),
(394,0,l)
);
}
);
width = 678;
},
{
associatedMasterId = m002;
layerId = "F456D65E-56E8-48BA-A504-208729A493B9";
name = "1 May 24 at 15:26";
shapes = (
{
closed = 1;
nodes = (
(373,201,o),
(441,240,o),
(490,319,c),
(500,319,l),
(500,395,l),
(478,360,o),
(439,340,o),
(392,340,cs),
(327,340,o),
(291,388,o),
(291,474,cs),
(291,597,l),
(355,666,l),
(355,690,l),
(26,690,l),
(26,666,l),
(95,597,l),
(95,404,ls),
(95,279,o),
(169,201,o),
(286,201,cs)
);
},
{
closed = 1;
nodes = (
(758,0,l),
(758,24,l),
(689,93,l),
(689,597,l),
(758,666,l),
(758,690,l),
(437,690,l),
(437,666,l),
(493,597,l),
(493,93,l),
(432,24,l),
(432,0,l)
);
}
);
width = 784;
}
);
metricLeft = "=H";
metricRight = "=H";
unicode = 42893;
},
{
color = 4;
glyphname = I;
kernLeft = KO_H;
kernRight = KO_H;
lastChange = "2024-05-05 07:53:39 +0000";
layers = (
{
anchors = (
{
name = bottom;
pos = (157,0);
},
{
name = ogonek;
pos = (179,0);
},
{
name = top;
pos = (157,690);
},
{
name = topleft;
pos = (20,690);
}
);
guides = (
{
angle = 90;
pos = (284,8);
}
);
layerId = m01;
shapes = (
{
closed = 1;
nodes = (
(284,0,l),
(284,16,l),
(205,75,l),
(205,615,l),
(284,674,l),
(284,690,l),
(30,690,l),
(30,674,l),
(109,615,l),
(109,75,l),
(30,16,l),
(30,0,l)
);
}
);
width = 314;
},
{
anchors = (
{
name = bottom;
pos = (193,0);
},
{
name = ogonek;
pos = (220,0);
},
{
name = top;
pos = (193,690);
},
{
name = topleft;
pos = (20,690);
}
);
guides = (
{
angle = 270;
pos = (26,12);
},
{
angle = 90;
pos = (360,12);
}
);
layerId = m002;
shapes = (
{
closed = 1;
nodes = (
(360,0,l),
(360,24,l),
(291,93,l),
(291,597,l),
(360,666,l),
(360,690,l),
(26,690,l),
(26,666,l),
(95,597,l),
(95,93,l),
(26,24,l),
(26,0,l)
);
}
);
width = 386;
}
);
metricLeft = "=H";
metricRight = "=H";
unicode = 73;
},
{
color = 9;
glyphname = "Iota-latin";
lastChange = "2024-05-01 01:05:03 +0000";
layers = (
{
anchors = (
{
name = bottom;
pos = (167,0);
},
{
name = top;
pos = (167,690);
}
);
layerId = m01;
shapes = (
{
closed = 1;
nodes = (
(303,36,l),
(240,36,o),
(205,71,o),
(205,140,cs),
(205,615,l),
(284,674,l),
(284,690,l),
(30,690,l),
(30,674,l),
(109,615,l),
(109,113,ls),
(109,13,o),
(179,-27,o),
(303,0,c)
);
}
);
width = 333;
},
{
anchors = (
{
name = bottom;
pos = (200,0);
},
{
name = top;
pos = (200,690);
}
);
layerId = m002;
shapes = (
{
closed = 1;
nodes = (
(374,49,l),
(314,71,o),
(291,114,o),
(291,206,cs),
(291,597,l),
(360,666,l),
(360,690,l),
(26,690,l),
(26,666,l),
(95,597,l),
(95,183,ls),
(95,17,o),
(180,-50,o),
(374,0,c)
);
}
);
width = 400;
}
);
metricLeft = "=I";
metricRight = "=I";
unicode = 406;
},
{
color = 9;
glyphname = Istroke;
lastChange = "2024-04-27 13:30:07 +0000";
layers = (
{
guides = (
{
angle = 90;
pos = (284,150);
},
{
angle = 90;
pos = (30,150);
}
);
layerId = m01;
shapes = (
{
ref = I;
},
{
closed = 1;
nodes = (
(284,333,l),
(284,388,l),
(30,388,l),
(30,333,l)
);
}
);
width = 314;
},
{
guides = (
{
angle = 90;
pos = (360,150);
},
{
angle = 90;
pos = (26,150);
}
);
layerId = m002;
shapes = (
{
ref = I;
},
{
closed = 1;
nodes = (
(360,320,l),
(360,385,l),
(26,385,l),
(26,320,l)
);
}
);
width = 386;
}
);
unicode = 407;
},
{
color = 4;
glyphname = J;
kernLeft = KO_J;
kernRight = KO_J;
lastChange = "2024-05-05 07:53:39 +0000";
layers = (
{
associatedMasterId = m01;
layerId = "7CABEDAC-4FCA-4D7B-A9A4-53D6BDA63A1B";
name = "29 Oct 23 at 23:00";
shapes = (
{
closed = 1;
nodes = (
(133,128,l),
(-10,112,l),
(-10,99,l),
(32,-12,l),
(46,-12,l),
(142,25,o),
(203,116,o),
(203,223,cs),
(203,615,l),
(282,674,l),
(282,690,l),
(28,690,l),
(28,674,l),
(107,615,l),
(107,58,l)
);
}
);
width = 280;
},
{
associatedMasterId = m002;
layerId = "32E03186-91A0-4488-A0BE-941E10D05A77";
name = "29 Oct 23 at 23:00";
shapes = (
{
closed = 1;
nodes = (
(132,82,l),
(-23,156,l),
(-37,147,l),
(-37,-16,l),
(-23,-16,l),
(153,-16,o),
(291,96,o),
(291,239,cs),
(291,597,l),
(360,666,l),
(360,690,l),
(26,690,l),
(26,666,l),
(95,597,l),
(95,66,l)
);
}
);
width = 353;
},
{
associatedMasterId = m01;
layerId = "4CE2DC5E-4CF9-4565-891E-AE3030C1C56E";
name = "3 Nov 23 at 09:08";
shapes = (
{
closed = 1;
nodes = (
(165,72,l),
(11,89,l),
(2,79,l),
(2,-12,l),
(16,-12,l),
(139,-12,o),
(235,78,o),
(235,193,cs),
(235,615,l),
(314,674,l),
(314,690,l),
(60,690,l),
(60,674,l),
(139,615,l),
(139,58,l)
);
}
);
width = 312;
},
{
anchors = (
{
name = bottom;
pos = (299,0);
},
{
name = top;
pos = (442,690);
}
);
background = {
shapes = (
{
closed = 0;
nodes = (
(248,41,ls),
(190,41,o),
(151,63,o),
(120,113,c),
(120,18,l),
(210,18,l),
(105,166,l),
(89,166,l),
(21,54,l),
(74,15,o),
(173,-16,o),
(248,-16,cs)
);
}
);
};
layerId = m01;
name = Light;
shapes = (
{
closed = 1;
nodes = (
(395,-16,o),
(488,66,o),
(488,197,cs),
(488,615,l),
(567,674,l),
(567,690,l),
(313,690,l),
(313,674,l),
(392,615,l),
(392,193,ls),
(392,98,o),
(340,38,o),
(258,38,cs),
(224,38,o),
(198,45,o),
(173,62,c),
(108,197,l),
(92,197,l),
(24,79,l),
(77,23,o),
(168,-16,o),
(246,-16,cs)
);
}
);
width = 597;
},
{
associatedMasterId = m002;
layerId = "4C4C320E-A86E-4717-8A8C-2B407E85013C";
name = "3 Nov 23 at 09:08";
shapes = (
{
closed = 1;
nodes = (
(194,70,l),
(16,186,l),
(2,177,l),
(2,-16,l),
(16,-16,l),
(205,-16,o),
(353,96,o),
(353,239,cs),
(353,597,l),
(422,666,l),
(422,690,l),
(88,690,l),
(88,666,l),
(157,597,l),
(157,66,l)
);
}
);
width = 414;
},
{
associatedMasterId = m01;
layerId = "B5D12403-2EEF-4A9A-B5D4-D977C06098D3";
name = "5 Nov 23 at 16:51";
shapes = (
{
closed = 1;
nodes = (
(151,-71,l),
(8,-88,l),
(8,-101,l),
(40,-195,l),
(54,-195,l),
(152,-157,o),
(221,-60,o),
(221,40,cs),
(221,615,l),
(300,674,l),
(300,690,l),
(46,690,l),
(46,674,l),
(125,615,l),
(125,-125,l)
);
}
);
width = 320;
},
{
associatedMasterId = m002;
layerId = "2F812EF9-9FD7-42A6-BC3B-93BC001A5B55";
name = "5 Nov 23 at 17:02";
shapes = (
{
closed = 1;
nodes = (
(132,-123,l),
(-66,-21,l),
(-80,-30,l),
(-80,-205,l),
(-46,-205,l),
(143,-205,o),
(291,-78,o),
(291,84,cs),
(291,597,l),
(360,666,l),
(360,690,l),
(26,690,l),
(26,666,l),
(95,597,l),
(95,-148,l)
);
}
);
width = 380;
},
{
associatedMasterId = m002;
layerId = "3B81A102-C5F8-4C90-BBC5-9C027C10CF2E";
name = "5 Nov 23 at 17:10";
shapes = (
{
closed = 1;
nodes = (
(373,-16,o),
(473,81,o),
(473,255,cs),
(473,597,l),
(542,666,l),
(542,690,l),
(208,690,l),
(208,666,l),
(277,597,l),
(277,155,ls),
(277,99,o),
(241,59,o),
(189,59,cs),
(117,59,o),
(85,91,o),
(85,165,c),
(85,33,l),
(204,33,l),
(101,221,l),
(74,221,l),
(16,89,l),
(49,27,o),
(123,-16,o),
(194,-16,cs)
);
}
);
width = 562;
},
{
anchors = (
{
name = bottom;
pos = (330,0);
},
{
name = top;
pos = (463,690);
}
);
layerId = m002;
name = "Extra Bold";
shapes = (
{
closed = 1;
nodes = (
(463,-16,o),
(564,77,o),
(564,243,cs),
(564,597,l),
(633,666,l),
(633,690,l),
(299,690,l),
(299,666,l),
(368,597,l),
(368,207,ls),
(368,116,o),
(337,65,o),
(282,65,cs),
(267,65,o),
(254,67,o),
(241,71,c),
(137,245,l),
(110,245,l),
(21,102,l),
(83,33,o),
(192,-16,o),
(284,-16,cs)
);
}
);
width = 659;
},
{
associatedMasterId = m002;
layerId = "2D03E7D7-951B-466F-ACF1-C2FF629FD7B7";
name = "9 Nov 23 at 21:18";
shapes = (
{
closed = 1;
nodes = (
(330,-16,o),
(419,76,o),
(419,223,cs),
(419,597,l),
(488,666,l),
(488,690,l),
(154,690,l),
(154,666,l),
(223,597,l),
(223,155,ls),
(223,88,o),
(205,59,o),
(165,59,c),
(116,59,o),
(85,84,o),
(85,125,c),
(85,30,l),
(201,30,l),
(83,203,l),
(56,203,l),
(2,49,l),
(49,6,o),
(111,-16,o),
(189,-16,cs)
);
}
);
width = 508;
},
{
associatedMasterId = m01;
layerId = "978862C7-46D7-4677-8F6C-0E755A31F504";
name = "9 Nov 23 at 21:19";
shapes = (
{
closed = 1;
nodes = (
(241,-16,o),
(290,62,o),
(290,220,cs),
(290,615,l),
(369,674,l),
(369,690,l),
(115,690,l),
(115,674,l),
(194,615,l),
(194,120,ls),
(194,67,o),
(174,37,o),
(137,37,cs),
(98,37,o),
(76,64,o),
(76,113,c),
(76,20,l),
(147,20,l),
(76,143,l),
(60,143,l),
(2,40,l),
(42,3,o),
(88,-16,o),
(141,-16,cs)
);
}
);
width = 389;
},
{
associatedMasterId = m01;
layerId = "035DB8FB-6472-42D7-B22A-8F2817C7B800";
name = "9 Nov 23 at 21:29";
shapes = (
{
closed = 1;
nodes = (
(286,-16,o),
(350,79,o),
(350,250,cs),
(350,615,l),
(429,674,l),
(429,690,l),
(175,690,l),
(175,674,l),
(254,615,l),
(254,184,ls),
(254,93,o),
(224,42,o),
(171,42,cs),
(135,42,o),
(101,66,o),
(89,101,c),
(89,22,l),
(155,22,l),
(72,156,l),
(56,156,l),
(2,46,l),
(45,6,o),
(106,-16,o),
(171,-16,cs)
);
}
);
width = 439;
},
{
associatedMasterId = m002;
layerId = "69384037-AA7B-47ED-8DB6-0CA4E00B5EF6";
name = "9 Nov 23 at 21:29";
shapes = (
{
closed = 1;
nodes = (
(380,-16,o),
(488,92,o),
(488,263,cs),
(488,597,l),
(557,666,l),
(557,690,l),
(223,690,l),
(223,666,l),
(292,597,l),
(292,228,ls),
(292,124,o),
(257,59,o),
(202,59,c),
(151,59,o),
(106,98,o),
(85,159,c),
(85,39,l),
(201,39,l),
(96,212,l),
(69,212,l),
(2,58,l),
(54,11,o),
(129,-16,o),
(209,-16,cs)
);
}
);
width = 567;
},
{
associatedMasterId = m002;
layerId = "64496E29-EE67-4314-9D49-F19747A3053E";
name = "9 Nov 23 at 21:32";
shapes = (
{
closed = 1;
nodes = (
(380,-16,o),
(488,92,o),
(488,263,cs),
(488,597,l),
(557,666,l),
(557,690,l),
(223,690,l),
(223,666,l),
(292,597,l),
(292,228,ls),
(292,124,o),
(257,59,o),
(202,59,c),
(151,59,o),
(106,98,o),
(85,159,c),
(85,39,l),
(201,39,l),
(96,212,l),
(69,212,l),
(2,58,l),
(54,11,o),
(129,-16,o),
(209,-16,cs)
);
}
);
width = 567;
},
{
associatedMasterId = m01;
layerId = "D2D19152-C0F2-4347-9A80-9B0C04B5B56B";
name = "13 Nov 23 at 14:04";
shapes = (
{
closed = 1;
nodes = (
(315,-16,o),
(390,83,o),
(390,261,cs),
(390,615,l),
(469,674,l),
(469,690,l),
(215,690,l),
(215,674,l),
(294,615,l),
(294,214,ls),
(294,108,o),
(250,42,o),
(181,42,cs),
(136,42,o),
(113,58,o),
(89,107,c),
(109,22,l),
(158,28,l),
(72,162,l),
(56,162,l),
(2,52,l),
(51,7,o),
(110,-16,o),
(181,-16,cs)
);
}
);
width = 471;
},
{
associatedMasterId = m002;
layerId = "5150498B-B981-4F15-8AC1-DF43633762F7";
name = "13 Nov 23 at 14:04";
shapes = (
{
closed = 1;
nodes = (
(410,-16,o),
(518,107,o),
(518,303,cs),
(518,597,l),
(587,666,l),
(587,690,l),
(253,690,l),
(253,666,l),
(322,597,l),
(322,268,ls),
(322,140,o),
(286,69,o),
(222,69,c),
(160,69,o),
(115,101,o),
(95,159,c),
(105,39,l),
(237,39,l),
(116,212,l),
(89,212,l),
(2,68,l),
(55,14,o),
(140,-16,o),
(239,-16,cs)
);
}
);
width = 589;
},
{
associatedMasterId = m01;
layerId = "F81A4823-9932-4C02-8EE5-F7071F6E92B8";
name = "13 Nov 23 at 14:07";
shapes = (
{
closed = 1;
nodes = (
(345,-16,o),
(413,59,o),
(413,231,cs),
(413,615,l),
(492,674,l),
(492,690,l),
(238,690,l),
(238,674,l),
(317,615,l),
(317,184,ls),
(317,89,o),
(275,42,o),
(191,42,cs),
(140,42,o),
(112,60,o),
(89,107,c),
(89,24,l),
(154,24,l),
(76,162,l),
(60,162,l),
(2,52,l),
(49,8,o),
(117,-16,o),
(191,-16,cs)
);
}
);
width = 494;
},
{
associatedMasterId = m01;
layerId = "27D52EF1-AE7E-4373-AB6C-5A5C45534003";
name = "15 Nov 23 at 14:24";
shapes = (
{
closed = 1;
nodes = (
(365,-16,o),
(431,59,o),
(431,231,cs),
(431,615,l),
(510,674,l),
(510,690,l),
(256,690,l),
(256,674,l),
(335,615,l),
(335,204,ls),
(335,93,o),
(299,44,o),
(218,44,cs),
(144,44,o),
(99,72,o),
(70,136,c),
(70,22,l),
(166,22,l),
(79,182,l),
(63,182,l),
(2,72,l),
(56,13,o),
(126,-16,o),
(213,-16,cs)
);
}
);
width = 512;
},
{
associatedMasterId = m002;
layerId = "12135E42-34F1-419C-8D5C-FC5EDB2C800D";
name = "15 Nov 23 at 14:31";
shapes = (
{
closed = 1;
nodes = (
(452,-16,o),
(545,70,o),
(545,243,cs),
(545,597,l),
(614,666,l),
(614,690,l),
(280,690,l),
(280,666,l),
(349,597,l),
(349,225,ls),
(349,121,o),
(317,69,o),
(253,69,c),
(187,69,o),
(147,111,o),
(122,207,c),
(122,39,l),
(239,39,l),
(116,245,l),
(89,245,l),
(2,102,l),
(52,30,o),
(153,-16,o),
(265,-16,cs)
);
}
);
width = 616;
},
{
anchors = (
{
name = bottom;
pos = (299,0);
},
{
name = top;
pos = (439,690);
}
);
associatedMasterId = m01;
background = {
shapes = (
{
closed = 0;
nodes = (
(248,41,ls),
(190,41,o),
(151,63,o),
(120,113,c),
(120,18,l),
(210,18,l),
(105,166,l),
(89,166,l),
(21,54,l),
(74,15,o),
(173,-16,o),
(248,-16,cs)
);
}
);
};
layerId = "CE69A4F6-CA08-4B41-91D3-E72D9018B150";
name = "18 Nov 23 at 13:55";
shapes = (
{
closed = 1;
nodes = (
(395,-16,o),
(488,66,o),
(488,197,cs),
(488,615,l),
(567,674,l),
(567,690,l),
(313,690,l),
(313,674,l),
(392,615,l),
(392,193,ls),
(392,98,o),
(340,38,o),
(258,38,cs),
(192,38,o),
(153,64,o),
(102,143,c),
(102,48,l),
(178,48,l),
(101,197,l),
(85,197,l),
(24,79,l),
(77,23,o),
(168,-16,o),
(246,-16,cs)
);
}
);
width = 597;
},
{
associatedMasterId = m002;
layerId = "A3409B12-BD7A-41EA-8B49-4C64796C4B43";
name = "18 Nov 23 at 13:55";
shapes = (
{
closed = 1;
nodes = (
(463,-16,o),
(564,77,o),
(564,243,cs),
(564,597,l),
(633,666,l),
(633,690,l),
(299,690,l),
(299,666,l),
(368,597,l),
(368,207,ls),
(368,116,o),
(337,65,o),
(282,65,c),
(210,65,o),
(167,108,o),
(141,207,c),
(141,39,l),
(253,39,l),
(132,245,l),
(105,245,l),
(21,102,l),
(83,33,o),
(192,-16,o),
(284,-16,cs)
);
}
);
width = 659;
},
{
anchors = (
{
name = bottom;
pos = (299,0);
},
{
name = top;
pos = (442,690);
}
);
associatedMasterId = m01;
background = {
shapes = (
{
closed = 0;
nodes = (
(248,41,ls),
(190,41,o),
(151,63,o),
(120,113,c),
(120,18,l),
(210,18,l),
(105,166,l),
(89,166,l),
(21,54,l),
(74,15,o),
(173,-16,o),
(248,-16,cs)
);
}
);
};
layerId = "EF0756A2-A5DF-4D53-B707-88C273302475";
name = "1 May 24 at 14:02";
shapes = (
{
closed = 1;
nodes = (
(395,-16,o),
(488,66,o),
(488,197,cs),
(488,615,l),
(567,674,l),
(567,690,l),
(313,690,l),
(313,674,l),
(392,615,l),
(392,193,ls),
(392,98,o),
(340,38,o),
(258,38,cs),
(192,38,o),
(153,64,o),
(102,143,c),
(102,41,l),
(183,41,l),
(108,197,l),
(92,197,l),
(24,79,l),
(77,23,o),
(168,-16,o),
(246,-16,cs)
);
}
);
width = 597;
},
{
anchors = (
{
name = bottom;
pos = (330,0);
},
{
name = top;
pos = (463,690);
}
);
associatedMasterId = m002;
layerId = "896FA396-B349-43C9-ACAC-F89CA3360EED";
name = "1 May 24 at 14:02";
shapes = (
{
closed = 1;
nodes = (
(463,-16,o),
(564,77,o),
(564,243,cs),
(564,597,l),
(633,666,l),
(633,690,l),
(299,690,l),
(299,666,l),
(368,597,l),
(368,207,ls),
(368,116,o),
(337,65,o),
(282,65,c),
(210,65,o),
(167,108,o),
(141,207,c),
(141,39,l),
(260,39,l),
(137,245,l),
(110,245,l),
(21,102,l),
(83,33,o),
(192,-16,o),
(284,-16,cs)
);
}
);
width = 659;
}
);
metricLeft = "=H*0.8";
metricRight = "=H";
unicode = 74;
},
{
color = 9;
glyphname = Jcrossedtail;
lastChange = "2024-05-06 01:18:14 +0000";
layers = (
{
layerId = m01;
shapes = (
{
closed = 1;
nodes = (
(282,-187,o),
(327,-112,o),
(327,85,cs),
(327,615,l),
(406,674,l),
(406,690,l),
(152,690,l),
(152,674,l),
(231,615,l),
(231,-17,ls),
(231,-98,o),
(212,-133,o),
(167,-133,cs),
(130,-133,o),
(107,-112,o),
(107,-78,cs),
(107,-42,o),
(134,-24,o),
(187,-24,cs),
(274,-24,o),
(343,-70,o),
(356,-132,c),
(390,-120,l),
(370,-28,o),
(292,30,o),
(187,30,cs),
(100,30,o),
(45,-12,o),
(45,-78,cs),
(45,-148,o),
(88,-187,o),
(165,-187,cs)
);
}
);
width = 408;
},
{
layerId = m002;
shapes = (
{
closed = 1;
nodes = (
(352,-194,o),
(447,-66,o),
(447,138,cs),
(447,597,l),
(516,666,l),
(516,690,l),
(182,690,l),
(182,666,l),
(251,597,l),
(251,13,ls),
(251,-82,o),
(226,-129,o),
(175,-129,cs),
(137,-129,o),
(110,-102,o),
(110,-63,cs),
(110,-21,o),
(151,6,o),
(217,6,cs),
(349,6,o),
(438,-45,o),
(459,-129,c),
(504,-110,l),
(476,1,o),
(371,71,o),
(233,71,cs),
(104,71,o),
(32,23,o),
(32,-64,cs),
(32,-147,o),
(92,-194,o),
(200,-194,cs)
);
}
);
width = 518;
},
{
associatedMasterId = m01;
layerId = "F1DEC3FB-1EEB-4808-B61A-C62426B4AA75";
name = "30 Apr 24 at 22:01";
shapes = (
{
closed = 1;
nodes = (
(282,-187,o),
(327,-112,o),
(327,85,cs),
(327,615,l),
(406,674,l),
(406,690,l),
(152,690,l),
(152,674,l),
(231,615,l),
(231,-17,ls),
(231,-98,o),
(212,-133,o),
(167,-133,cs),
(130,-133,o),
(107,-112,o),
(107,-78,cs),
(107,-42,o),
(134,-24,o),
(187,-24,cs),
(274,-24,o),
(343,-70,o),
(356,-132,c),
(409,-114,l),
(390,-28,o),
(304,30,o),
(187,30,cs),
(100,30,o),
(45,-12,o),
(45,-78,cs),
(45,-148,o),
(88,-187,o),
(165,-187,cs)
);
}
);
width = 411;
},
{
associatedMasterId = m002;
layerId = "D4C7CA14-71D0-4A78-B9EA-D547B046DBF8";
name = "30 Apr 24 at 22:01";
shapes = (
{
closed = 1;
nodes = (
(352,-194,o),
(447,-66,o),
(447,138,cs),
(447,597,l),
(516,666,l),
(516,690,l),
(182,690,l),
(182,666,l),
(251,597,l),
(251,13,ls),
(251,-82,o),
(226,-129,o),
(175,-129,cs),
(137,-129,o),
(110,-102,o),
(110,-63,cs),
(110,-21,o),
(151,6,o),
(217,6,cs),
(349,6,o),
(438,-45,o),
(459,-129,c),
(523,-107,l),
(495,4,o),
(388,71,o),
(233,71,cs),
(104,71,o),
(32,23,o),
(32,-64,cs),
(32,-147,o),
(92,-194,o),
(200,-194,cs)
);
}
);
width = 525;
}
);
metricLeft = "=O";
metricRight = "=V";
unicode = 42930;
userData = {
KernOnName = Jcrossedtail;
};
},
{
color = 4;
glyphname = K;
kernLeft = KO_H;
kernRight = KO_K;
lastChange = "2024-05-05 07:53:39 +0000";
layers = (
{
anchors = (
{
name = bottom;
pos = (352,0);
},
{
name = top;
pos = (352,690);
}
);
guides = (
{
pos = (157,615);
}
);
layerId = m01;
shapes = (
{
closed = 1;
nodes = (
(284,0,l),
(284,16,l),
(205,75,l),
(205,276,l),
(307,371,l),
(516,72,l),
(455,16,l),
(455,0,l),
(702,0,l),
(702,16,l),
(623,79,l),
(375,434,l),
(569,614,l),
(672,674,l),
(672,690,l),
(407,690,l),
(407,674,l),
(459,620,l),
(205,335,l),
(205,615,l),
(284,674,l),
(284,690,l),
(30,690,l),
(30,674,l),
(109,615,l),
(109,75,l),
(30,16,l),
(30,0,l)
);
}
);
width = 704;
},
{
anchors = (
{
name = bottom;
pos = (409,0);
},
{
name = top;
pos = (409,690);
}
);
guides = (
{
pos = (582,533);
},
{
pos = (389,93);
}
);
layerId = m002;
shapes = (
{
closed = 1;
nodes = (
(360,0,l),
(360,24,l),
(291,93,l),
(291,289,l),
(349,335,l),
(522,84,l),
(481,24,l),
(481,0,l),
(816,0,l),
(816,24,l),
(742,94,l),
(497,452,l),
(680,596,l),
(798,666,l),
(798,690,l),
(462,690,l),
(462,666,l),
(513,609,l),
(291,365,l),
(291,597,l),
(360,666,l),
(360,690,l),
(26,690,l),
(26,666,l),
(95,597,l),
(95,93,l),
(26,24,l),
(26,0,l)
);
}
);
width = 818;
},
{
associatedMasterId = m01;
guides = (
{
pos = (155,615);
}
);
layerId = "AAB62C9B-3B54-4455-9AD6-6A5B7FA54BD1";
name = "9 Nov 23 at 21:37";
shapes = (
{
closed = 1;
nodes = (
(587,644,l),
(520,595,l),
(659,674,l),
(659,690,l),
(405,690,l),
(405,674,l),
(492,597,l),
(510,677,l),
(176,295,l),
(181,241,l)
);
},
{
closed = 1;
nodes = (
(282,0,l),
(282,16,l),
(203,75,l),
(203,615,l),
(282,674,l),
(282,690,l),
(28,690,l),
(28,674,l),
(107,615,l),
(107,75,l),
(28,16,l),
(28,0,l)
);
},
{
closed = 1;
nodes = (
(694,0,l),
(694,16,l),
(576,108,l),
(664,13,l),
(349,427,l),
(289,364,l),
(554,16,l),
(538,103,l),
(460,16,l),
(460,0,l)
);
}
);
width = 708;
},
{
associatedMasterId = m002;
layerId = "D3B90596-8813-418C-8347-21268481278F";
name = "9 Nov 23 at 21:37";
shapes = (
{
closed = 1;
nodes = (
(755,677,l),
(619,563,l),
(776,666,l),
(776,690,l),
(462,690,l),
(462,666,l),
(564,560,l),
(564,677,l),
(230,251,l),
(223,184,l)
);
},
{
closed = 1;
nodes = (
(360,0,l),
(360,24,l),
(291,93,l),
(291,597,l),
(360,666,l),
(360,690,l),
(26,690,l),
(26,666,l),
(95,597,l),
(95,93,l),
(26,24,l),
(26,0,l)
);
},
{
closed = 1;
nodes = (
(800,0,l),
(800,24,l),
(678,137,l),
(785,13,l),
(474,456,l),
(323,347,l),
(558,13,l),
(547,128,l),
(484,24,l),
(484,0,l)
);
}
);
width = 813;
},
{
associatedMasterId = m01;
guides = (
{
pos = (157,615);
}
);
layerId = "2B4F0295-1A1F-48B4-B287-3CAF0EC541AC";
name = "13 Nov 23 at 16:48";
shapes = (
{
closed = 1;
nodes = (
(617,644,l),
(550,593,l),
(689,674,l),
(689,690,l),
(434,690,l),
(434,674,l),
(511,597,l),
(539,677,l),
(178,295,l),
(183,241,l)
);
},
{
closed = 1;
nodes = (
(284,0,l),
(284,16,l),
(205,75,l),
(205,615,l),
(284,674,l),
(284,690,l),
(30,690,l),
(30,674,l),
(109,615,l),
(109,75,l),
(30,16,l),
(30,0,l)
);
},
{
closed = 1;
nodes = (
(716,0,l),
(716,16,l),
(598,111,l),
(686,13,l),
(374,445,l),
(313,382,l),
(578,16,l),
(560,100,l),
(482,16,l),
(482,0,l)
);
}
);
width = 718;
},
{
associatedMasterId = m002;
layerId = "D27BF691-809B-42F7-B7AE-7C0C77B2897E";
name = "13 Nov 23 at 16:50";
shapes = (
{
closed = 1;
nodes = (
(788,677,l),
(636,563,l),
(809,666,l),
(809,690,l),
(485,690,l),
(485,666,l),
(597,560,l),
(597,677,l),
(230,267,l),
(223,200,l)
);
},
{
closed = 1;
nodes = (
(360,0,l),
(360,24,l),
(291,93,l),
(291,597,l),
(360,666,l),
(360,690,l),
(26,690,l),
(26,666,l),
(95,597,l),
(95,93,l),
(26,24,l),
(26,0,l)
);
},
{
closed = 1;
nodes = (
(828,0,l),
(828,24,l),
(698,143,l),
(805,13,l),
(504,476,l),
(353,367,l),
(583,13,l),
(563,125,l),
(489,24,l),
(489,0,l)
);
}
);
width = 830;
},
{
associatedMasterId = m01;
guides = (
{
pos = (157,615);
}
);
layerId = "137DC1CB-8F85-4317-A8A4-B67B3AF70F97";
name = "14 Nov 23 at 10:55";
shapes = (
{
closed = 1;
nodes = (
(601,644,l),
(534,594,l),
(672,674,l),
(672,690,l),
(413,690,l),
(413,674,l),
(491,589,l),
(513,677,l),
(167,292,l),
(167,241,l)
);
},
{
closed = 1;
nodes = (
(284,0,l),
(284,16,l),
(205,75,l),
(205,615,l),
(284,674,l),
(284,690,l),
(30,690,l),
(30,674,l),
(109,615,l),
(109,75,l),
(30,16,l),
(30,0,l)
);
},
{
closed = 1;
nodes = (
(702,0,l),
(702,16,l),
(582,111,l),
(670,13,l),
(358,445,l),
(297,382,l),
(562,16,l),
(544,91,l),
(462,16,l),
(462,0,l)
);
}
);
width = 704;
},
{
associatedMasterId = m01;
guides = (
{
pos = (157,615);
}
);
layerId = "EA4876B1-F679-4F2F-9A0C-9A5C58282565";
name = "14 Nov 23 at 10:58";
shapes = (
{
closed = 1;
nodes = (
(601,644,l),
(534,594,l),
(672,674,l),
(672,690,l),
(413,690,l),
(413,674,l),
(491,589,l),
(513,677,l),
(167,292,l),
(167,241,l)
);
},
{
closed = 1;
nodes = (
(284,0,l),
(284,16,l),
(205,75,l),
(205,615,l),
(284,674,l),
(284,690,l),
(30,690,l),
(30,674,l),
(109,615,l),
(109,75,l),
(30,16,l),
(30,0,l)
);
},
{
closed = 1;
nodes = (
(702,0,l),
(702,16,l),
(582,111,l),
(670,13,l),
(358,445,l),
(292,382,l),
(557,16,l),
(539,91,l),
(457,16,l),
(457,0,l)
);
}
);
width = 704;
},
{
anchors = (
{
name = bottom;
pos = (352,0);
},
{
name = top;
pos = (352,690);
}
);
associatedMasterId = m01;
guides = (
{
pos = (157,615);
}
);
layerId = "EBBA80D3-F82A-4977-A35D-62101BC94A64";
name = "1 May 24 at 14:02";
shapes = (
{
closed = 1;
nodes = (
(601,644,l),
(534,594,l),
(672,674,l),
(672,690,l),
(407,690,l),
(407,674,l),
(488,589,l),
(510,677,l),
(167,292,l),
(167,241,l)
);
},
{
closed = 1;
nodes = (
(284,0,l),
(284,16,l),
(205,75,l),
(205,615,l),
(284,674,l),
(284,690,l),
(30,690,l),
(30,674,l),
(109,615,l),
(109,75,l),
(30,16,l),
(30,0,l)
);
},
{
closed = 1;
nodes = (
(702,0,l),
(702,16,l),
(582,112,l),
(669,13,l),
(368,445,l),
(300,382,l),
(555,16,l),
(537,91,l),
(455,16,l),
(455,0,l)
);
}
);
width = 704;
},
{
anchors = (
{
name = bottom;
pos = (409,0);
},
{
name = top;
pos = (409,690);
}
);
associatedMasterId = m002;
guides = (
{
pos = (582,533);
},
{
pos = (389,93);
}
);
layerId = "875F007A-4E45-4E87-B711-BD614FFE68F8";
name = "1 May 24 at 14:02";
shapes = (
{
closed = 1;
nodes = (
(782,677,l),
(630,567,l),
(798,666,l),
(798,690,l),
(462,690,l),
(462,666,l),
(572,544,l),
(575,677,l),
(219,286,l),
(212,227,l)
);
},
{
closed = 1;
nodes = (
(360,0,l),
(360,24,l),
(291,93,l),
(291,597,l),
(360,666,l),
(360,690,l),
(26,690,l),
(26,666,l),
(95,597,l),
(95,93,l),
(26,24,l),
(26,0,l)
);
},
{
closed = 1;
nodes = (
(816,0,l),
(816,24,l),
(689,145,l),
(798,13,l),
(482,474,l),
(329,365,l),
(571,13,l),
(552,129,l),
(481,24,l),
(481,0,l)
);
}
);
width = 818;
}
);
metricLeft = "=H";
metricRight = "=V";
unicode = 75;
},
{
color = 9;
glyphname = Khook;
kernLeft = KO_H;
lastChange = "2024-04-24 00:49:42 +0000";
layers = (
{
layerId = m01;
shapes = (
{
closed = 1;
nodes = (
(526,593,ls),
(550,621,o),
(572,632,o),
(607,632,cs),
(669,632,l),
(669,668,l),
(545,667,l),
(649,540,l),
(663,540,l),
(730,677,l),
(689,696,o),
(648,706,o),
(607,706,cs),
(537,706,o),
(488,676,o),
(430,597,cs),
(167,237,l),
(177,191,l)
);
},
{
closed = 1;
nodes = (
(284,0,l),
(284,16,l),
(205,75,l),
(205,615,l),
(284,674,l),
(284,690,l),
(30,690,l),
(30,674,l),
(109,615,l),
(109,75,l),
(30,16,l),
(30,0,l)
);
},
{
closed = 1;
nodes = (
(702,0,l),
(702,16,l),
(582,112,l),
(669,13,l),
(368,445,l),
(300,382,l),
(555,16,l),
(537,91,l),
(455,16,l),
(455,0,l)
);
}
);
width = 732;
},
{
layerId = m002;
shapes = (
{
closed = 1;
nodes = (
(583,547,ls),
(621,585,o),
(651,602,o),
(680,602,cs),
(733,602,l),
(733,649,l),
(621,642,l),
(743,494,l),
(768,494,l),
(843,665,l),
(791,691,o),
(732,706,o),
(676,706,cs),
(589,706,o),
(522,666,o),
(458,575,cs),
(219,238,l),
(212,179,l)
);
},
{
closed = 1;
nodes = (
(360,0,l),
(360,24,l),
(291,93,l),
(291,597,l),
(360,666,l),
(360,690,l),
(26,690,l),
(26,666,l),
(95,597,l),
(95,93,l),
(26,24,l),
(26,0,l)
);
},
{
closed = 1;
nodes = (
(816,0,l),
(816,24,l),
(689,145,l),
(798,13,l),
(482,474,l),
(329,365,l),
(571,13,l),
(552,129,l),
(481,24,l),
(481,0,l)
);
}
);
width = 845;
},
{
associatedMasterId = m01;
layerId = "B8BA06CF-AD7B-42C3-B9CD-D4BE8B192B8A";
name = "5 Mar 24 at 10:33";
shapes = (
{
closed = 1;
nodes = (
(486,593,ls),
(508,626,o),
(528,640,o),
(554,640,cs),
(592,640,o),
(616,601,o),
(616,538,c),
(702,538,l),
(702,646,o),
(651,706,o),
(560,706,cs),
(485,706,o),
(440,676,o),
(395,597,cs),
(167,202,l),
(177,151,l)
);
},
{
closed = 1;
nodes = (
(284,0,l),
(284,16,l),
(205,75,l),
(205,615,l),
(284,674,l),
(284,690,l),
(30,690,l),
(30,674,l),
(109,615,l),
(109,75,l),
(30,16,l),
(30,0,l)
);
},
{
closed = 1;
nodes = (
(702,0,l),
(702,16,l),
(582,112,l),
(669,13,l),
(368,445,l),
(300,382,l),
(555,16,l),
(537,91,l),
(455,16,l),
(455,0,l)
);
}
);
width = 704;
},
{
associatedMasterId = m002;
layerId = "8A8FA181-2338-4B0F-AF2D-70E52EFB4890";
name = "5 Mar 24 at 10:40";
shapes = (
{
closed = 1;
nodes = (
(572,566,ls),
(594,593,o),
(607,602,o),
(626,602,cs),
(657,602,o),
(673,570,o),
(673,504,c),
(816,504,l),
(816,639,o),
(754,706,o),
(629,706,cs),
(540,706,o),
(480,666,o),
(431,575,cs),
(219,178,l),
(212,119,l)
);
},
{
closed = 1;
nodes = (
(360,0,l),
(360,24,l),
(291,93,l),
(291,597,l),
(360,666,l),
(360,690,l),
(26,690,l),
(26,666,l),
(95,597,l),
(95,93,l),
(26,24,l),
(26,0,l)
);
},
{
closed = 1;
nodes = (
(816,0,l),
(816,24,l),
(689,145,l),
(798,13,l),
(482,474,l),
(329,365,l),
(571,13,l),
(552,129,l),
(481,24,l),
(481,0,l)
);
}
);
width = 818;
},
{
associatedMasterId = m01;
layerId = "74A5C491-115B-4E0E-BAB2-48042753FF4F";
name = "23 Apr 24 at 13:17";
shapes = (
{
closed = 1;
nodes = (
(526,593,ls),
(555,627,o),
(577,640,o),
(607,640,cs),
(646,640,o),
(666,606,o),
(666,538,c),
(752,538,l),
(752,646,o),
(700,706,o),
(607,706,cs),
(537,706,o),
(488,676,o),
(430,597,cs),
(167,237,l),
(177,191,l)
);
},
{
closed = 1;
nodes = (
(284,0,l),
(284,16,l),
(205,75,l),
(205,615,l),
(284,674,l),
(284,690,l),
(30,690,l),
(30,674,l),
(109,615,l),
(109,75,l),
(30,16,l),
(30,0,l)
);
},
{
closed = 1;
nodes = (
(702,0,l),
(702,16,l),
(582,112,l),
(669,13,l),
(368,445,l),
(300,382,l),
(555,16,l),
(537,91,l),
(455,16,l),
(455,0,l)
);
}
);
width = 754;
},
{
associatedMasterId = m002;
layerId = "9E1F402B-4A69-43AD-BEE3-4A604F26889B";
name = "23 Apr 24 at 13:17";
shapes = (
{
closed = 1;
nodes = (
(583,547,ls),
(623,587,o),
(650,602,o),
(680,602,cs),
(717,602,o),
(733,572,o),
(733,504,c),
(876,504,l),
(876,645,o),
(819,706,o),
(689,706,cs),
(583,706,o),
(517,670,o),
(451,575,cs),
(219,238,l),
(212,179,l)
);
},
{
closed = 1;
nodes = (
(360,0,l),
(360,24,l),
(291,93,l),
(291,597,l),
(360,666,l),
(360,690,l),
(26,690,l),
(26,666,l),
(95,597,l),
(95,93,l),
(26,24,l),
(26,0,l)
);
},
{
closed = 1;
nodes = (
(816,0,l),
(816,24,l),
(689,145,l),
(798,13,l),
(482,474,l),
(329,365,l),
(571,13,l),
(552,129,l),
(481,24,l),
(481,0,l)
);
}
);
width = 878;
}
);
metricLeft = "=K";
metricRight = "=K";
unicode = 408;
},
{
color = 4;
glyphname = L;
kernLeft = KO_H;
kernRight = KO_L;
lastChange = "2024-05-06 01:18:14 +0000";
layers = (
{
anchors = (
{
name = bottom;
pos = (299,0);
},
{
name = center;
pos = (157,335);
},
{
name = top;
pos = (159,690);
},
{
name = topright;
pos = (324,690);
}
);
layerId = m01;
shapes = (
{
closed = 1;
nodes = (
(548,0,l),
(553,184,l),
(537,184,l),
(424,54,l),
(205,44,l),
(205,615,l),
(294,674,l),
(294,690,l),
(30,690,l),
(30,674,l),
(109,615,l),
(109,75,l),
(30,16,l),
(30,0,l)
);
}
);
width = 598;
},
{
anchors = (
{
name = bottom;
pos = (310,0);
},
{
name = center;
pos = (193,336);
},
{
name = top;
pos = (189,690);
},
{
name = topright;
pos = (393,690);
}
);
layerId = m002;
shapes = (
{
closed = 1;
nodes = (
(588,0,l),
(588,220,l),
(561,220,l),
(418,63,l),
(291,53,l),
(291,597,l),
(360,666,l),
(360,690,l),
(26,690,l),
(26,666,l),
(95,597,l),
(95,93,l),
(26,24,l),
(26,0,l)
);
}
);
width = 620;
},
{
associatedMasterId = m002;
layerId = "B407A751-511D-4A1B-B995-AEAEBE363F1F";
name = "7 Oct 23 at 10:43";
shapes = (
{
closed = 1;
nodes = (
(289,0,l),
(289,597,l),
(358,666,l),
(358,690,l),
(24,690,l),
(24,666,l),
(93,597,l),
(93,93,l),
(24,24,l),
(24,0,l)
);
},
{
closed = 1;
nodes = (
(557,0,l),
(557,75,l),
(231,48,l),
(231,0,l)
);
},
{
closed = 1;
nodes = (
(586,0,l),
(586,210,l),
(562,210,l),
(416,47,l),
(416,0,l)
);
}
);
width = 610;
},
{
associatedMasterId = m01;
layerId = "FA5F01A1-AAEA-4980-95F4-30149947AB57";
name = "15 Nov 23 at 14:11";
shapes = (
{
closed = 1;
nodes = (
(205,0,l),
(205,615,l),
(294,674,l),
(294,690,l),
(30,690,l),
(30,674,l),
(109,615,l),
(109,75,l),
(30,16,l),
(30,0,l)
);
},
{
closed = 1;
nodes = (
(538,0,l),
(538,59,l),
(187,43,l),
(187,0,l)
);
},
{
closed = 1;
nodes = (
(548,0,l),
(553,183,l),
(537,183,l),
(415,41,l),
(415,0,l)
);
}
);
width = 598;
},
{
associatedMasterId = m002;
layerId = "A0EA7F1D-50A2-440A-8B7F-DF0EB84C0D8E";
name = "15 Nov 23 at 14:14";
shapes = (
{
closed = 1;
nodes = (
(291,0,l),
(291,597,l),
(360,666,l),
(360,690,l),
(26,690,l),
(26,666,l),
(95,597,l),
(95,93,l),
(26,24,l),
(26,0,l)
);
},
{
closed = 1;
nodes = (
(559,0,l),
(559,75,l),
(233,48,l),
(233,0,l)
);
},
{
closed = 1;
nodes = (
(588,0,l),
(588,215,l),
(561,215,l),
(418,47,l),
(418,0,l)
);
}
);
width = 620;
},
{
anchors = (
{
name = bottom;
pos = (299,0);
},
{
name = center;
pos = (157,335);
},
{
name = top;
pos = (159,690);
},
{
name = topright;
pos = (324,690);
}
);
associatedMasterId = m01;
layerId = "83038919-DA28-4B49-9469-9E19952CC4D7";
name = "1 May 24 at 14:02";
shapes = (
{
closed = 1;
nodes = (
(205,0,l),
(205,615,l),
(294,674,l),
(294,690,l),
(30,690,l),
(30,674,l),
(109,615,l),
(109,75,l),
(30,16,l),
(30,0,l)
);
},
{
closed = 1;
nodes = (
(538,0,l),
(538,59,l),
(187,43,l),
(187,0,l)
);
},
{
closed = 1;
nodes = (
(548,0,l),
(553,184,l),
(537,184,l),
(413,41,l),
(413,0,l)
);
}
);
width = 598;
},
{
anchors = (
{
name = bottom;
pos = (310,0);
},
{
name = center;
pos = (193,336);
},
{
name = top;
pos = (189,690);
},
{
name = topright;
pos = (393,690);
}
);
associatedMasterId = m002;
layerId = "CCDC97EA-B824-478F-ABA1-22B3473CFD1A";
name = "1 May 24 at 14:02";
shapes = (
{
closed = 1;
nodes = (
(291,0,l),
(291,597,l),
(360,666,l),
(360,690,l),
(26,690,l),
(26,666,l),
(95,597,l),
(95,93,l),
(26,24,l),
(26,0,l)
);
},
{
closed = 1;
nodes = (
(559,0,l),
(559,75,l),
(233,48,l),
(233,0,l)
);
},
{
closed = 1;
nodes = (
(588,0,l),
(588,220,l),
(561,220,l),
(403,47,l),
(403,0,l)
);
}
);
width = 620;
}
);
metricLeft = "=H";
metricRight = "=O";
unicode = 76;
userData = {
KernOnName = L;
};
},
{
color = 9;
glyphname = Lbelt;
kernRight = KO_L;
lastChange = "2024-05-06 01:18:14 +0000";
layers = (
{
guides = (
{
angle = 90;
pos = (104,334);
},
{
angle = 180;
pos = (104,420);
}
);
layerId = m01;
shapes = (
{
closed = 1;
nodes = (
(452,259,l),
(452,314,l),
(138,314,ls),
(86,314,o),
(57,335,o),
(57,373,cs),
(57,406,o),
(83,432,o),
(116,432,cs),
(149,432,o),
(175,406,o),
(175,373,c),
(230,373,l),
(230,436,o),
(179,487,o),
(116,487,cs),
(53,487,o),
(2,436,o),
(2,373,cs),
(2,303,o),
(54,259,o),
(138,259,cs)
);
},
{
pos = (66,0);
ref = L;
}
);
width = 664;
},
{
guides = (
{
angle = 270;
pos = (126,491);
},
{
pos = (0,370);
}
);
layerId = m002;
shapes = (
{
closed = 1;
nodes = (
(508,249,l),
(508,314,l),
(143,314,ls),
(92,314,o),
(67,333,o),
(67,370,cs),
(67,401,o),
(92,426,o),
(123,426,cs),
(154,426,o),
(179,401,o),
(179,370,c),
(244,370,l),
(244,437,o),
(190,491,o),
(123,491,cs),
(56,491,o),
(2,437,o),
(2,370,cs),
(2,296,o),
(56,249,o),
(143,249,c)
);
},
{
pos = (84,0);
ref = L;
}
);
width = 704;
}
);
metricLeft = "=V";
metricRight = "=L";
unicode = 42925;
userData = {
KernOnName = Lbelt;
};
},
{
glyphname = Ldot;
kernLeft = KO_H;
lastChange = "2024-05-05 07:45:00 +0000";
layers = (
{
layerId = m01;
shapes = (
{
ref = L;
},
{
closed = 1;
nodes = (
(500,273,o),
(531,303,o),
(531,345,cs),
(531,387,o),
(500,417,o),
(455,417,cs),
(410,417,o),
(379,387,o),
(379,345,cs),
(379,303,o),
(410,273,o),
(455,273,cs)
);
}
);
width = 598;
},
{
layerId = m002;
shapes = (
{
ref = L;
},
{
closed = 1;
nodes = (
(561,244,o),
(612,288,o),
(612,345,cs),
(612,402,o),
(561,446,o),
(497,446,cs),
(433,446,o),
(382,402,o),
(382,345,cs),
(382,288,o),
(433,244,o),
(497,244,cs)
);
}
);
width = 620;
}
);
metricLeft = "=L";
unicode = 319;
userData = {
KernOnSpecialSpacing = {
R = NoKerning;
};
};
},
{
color = 4;
glyphname = M;
kernLeft = KO_M;
kernRight = KO_M;
lastChange = "2024-05-05 07:53:39 +0000";
layers = (
{
anchors = (
{
name = bottom;
pos = (437,0);
},
{
name = top;
pos = (465,690);
}
);
guides = (
{
pos = (496,589);
},
{
pos = (804,615);
}
);
layerId = m01;
shapes = (
{
closed = 1;
nodes = (
(463,0,l),
(712,590,l),
(756,75,l),
(677,16,l),
(677,0,l),
(927,0,l),
(927,16,l),
(848,75,l),
(802,615,l),
(881,674,l),
(881,690,l),
(673,690,l),
(472,131,l),
(236,690,l),
(56,690,l),
(56,674,l),
(132,615,l),
(81,75,l),
(2,16,l),
(2,0,l),
(230,0,l),
(230,16,l),
(151,75,l),
(179,589,l),
(428,0,l)
);
}
);
width = 929;
},
{
anchors = (
{
name = bottom;
pos = (465,0);
},
{
name = top;
pos = (509,690);
}
);
guides = (
{
pos = (514,538);
}
);
layerId = m002;
shapes = (
{
closed = 1;
nodes = (
(517,0,l),
(710,517,l),
(752,93,l),
(683,24,l),
(683,0,l),
(1015,0,l),
(1015,24,l),
(946,93,l),
(896,597,l),
(965,666,l),
(965,690,l),
(658,690,l),
(535,184,l),
(320,690,l),
(62,690,l),
(62,666,l),
(143,599,l),
(71,93,l),
(2,24,l),
(2,0,l),
(250,0,l),
(250,24,l),
(181,93,l),
(189,523,l),
(411,0,l)
);
}
);
width = 1017;
},
{
associatedMasterId = m01;
background = {
shapes = (
{
closed = 1;
nodes = (
(64,690,l),
(64,674,l),
(143,615,l),
(117,75,l),
(38,16,l),
(38,0,l),
(288,0,l),
(288,16,l),
(209,75,l),
(239,690,l)
);
}
);
};
guides = (
{
pos = (526,607);
}
);
layerId = "A35FF27A-F6CF-421F-968E-A83003DF6D8E";
name = "29 Oct 23 at 19:15";
shapes = (
{
closed = 1;
nodes = (
(446,-5,l),
(479,-5,l),
(772,690,l),
(676,690,l),
(473,82,l),
(509,82,l),
(252,690,l),
(152,690,l)
);
},
{
closed = 1;
nodes = (
(763,75,l),
(684,16,l),
(684,0,l),
(934,0,l),
(934,16,l),
(855,75,l),
(829,615,l),
(908,674,l),
(908,690,l),
(733,690,l)
);
},
{
closed = 1;
nodes = (
(62,690,l),
(62,674,l),
(147,604,l),
(139,627,l),
(107,75,l),
(28,16,l),
(28,0,l),
(264,0,l),
(264,16,l),
(185,75,l),
(188,690,l)
);
}
);
width = 962;
},
{
associatedMasterId = m002;
guides = (
{
pos = (521,538);
}
);
layerId = "D0EDFFC6-C820-4774-A152-49158C1AF072";
name = "10 Nov 23 at 21:39";
shapes = (
{
closed = 1;
nodes = (
(501,0,l),
(782,690,l),
(665,690,l),
(510,147,l),
(546,147,l),
(326,690,l),
(125,690,l),
(405,0,l)
);
},
{
closed = 1;
nodes = (
(263,0,l),
(263,24,l),
(194,93,l),
(184,690,l),
(52,690,l),
(52,666,l),
(138,594,l),
(132,630,l),
(71,93,l),
(2,24,l),
(2,0,l)
);
},
{
closed = 1;
nodes = (
(1009,0,l),
(1009,24,l),
(940,93,l),
(900,597,l),
(969,666,l),
(969,690,l),
(704,690,l),
(744,93,l),
(675,24,l),
(675,0,l)
);
}
);
width = 1011;
},
{
associatedMasterId = m01;
background = {
shapes = (
{
closed = 1;
nodes = (
(48,690,l),
(48,674,l),
(127,615,l),
(101,75,l),
(22,16,l),
(22,0,l),
(272,0,l),
(272,16,l),
(193,75,l),
(223,690,l)
);
}
);
};
guides = (
{
pos = (496,589);
},
{
pos = (804,615);
}
);
layerId = "6A960BD2-4B81-4B7F-BB52-DC7D09D5A3E6";
name = "10 Nov 23 at 22:14";
shapes = (
{
closed = 1;
nodes = (
(463,-5,l),
(756,690,l),
(675,690,l),
(457,82,l),
(493,82,l),
(236,690,l),
(136,690,l),
(430,-5,l)
);
},
{
closed = 1;
nodes = (
(238,0,l),
(238,16,l),
(159,75,l),
(182,690,l),
(56,690,l),
(56,674,l),
(141,608,l),
(133,627,l),
(81,75,l),
(2,16,l),
(2,0,l)
);
},
{
closed = 1;
nodes = (
(929,0,l),
(929,16,l),
(850,75,l),
(804,615,l),
(883,674,l),
(883,690,l),
(705,690,l),
(758,75,l),
(679,16,l),
(679,0,l)
);
}
);
width = 931;
},
{
associatedMasterId = m002;
guides = (
{
pos = (531,538);
}
);
layerId = "8138F81F-07CC-4424-837C-ABD87AE3FFA1";
name = "10 Nov 23 at 22:19";
shapes = (
{
closed = 1;
nodes = (
(521,0,l),
(792,690,l),
(675,690,l),
(530,147,l),
(556,147,l),
(336,690,l),
(135,690,l),
(415,0,l)
);
},
{
closed = 1;
nodes = (
(263,0,l),
(263,24,l),
(194,93,l),
(194,690,l),
(62,690,l),
(62,666,l),
(148,594,l),
(142,630,l),
(71,93,l),
(2,24,l),
(2,0,l)
);
},
{
closed = 1;
nodes = (
(1029,0,l),
(1029,24,l),
(960,93,l),
(910,597,l),
(979,666,l),
(979,690,l),
(707,690,l),
(766,93,l),
(697,24,l),
(697,0,l)
);
}
);
width = 1031;
},
{
associatedMasterId = m01;
background = {
shapes = (
{
closed = 1;
nodes = (
(48,690,l),
(48,674,l),
(127,615,l),
(101,75,l),
(22,16,l),
(22,0,l),
(272,0,l),
(272,16,l),
(193,75,l),
(223,690,l)
);
}
);
};
guides = (
{
pos = (496,589);
},
{
pos = (804,615);
}
);
layerId = "EB9ABAD3-2FEE-40B2-A52B-613F01931D1A";
name = "13 Nov 23 at 16:36";
shapes = (
{
closed = 1;
nodes = (
(463,0,l),
(754,690,l),
(673,690,l),
(455,82,l),
(493,82,l),
(236,690,l),
(136,690,l),
(428,0,l)
);
},
{
closed = 1;
nodes = (
(230,0,l),
(230,16,l),
(151,75,l),
(184,690,l),
(56,690,l),
(56,674,l),
(141,608,l),
(133,627,l),
(81,75,l),
(2,16,l),
(2,0,l)
);
},
{
closed = 1;
nodes = (
(927,0,l),
(927,16,l),
(848,75,l),
(802,615,l),
(881,674,l),
(881,690,l),
(703,690,l),
(756,75,l),
(677,16,l),
(677,0,l)
);
}
);
width = 929;
},
{
associatedMasterId = m002;
guides = (
{
pos = (521,538);
}
);
layerId = "C9FD38CF-7D32-49B2-8106-DAB9C7D93A95";
name = "13 Nov 23 at 16:36";
shapes = (
{
closed = 1;
nodes = (
(524,0,l),
(782,690,l),
(665,690,l),
(533,147,l),
(558,147,l),
(327,690,l),
(125,690,l),
(418,0,l)
);
},
{
closed = 1;
nodes = (
(240,0,l),
(240,24,l),
(171,93,l),
(212,690,l),
(62,690,l),
(62,666,l),
(148,594,l),
(142,630,l),
(71,93,l),
(2,24,l),
(2,0,l)
);
},
{
closed = 1;
nodes = (
(1019,0,l),
(1019,24,l),
(950,93,l),
(900,597,l),
(969,666,l),
(969,690,l),
(697,690,l),
(756,93,l),
(687,24,l),
(687,0,l)
);
}
);
width = 1021;
},
{
anchors = (
{
name = bottom;
pos = (437,0);
},
{
name = top;
pos = (465,690);
}
);
associatedMasterId = m01;
background = {
shapes = (
{
closed = 1;
nodes = (
(48,690,l),
(48,674,l),
(127,615,l),
(101,75,l),
(22,16,l),
(22,0,l),
(272,0,l),
(272,16,l),
(193,75,l),
(223,690,l)
);
}
);
};
guides = (
{
pos = (496,589);
},
{
pos = (804,615);
}
);
layerId = "99966E6B-D701-41BC-A427-3D6D221AABF4";
name = "1 May 24 at 14:02";
shapes = (
{
closed = 1;
nodes = (
(463,0,l),
(754,690,l),
(673,690,l),
(455,82,l),
(493,82,l),
(236,690,l),
(136,690,l),
(428,0,l)
);
},
{
closed = 1;
nodes = (
(230,0,l),
(230,16,l),
(151,75,l),
(184,690,l),
(56,690,l),
(56,674,l),
(141,608,l),
(133,627,l),
(81,75,l),
(2,16,l),
(2,0,l)
);
},
{
closed = 1;
nodes = (
(927,0,l),
(927,16,l),
(848,75,l),
(802,615,l),
(881,674,l),
(881,690,l),
(703,690,l),
(756,75,l),
(677,16,l),
(677,0,l)
);
}
);
width = 929;
},
{
anchors = (
{
name = bottom;
pos = (465,0);
},
{
name = top;
pos = (509,690);
}
);
associatedMasterId = m002;
guides = (
{
pos = (514,538);
}
);
layerId = "F9D6D5E5-0A15-424A-922D-B4313116321C";
name = "1 May 24 at 14:02";
shapes = (
{
closed = 1;
nodes = (
(517,0,l),
(775,690,l),
(658,690,l),
(526,147,l),
(551,147,l),
(320,690,l),
(118,690,l),
(411,0,l)
);
},
{
closed = 1;
nodes = (
(250,0,l),
(250,24,l),
(181,93,l),
(192,690,l),
(62,690,l),
(62,666,l),
(148,594,l),
(147,630,l),
(71,93,l),
(2,24,l),
(2,0,l)
);
},
{
closed = 1;
nodes = (
(1015,0,l),
(1015,24,l),
(946,93,l),
(896,597,l),
(965,666,l),
(965,690,l),
(693,690,l),
(752,93,l),
(683,24,l),
(683,0,l)
);
}
);
width = 1017;
}
);
metricLeft = "=V";
metricRight = "=V";
unicode = 77;
},
{
color = 9;
glyphname = Mturned;
lastChange = "2024-04-28 10:41:31 +0000";
layers = (
{
layerId = m01;
shapes = (
{
closed = 1;
nodes = (
(693,-12,o),
(769,29,o),
(805,87,c),
(820,87,l),
(820,168,l),
(778,94,o),
(728,62,o),
(657,62,cs),
(574,62,o),
(538,105,o),
(538,203,cs),
(538,615,l),
(617,674,l),
(617,690,l),
(363,690,l),
(363,674,l),
(442,615,l),
(442,176,ls),
(442,66,o),
(516,-12,o),
(622,-12,cs)
);
},
{
closed = 1;
nodes = (
(340,-12,o),
(419,29,o),
(455,87,c),
(470,87,l),
(470,168,l),
(431,100,o),
(370,62,o),
(299,62,cs),
(214,62,o),
(177,105,o),
(177,203,cs),
(177,615,l),
(256,674,l),
(256,690,l),
(2,690,l),
(2,674,l),
(81,615,l),
(81,176,ls),
(81,66,o),
(157,-12,o),
(264,-12,cs)
);
},
{
closed = 1;
nodes = (
(501,113,l),
(501,278,l),
(442,278,l),
(442,113,l)
);
},
{
closed = 1;
nodes = (
(867,-12,l),
(972,48,l),
(972,65,l),
(858,148,l),
(899,81,l),
(899,615,l),
(978,674,l),
(978,690,l),
(724,690,l),
(724,674,l),
(803,615,l),
(803,87,l),
(812,87,l),
(850,-12,l)
);
}
);
width = 1000;
},
{
layerId = m002;
shapes = (
{
closed = 1;
nodes = (
(782,-16,o),
(855,23,o),
(904,102,c),
(914,102,l),
(914,178,l),
(892,143,o),
(854,123,o),
(807,123,cs),
(726,123,o),
(681,171,o),
(681,257,cs),
(681,597,l),
(750,666,l),
(750,690,l),
(416,690,l),
(416,666,l),
(485,597,l),
(485,187,ls),
(485,68,o),
(568,-16,o),
(686,-16,cs)
);
},
{
closed = 1;
nodes = (
(373,-16,o),
(447,23,o),
(496,102,c),
(506,102,l),
(506,178,l),
(485,144,o),
(441,123,o),
(393,123,cs),
(312,123,o),
(267,171,o),
(267,257,cs),
(267,597,l),
(336,666,l),
(336,690,l),
(2,690,l),
(2,666,l),
(71,597,l),
(71,187,ls),
(71,68,o),
(154,-16,o),
(272,-16,cs)
);
},
{
closed = 1;
nodes = (
(577,136,l),
(577,314,l),
(485,314,l),
(485,136,l)
);
},
{
closed = 1;
nodes = (
(991,-13,l),
(1167,53,l),
(1167,77,l),
(1052,193,l),
(1095,105,l),
(1095,597,l),
(1164,666,l),
(1164,690,l),
(830,690,l),
(830,666,l),
(899,597,l),
(899,100,l),
(909,100,l),
(964,-13,l)
);
}
);
width = 1177;
}
);
metricLeft = "=U";
metricRight = "=m";
unicode = 412;
},
{
color = 4;
glyphname = N;
kernLeft = KO_N;
kernRight = KO_N;
lastChange = "2024-05-06 01:18:14 +0000";
layers = (
{
associatedMasterId = m002;
layerId = "C9785D2C-8C7B-4B77-A376-E6F4F89E83C4";
name = "2 Nov 23 at 15:38";
shapes = (
{
closed = 1;
nodes = (
(725,0,l),
(764,597,l),
(833,666,l),
(833,690,l),
(565,690,l),
(565,666,l),
(634,597,l),
(680,93,l),
(670,205,l),
(256,690,l),
(135,690,l),
(135,545,l),
(601,0,l)
);
},
{
closed = 1;
nodes = (
(283,0,l),
(283,24,l),
(214,93,l),
(155,690,l),
(29,690,l),
(29,666,l),
(112,587,l),
(85,93,l),
(16,24,l),
(16,0,l)
);
}
);
width = 819;
},
{
associatedMasterId = m002;
layerId = "A22307AB-9EF1-4FE6-9EB7-844E9B216E9F";
name = "2 Nov 23 at 15:38";
shapes = (
{
closed = 1;
nodes = (
(725,0,l),
(764,597,l),
(833,666,l),
(833,690,l),
(565,690,l),
(565,666,l),
(634,597,l),
(680,93,l),
(670,205,l),
(256,690,l),
(135,690,l),
(135,545,l),
(601,0,l)
);
},
{
closed = 1;
nodes = (
(283,0,l),
(283,24,l),
(214,93,l),
(156,690,l),
(29,690,l),
(29,666,l),
(111,587,l),
(85,93,l),
(16,24,l),
(16,0,l)
);
}
);
width = 819;
},
{
anchors = (
{
name = bottom;
pos = (383,0);
},
{
name = top;
pos = (383,690);
}
);
guides = (
{
angle = 90;
pos = (201,86);
},
{
angle = 90;
pos = (72,45);
}
);
layerId = m002;
name = "Extra Bold";
shapes = (
{
closed = 1;
nodes = (
(674,0,l),
(674,597,l),
(743,666,l),
(743,690,l),
(495,690,l),
(495,666,l),
(564,597,l),
(616,233,l),
(252,690,l),
(36,690,l),
(36,666,l),
(118,569,l),
(95,93,l),
(26,24,l),
(26,0,l),
(274,0,l),
(274,24,l),
(205,93,l),
(170,500,l),
(568,0,l)
);
}
);
width = 769;
},
{
associatedMasterId = m002;
layerId = "04F9CF93-04B6-4E7B-924E-42F68E5A8DDE";
name = "2 Nov 23 at 15:51";
shapes = (
{
closed = 1;
nodes = (
(704,0,l),
(748,597,l),
(817,666,l),
(817,690,l),
(549,690,l),
(549,666,l),
(618,597,l),
(667,93,l),
(679,153,l),
(286,690,l),
(141,690,l),
(141,573,l),
(561,0,l)
);
},
{
closed = 1;
nodes = (
(293,0,l),
(293,24,l),
(224,93,l),
(165,690,l),
(45,690,l),
(45,666,l),
(132,598,l),
(95,93,l),
(26,24,l),
(26,0,l)
);
}
);
width = 843;
},
{
associatedMasterId = m01;
guides = (
{
angle = 270;
pos = (27,8);
}
);
layerId = "2066F6C5-EBCF-4456-9ED7-322507269080";
name = "3 Nov 23 at 09:46";
shapes = (
{
closed = 1;
nodes = (
(668,-6,l),
(668,615,l),
(747,674,l),
(747,690,l),
(511,690,l),
(511,674,l),
(590,615,l),
(619,129,l),
(637,129,l),
(184,690,l),
(143,690,l),
(143,603,l),
(636,-6,l)
);
},
{
closed = 1;
nodes = (
(264,0,l),
(264,16,l),
(185,75,l),
(167,690,l),
(35,690,l),
(35,674,l),
(117,615,l),
(107,75,l),
(28,16,l),
(28,0,l)
);
}
);
width = 769;
},
{
anchors = (
{
name = bottom;
pos = (366,0);
},
{
name = top;
pos = (366,690);
}
);
guides = (
{
angle = 270;
pos = (24,8);
}
);
layerId = m01;
name = Light;
shapes = (
{
closed = 1;
nodes = (
(625,-6,l),
(625,615,l),
(704,674,l),
(704,690,l),
(464,690,l),
(464,674,l),
(543,615,l),
(579,160,l),
(166,690,l),
(52,690,l),
(52,674,l),
(121,597,l),
(109,75,l),
(30,16,l),
(30,0,l),
(270,0,l),
(270,16,l),
(191,75,l),
(166,544,l),
(593,-6,l)
);
}
);
width = 734;
},
{
associatedMasterId = m002;
layerId = "599BE11E-0F37-48A7-B5E7-DA03F58A7ED8";
name = "3 Nov 23 at 09:46";
shapes = (
{
closed = 1;
nodes = (
(719,0,l),
(763,597,l),
(832,666,l),
(832,690,l),
(564,690,l),
(564,666,l),
(633,597,l),
(682,93,l),
(694,153,l),
(286,690,l),
(141,690,l),
(141,573,l),
(576,0,l)
);
},
{
closed = 1;
nodes = (
(293,0,l),
(293,24,l),
(224,93,l),
(165,690,l),
(45,690,l),
(45,666,l),
(132,598,l),
(95,93,l),
(26,24,l),
(26,0,l)
);
}
);
width = 858;
},
{
associatedMasterId = m01;
guides = (
{
angle = 270;
pos = (27,8);
}
);
layerId = "218D756E-D98D-4218-8FC4-C84E7A8D95DF";
name = "10 Nov 23 at 21:35";
shapes = (
{
closed = 1;
nodes = (
(645,-6,l),
(662,615,l),
(741,674,l),
(741,690,l),
(505,690,l),
(505,674,l),
(584,615,l),
(595,129,l),
(618,129,l),
(185,690,l),
(143,690,l),
(143,603,l),
(613,-6,l)
);
},
{
closed = 1;
nodes = (
(264,0,l),
(264,16,l),
(185,75,l),
(167,690,l),
(35,690,l),
(35,674,l),
(117,615,l),
(107,75,l),
(28,16,l),
(28,0,l)
);
}
);
width = 769;
},
{
associatedMasterId = m002;
layerId = "B99FD959-1B61-4E8C-AF22-BF5F802E8791";
name = "10 Nov 23 at 21:39";
shapes = (
{
closed = 1;
nodes = (
(719,0,l),
(757,597,l),
(826,666,l),
(826,690,l),
(558,690,l),
(558,666,l),
(627,597,l),
(680,93,l),
(694,153,l),
(286,690,l),
(141,690,l),
(141,573,l),
(576,0,l)
);
},
{
closed = 1;
nodes = (
(293,0,l),
(293,24,l),
(224,93,l),
(165,690,l),
(45,690,l),
(45,666,l),
(132,598,l),
(95,93,l),
(26,24,l),
(26,0,l)
);
}
);
width = 852;
},
{
associatedMasterId = m01;
guides = (
{
angle = 270;
pos = (27,8);
}
);
layerId = "A730C60F-98B5-4D3F-BC71-F5A83E47289F";
name = "10 Nov 23 at 22:06";
shapes = (
{
closed = 1;
nodes = (
(630,-6,l),
(647,615,l),
(726,674,l),
(726,690,l),
(490,690,l),
(490,674,l),
(569,615,l),
(580,129,l),
(612,129,l),
(193,690,l),
(143,690,l),
(143,603,l),
(598,-6,l)
);
},
{
closed = 1;
nodes = (
(264,0,l),
(264,16,l),
(185,75,l),
(167,690,l),
(35,690,l),
(35,674,l),
(117,615,l),
(107,75,l),
(28,16,l),
(28,0,l)
);
}
);
width = 754;
},
{
associatedMasterId = m002;
guides = (
{
angle = 90;
pos = (227,86);
},
{
angle = 90;
pos = (98,45);
}
);
layerId = "E585A2E5-4034-4EFF-9424-8A100E5B6C19";
name = "10 Nov 23 at 22:14";
shapes = (
{
closed = 1;
nodes = (
(678,0,l),
(729,597,l),
(798,666,l),
(798,690,l),
(530,690,l),
(530,666,l),
(599,597,l),
(639,93,l),
(672,173,l),
(270,690,l),
(136,690,l),
(136,561,l),
(572,0,l)
);
},
{
closed = 1;
nodes = (
(293,0,l),
(293,24,l),
(224,93,l),
(165,690,l),
(45,690,l),
(45,666,l),
(132,598,l),
(95,93,l),
(26,24,l),
(26,0,l)
);
}
);
width = 824;
},
{
associatedMasterId = m01;
guides = (
{
angle = 270;
pos = (17,8);
}
);
layerId = "15D7D660-810A-4A30-BE74-BB325349B147";
name = "10 Nov 23 at 22:48";
shapes = (
{
closed = 1;
nodes = (
(620,-6,l),
(620,615,l),
(699,674,l),
(699,690,l),
(478,690,l),
(478,674,l),
(557,615,l),
(557,129,l),
(602,129,l),
(183,690,l),
(133,690,l),
(133,603,l),
(588,-6,l)
);
},
{
closed = 1;
nodes = (
(249,0,l),
(249,16,l),
(170,75,l),
(170,690,l),
(28,690,l),
(28,674,l),
(107,615,l),
(107,75,l),
(28,16,l),
(28,0,l)
);
}
);
width = 727;
},
{
associatedMasterId = m002;
guides = (
{
angle = 90;
pos = (220,86);
},
{
angle = 90;
pos = (91,45);
}
);
layerId = "C5516F5E-E8B6-4233-8656-E6BC8457A146";
name = "13 Nov 23 at 16:27";
shapes = (
{
closed = 1;
nodes = (
(705,0,l),
(705,597,l),
(774,666,l),
(774,690,l),
(536,690,l),
(536,666,l),
(605,597,l),
(605,122,l),
(696,173,l),
(262,690,l),
(129,690,l),
(129,561,l),
(599,0,l)
);
},
{
closed = 1;
nodes = (
(264,0,l),
(264,24,l),
(195,93,l),
(195,690,l),
(26,690,l),
(26,666,l),
(95,597,l),
(95,93,l),
(26,24,l),
(26,0,l)
);
}
);
width = 800;
},
{
associatedMasterId = m01;
guides = (
{
angle = 270;
pos = (19,8);
}
);
layerId = "6ACE3F8D-94DE-4E51-9BC4-319113DC1769";
name = "13 Nov 23 at 16:27";
shapes = (
{
closed = 1;
nodes = (
(633,-6,l),
(633,615,l),
(712,674,l),
(712,690,l),
(491,690,l),
(491,674,l),
(570,615,l),
(570,129,l),
(614,129,l),
(184,690,l),
(135,690,l),
(135,603,l),
(601,-6,l)
);
},
{
closed = 1;
nodes = (
(251,0,l),
(251,16,l),
(172,75,l),
(172,690,l),
(30,690,l),
(30,674,l),
(109,615,l),
(109,75,l),
(30,16,l),
(30,0,l)
);
}
);
width = 742;
},
{
associatedMasterId = m002;
guides = (
{
angle = 90;
pos = (202,86);
},
{
angle = 90;
pos = (73,45);
}
);
layerId = "B116CB02-F9E0-4A8D-9FA3-47AC5AF48E37";
name = "13 Nov 23 at 17:08";
shapes = (
{
closed = 1;
nodes = (
(687,0,l),
(687,597,l),
(756,666,l),
(756,690,l),
(508,690,l),
(508,666,l),
(577,597,l),
(635,122,l),
(678,173,l),
(244,690,l),
(126,690,l),
(126,543,l),
(581,0,l)
);
},
{
closed = 1;
nodes = (
(274,0,l),
(274,24,l),
(205,93,l),
(161,690,l),
(30,690,l),
(30,666,l),
(115,594,l),
(95,93,l),
(26,24,l),
(26,0,l)
);
}
);
width = 782;
},
{
associatedMasterId = m01;
guides = (
{
angle = 270;
pos = (27,8);
}
);
layerId = "C1468CE8-6B06-4AD8-8E8A-8C9846EE1F36";
name = "13 Nov 23 at 17:09";
shapes = (
{
closed = 1;
nodes = (
(633,-6,l),
(633,615,l),
(712,674,l),
(712,690,l),
(472,690,l),
(472,674,l),
(551,615,l),
(586,129,l),
(614,129,l),
(193,690,l),
(143,690,l),
(143,603,l),
(601,-6,l)
);
},
{
closed = 1;
nodes = (
(270,0,l),
(270,16,l),
(191,75,l),
(165,690,l),
(43,690,l),
(43,674,l),
(122,615,l),
(109,75,l),
(30,16,l),
(30,0,l)
);
}
);
width = 742;
},
{
associatedMasterId = m01;
guides = (
{
angle = 270;
pos = (27,8);
}
);
layerId = "1FBC46CB-C0DB-43DE-BC11-AB85A7F6C4C2";
name = "15 Nov 23 at 14:35";
shapes = (
{
closed = 1;
nodes = (
(628,-6,l),
(628,615,l),
(707,674,l),
(707,690,l),
(467,690,l),
(467,674,l),
(546,615,l),
(581,129,l),
(610,129,l),
(193,690,l),
(143,690,l),
(143,603,l),
(596,-6,l)
);
},
{
closed = 1;
nodes = (
(270,0,l),
(270,16,l),
(191,75,l),
(165,690,l),
(43,690,l),
(43,674,l),
(122,615,l),
(109,75,l),
(30,16,l),
(30,0,l)
);
}
);
width = 737;
},
{
associatedMasterId = m002;
guides = (
{
angle = 90;
pos = (204,86);
},
{
angle = 90;
pos = (75,45);
}
);
layerId = "75B99FDB-222C-43B2-BC88-B6107019A6AF";
name = "15 Nov 23 at 14:36";
shapes = (
{
closed = 1;
nodes = (
(677,0,l),
(677,597,l),
(746,666,l),
(746,690,l),
(498,690,l),
(498,666,l),
(567,597,l),
(627,122,l),
(669,173,l),
(247,690,l),
(128,690,l),
(128,543,l),
(571,0,l)
);
},
{
closed = 1;
nodes = (
(274,0,l),
(274,24,l),
(205,93,l),
(161,690,l),
(32,690,l),
(32,666,l),
(117,594,l),
(95,93,l),
(26,24,l),
(26,0,l)
);
}
);
width = 772;
},
{
associatedMasterId = m002;
guides = (
{
angle = 90;
pos = (204,86);
},
{
angle = 90;
pos = (75,45);
}
);
layerId = "37D366DD-4016-455A-A147-2E06A91FE919";
name = "17 Nov 23 at 14:06";
shapes = (
{
closed = 1;
nodes = (
(677,0,l),
(677,597,l),
(746,666,l),
(746,690,l),
(498,690,l),
(498,666,l),
(567,597,l),
(635,122,l),
(666,173,l),
(244,690,l),
(128,690,l),
(128,543,l),
(571,0,l)
);
},
{
closed = 1;
nodes = (
(274,0,l),
(274,24,l),
(205,93,l),
(156,690,l),
(34,690,l),
(34,666,l),
(119,594,l),
(95,93,l),
(26,24,l),
(26,0,l)
);
}
);
width = 772;
},
{
associatedMasterId = m01;
guides = (
{
angle = 270;
pos = (26,8);
}
);
layerId = "FE699A44-C19B-4044-85C1-1E6185BA836E";
name = "17 Nov 23 at 14:07";
shapes = (
{
closed = 1;
nodes = (
(627,-6,l),
(627,615,l),
(706,674,l),
(706,690,l),
(466,690,l),
(466,674,l),
(545,615,l),
(584,129,l),
(607,129,l),
(190,690,l),
(142,690,l),
(142,603,l),
(595,-6,l)
);
},
{
closed = 1;
nodes = (
(270,0,l),
(270,16,l),
(191,75,l),
(161,690,l),
(44,690,l),
(44,674,l),
(123,615,l),
(109,75,l),
(30,16,l),
(30,0,l)
);
}
);
width = 736;
},
{
associatedMasterId = m01;
guides = (
{
angle = 270;
pos = (26,8);
}
);
layerId = "63F6AE1A-4288-40D4-B6BA-9866E9FFEC26";
name = "18 Nov 23 at 13:57";
shapes = (
{
closed = 1;
nodes = (
(627,-6,l),
(627,615,l),
(706,674,l),
(706,690,l),
(466,690,l),
(466,674,l),
(545,615,l),
(584,129,l),
(607,129,l),
(190,690,l),
(142,690,l),
(142,603,l),
(595,-6,l)
);
},
{
closed = 1;
nodes = (
(270,0,l),
(270,16,l),
(191,75,l),
(161,690,l),
(54,690,l),
(54,674,l),
(123,611,l),
(109,75,l),
(30,16,l),
(30,0,l)
);
}
);
width = 736;
},
{
associatedMasterId = m002;
guides = (
{
angle = 90;
pos = (204,86);
},
{
angle = 90;
pos = (75,45);
}
);
layerId = "BD00CBDC-27A5-4194-92F2-D36322418713";
name = "18 Nov 23 at 13:59";
shapes = (
{
closed = 1;
nodes = (
(677,0,l),
(677,597,l),
(746,666,l),
(746,690,l),
(498,690,l),
(498,666,l),
(567,597,l),
(635,122,l),
(666,173,l),
(244,690,l),
(128,690,l),
(128,543,l),
(571,0,l)
);
},
{
closed = 1;
nodes = (
(274,0,l),
(274,24,l),
(205,93,l),
(156,690,l),
(34,690,l),
(34,666,l),
(119,566,l),
(95,93,l),
(26,24,l),
(26,0,l)
);
}
);
width = 772;
},
{
anchors = (
{
name = bottom;
pos = (366,0);
},
{
name = top;
pos = (366,690);
}
);
associatedMasterId = m01;
guides = (
{
angle = 270;
pos = (24,8);
}
);
layerId = "70D2CD37-2C69-4532-8265-CE4B42A5FB38";
name = "1 May 24 at 14:05";
shapes = (
{
closed = 1;
nodes = (
(625,-6,l),
(625,615,l),
(704,674,l),
(704,690,l),
(464,690,l),
(464,674,l),
(543,615,l),
(581,129,l),
(603,129,l),
(166,690,l),
(134,690,l),
(134,585,l),
(593,-6,l)
);
},
{
closed = 1;
nodes = (
(270,0,l),
(270,16,l),
(191,75,l),
(158,690,l),
(52,690,l),
(52,674,l),
(121,597,l),
(109,75,l),
(30,16,l),
(30,0,l)
);
}
);
width = 734;
},
{
anchors = (
{
name = bottom;
pos = (383,0);
},
{
name = top;
pos = (383,690);
}
);
associatedMasterId = m002;
guides = (
{
angle = 90;
pos = (201,86);
},
{
angle = 90;
pos = (72,45);
}
);
layerId = "25B9C614-2C9C-42DB-A0F0-12F40FE8C44C";
name = "1 May 24 at 14:05";
shapes = (
{
closed = 1;
nodes = (
(674,0,l),
(674,597,l),
(743,666,l),
(743,690,l),
(495,690,l),
(495,666,l),
(564,597,l),
(632,122,l),
(664,173,l),
(252,690,l),
(135,690,l),
(135,543,l),
(568,0,l)
);
},
{
closed = 1;
nodes = (
(274,0,l),
(274,24,l),
(205,93,l),
(153,690,l),
(36,690,l),
(36,666,l),
(118,569,l),
(95,93,l),
(26,24,l),
(26,0,l)
);
}
);
width = 769;
}
);
metricLeft = "=H";
metricRight = "=H";
unicode = 78;
userData = {
KernOnName = N;
};
},
{
color = 9;
glyphname = Nhookleft;
kernRight = KO_N;
lastChange = "2024-05-01 05:27:26 +0000";
layers = (
{
anchors = (
{
name = bottom;
pos = (366,0);
},
{
name = top;
pos = (366,690);
}
);
layerId = m01;
shapes = (
{
closed = 1;
nodes = (
(625,-6,l),
(625,615,l),
(704,674,l),
(704,690,l),
(464,690,l),
(464,674,l),
(543,615,l),
(579,160,l),
(166,690,l),
(52,690,l),
(52,674,l),
(121,597,l),
(101,-117,l),
(-32,-95,l),
(-42,-107,l),
(-1,-235,l),
(10,-235,l),
(143,-200,o),
(192,-135,o),
(186,0,cs),
(165,544,l),
(593,-6,l)
);
}
);
width = 734;
},
{
anchors = (
{
name = bottom;
pos = (385,0);
},
{
name = top;
pos = (385,690);
}
);
layerId = m002;
shapes = (
{
closed = 1;
nodes = (
(674,0,l),
(674,597,l),
(743,666,l),
(743,690,l),
(495,690,l),
(495,666,l),
(564,597,l),
(616,233,l),
(252,690,l),
(36,690,l),
(36,666,l),
(118,569,l),
(87,-102,l),
(-58,-58,l),
(-76,-77,l),
(-42,-251,l),
(-27,-251,l),
(162,-201,o),
(220,-126,o),
(207,50,cs),
(173,495,l),
(568,0,l)
);
}
);
width = 769;
},
{
anchors = (
{
name = bottom;
pos = (366,0);
},
{
name = top;
pos = (366,690);
}
);
associatedMasterId = m01;
layerId = "E1E78141-B6C4-4009-A782-13A0CF4E7E47";
name = "23 Apr 24 at 11:46";
shapes = (
{
closed = 1;
nodes = (
(625,-6,l),
(625,615,l),
(704,674,l),
(704,690,l),
(464,690,l),
(464,674,l),
(543,615,l),
(581,129,l),
(603,129,l),
(166,690,l),
(134,690,l),
(134,585,l),
(593,-6,l)
);
},
{
closed = 1;
nodes = (
(156,-251,o),
(193,-181,o),
(186,0,cs),
(160,690,l),
(52,690,l),
(52,674,l),
(121,597,l),
(109,0,ls),
(106,-151,o),
(92,-201,o),
(54,-201,cs),
(25,-201,o),
(12,-172,o),
(12,-105,c),
(-66,-105,l),
(-66,-207,o),
(-29,-251,o),
(54,-251,cs)
);
}
);
width = 734;
},
{
anchors = (
{
name = bottom;
pos = (385,0);
},
{
name = top;
pos = (385,690);
}
);
associatedMasterId = m002;
layerId = "63282CFC-E001-4620-9928-8CAC0CFDC9C4";
name = "23 Apr 24 at 11:46";
shapes = (
{
closed = 1;
nodes = (
(674,0,l),
(674,597,l),
(743,666,l),
(743,690,l),
(495,690,l),
(495,666,l),
(564,597,l),
(632,122,l),
(664,173,l),
(252,690,l),
(135,690,l),
(135,543,l),
(568,0,l)
);
},
{
closed = 1;
nodes = (
(168,-251,o),
(209,-188,o),
(198,0,cs),
(158,690,l),
(36,690,l),
(36,666,l),
(118,569,l),
(95,0,ls),
(89,-151,o),
(74,-201,o),
(37,-201,cs),
(7,-201,o),
(-4,-169,o),
(-4,-85,c),
(-117,-85,l),
(-117,-196,o),
(-67,-251,o),
(33,-251,cs)
);
}
);
width = 769;
},
{
anchors = (
{
name = bottom;
pos = (366,0);
},
{
name = top;
pos = (366,690);
}
);
associatedMasterId = m01;
layerId = "F9BDC8F6-EBBF-4263-B1A3-BD13B66E5177";
name = "23 Apr 24 at 12:01";
shapes = (
{
closed = 1;
nodes = (
(625,-6,l),
(625,615,l),
(704,674,l),
(704,690,l),
(464,690,l),
(464,674,l),
(543,615,l),
(581,129,l),
(603,129,l),
(166,690,l),
(134,690,l),
(134,585,l),
(593,-6,l)
);
},
{
closed = 1;
nodes = (
(152,-251,o),
(192,-175,o),
(186,0,cs),
(160,690,l),
(52,690,l),
(52,674,l),
(121,597,l),
(109,0,ls),
(106,-148,o),
(90,-197,o),
(43,-197,cs),
(4,-197,l),
(4,-221,l),
(79,-222,l),
(8,-83,l),
(-7,-83,l),
(-65,-191,l),
(-37,-229,o),
(6,-251,o),
(54,-251,cs)
);
}
);
width = 734;
},
{
anchors = (
{
name = bottom;
pos = (385,0);
},
{
name = top;
pos = (385,690);
}
);
associatedMasterId = m002;
layerId = "62A46049-1234-496E-AF4E-C83230139E4D";
name = "23 Apr 24 at 12:01";
shapes = (
{
closed = 1;
nodes = (
(674,0,l),
(674,597,l),
(743,666,l),
(743,690,l),
(495,690,l),
(495,666,l),
(564,597,l),
(632,122,l),
(664,173,l),
(252,690,l),
(135,690,l),
(135,543,l),
(568,0,l)
);
},
{
closed = 1;
nodes = (
(153,-251,o),
(207,-168,o),
(198,0,cs),
(158,690,l),
(36,690,l),
(36,666,l),
(118,569,l),
(95,0,ls),
(90,-132,o),
(73,-183,o),
(36,-183,cs),
(-45,-183,l),
(-44,-214,l),
(66,-214,l),
(-56,-50,l),
(-75,-50,l),
(-150,-160,l),
(-98,-218,o),
(-33,-251,o),
(33,-251,cs)
);
}
);
width = 769;
},
{
anchors = (
{
name = bottom;
pos = (366,0);
},
{
name = top;
pos = (366,690);
}
);
associatedMasterId = m01;
layerId = "27611088-D181-43F3-85C5-F720F449E7FD";
name = "1 May 24 at 15:27";
shapes = (
{
closed = 1;
nodes = (
(625,-6,l),
(625,615,l),
(704,674,l),
(704,690,l),
(464,690,l),
(464,674,l),
(543,615,l),
(581,129,l),
(603,129,l),
(166,690,l),
(134,690,l),
(134,585,l),
(593,-6,l)
);
},
{
closed = 1;
nodes = (
(10,-235,l),
(143,-200,o),
(192,-135,o),
(186,0,cs),
(160,690,l),
(52,690,l),
(52,674,l),
(121,597,l),
(100,-149,l),
(119,-120,l),
(-32,-95,l),
(-42,-107,l),
(-1,-235,l)
);
}
);
width = 734;
},
{
anchors = (
{
name = bottom;
pos = (385,0);
},
{
name = top;
pos = (385,690);
}
);
associatedMasterId = m002;
layerId = "EB45AFED-2EC3-4817-A826-235B01D142A3";
name = "1 May 24 at 15:27";
shapes = (
{
closed = 1;
nodes = (
(674,0,l),
(674,597,l),
(743,666,l),
(743,690,l),
(495,690,l),
(495,666,l),
(564,597,l),
(632,122,l),
(664,173,l),
(252,690,l),
(135,690,l),
(135,543,l),
(568,0,l)
);
},
{
closed = 1;
nodes = (
(-27,-251,l),
(162,-201,o),
(220,-126,o),
(207,50,cs),
(158,690,l),
(36,690,l),
(36,666,l),
(118,569,l),
(85,-148,l),
(128,-115,l),
(-58,-58,l),
(-76,-77,l),
(-42,-251,l)
);
}
);
width = 769;
}
);
metricRight = "=N";
unicode = 413;
},
{
color = 9;
glyphname = Nlongrightleg;
lastChange = "2024-05-06 01:18:14 +0000";
layers = (
{
guides = (
{
angle = 270;
pos = (30,8);
}
);
layerId = m01;
shapes = (
{
closed = 1;
nodes = (
(709,-235,l),
(709,-219,l),
(630,-160,l),
(630,498,ls),
(630,626,o),
(544,706,o),
(407,706,cs),
(329,706,o),
(240,662,o),
(206,607,c),
(200,607,l),
(205,698,l),
(181,698,l),
(30,642,l),
(30,626,l),
(109,570,l),
(109,75,l),
(30,16,l),
(30,0,l),
(284,0,l),
(284,16,l),
(205,75,l),
(205,547,l),
(244,600,o),
(306,632,o),
(372,632,cs),
(480,632,o),
(534,579,o),
(534,471,cs),
(534,-160,l),
(455,-219,l),
(455,-235,l)
);
}
);
width = 769;
},
{
layerId = m002;
shapes = (
{
closed = 1;
nodes = (
(823,-235,l),
(823,-211,l),
(754,-142,l),
(754,483,ls),
(754,614,o),
(657,706,o),
(519,706,cs),
(428,706,o),
(353,670,o),
(291,598,c),
(284,598,l),
(291,698,l),
(258,698,l),
(26,630,l),
(26,606,l),
(95,528,l),
(95,93,l),
(26,24,l),
(26,0,l),
(362,0,l),
(362,24,l),
(291,93,l),
(291,531,l),
(318,552,o),
(364,567,o),
(409,567,cs),
(513,567,o),
(558,520,o),
(558,413,cs),
(558,-142,l),
(489,-211,l),
(489,-235,l)
);
}
);
width = 875;
},
{
associatedMasterId = m01;
guides = (
{
angle = 270;
pos = (30,8);
}
);
layerId = "EA495E17-D86E-4E05-AB84-D17C4496482D";
name = "1 May 24 at 15:28";
shapes = (
{
closed = 1;
nodes = (
(329,706,o),
(240,662,o),
(206,607,c),
(191,607,l),
(191,526,l),
(228,591,o),
(298,632,o),
(372,632,cs),
(467,632,o),
(514,585,o),
(514,491,cs),
(514,-160,l),
(435,-219,l),
(435,-235,l),
(689,-235,l),
(689,-219,l),
(610,-160,l),
(610,518,ls),
(610,633,o),
(532,706,o),
(407,706,cs)
);
},
{
closed = 1;
nodes = (
(200,607,l),
(205,698,l),
(181,698,l),
(30,642,l),
(30,626,l),
(146,544,l),
(109,615,l),
(109,75,l),
(30,16,l),
(30,0,l),
(284,0,l),
(284,16,l),
(205,75,l),
(205,607,l)
);
}
);
width = 719;
},
{
associatedMasterId = m002;
layerId = "699C60C6-9660-4D9B-9A64-0488A920614E";
name = "1 May 24 at 15:28";
shapes = (
{
closed = 1;
nodes = (
(428,706,o),
(353,670,o),
(291,598,c),
(281,598,l),
(281,522,l),
(305,548,o),
(358,567,o),
(409,567,cs),
(482,567,o),
(528,515,o),
(528,433,cs),
(528,-142,l),
(459,-211,l),
(459,-235,l),
(793,-235,l),
(793,-211,l),
(724,-142,l),
(724,503,ls),
(724,622,o),
(639,706,o),
(519,706,cs)
);
},
{
closed = 1;
nodes = (
(284,598,l),
(291,698,l),
(258,698,l),
(26,630,l),
(26,606,l),
(138,479,l),
(95,591,l),
(95,93,l),
(26,24,l),
(26,0,l),
(362,0,l),
(362,24,l),
(291,93,l),
(291,598,l)
);
}
);
width = 819;
},
{
associatedMasterId = m002;
layerId = "77F04BEB-99CC-422E-A4A9-8B9E78D3D140";
name = "1 May 24 at 15:31";
shapes = (
{
closed = 1;
nodes = (
(823,-235,l),
(823,-211,l),
(754,-142,l),
(754,483,ls),
(754,614,o),
(657,706,o),
(519,706,cs),
(428,706,o),
(353,670,o),
(291,598,c),
(281,598,l),
(281,522,l),
(305,548,o),
(358,567,o),
(409,567,cs),
(513,567,o),
(558,520,o),
(558,413,cs),
(558,-142,l),
(489,-211,l),
(489,-235,l)
);
},
{
closed = 1;
nodes = (
(362,0,l),
(362,24,l),
(291,93,l),
(291,598,l),
(284,598,l),
(291,698,l),
(258,698,l),
(26,630,l),
(26,606,l),
(138,479,l),
(95,591,l),
(95,93,l),
(26,24,l),
(26,0,l)
);
}
);
width = 875;
},
{
associatedMasterId = m01;
guides = (
{
angle = 270;
pos = (30,8);
}
);
layerId = "9F7CB7DF-D342-400C-9395-4EBF10C248FF";
name = "1 May 24 at 15:31";
shapes = (
{
closed = 1;
nodes = (
(709,-235,l),
(709,-219,l),
(630,-160,l),
(630,498,ls),
(630,626,o),
(544,706,o),
(407,706,cs),
(329,706,o),
(240,662,o),
(206,607,c),
(191,607,l),
(191,526,l),
(228,591,o),
(298,632,o),
(372,632,cs),
(480,632,o),
(534,579,o),
(534,471,cs),
(534,-160,l),
(455,-219,l),
(455,-235,l)
);
},
{
closed = 1;
nodes = (
(284,0,l),
(284,16,l),
(205,75,l),
(205,607,l),
(200,607,l),
(205,698,l),
(181,698,l),
(30,642,l),
(30,626,l),
(146,544,l),
(109,615,l),
(109,75,l),
(30,16,l),
(30,0,l)
);
}
);
width = 769;
}
);
metricLeft = "=H";
metricRight = "=N*2";
unicode = 544;
userData = {
KernOnName = Nlongrightleg;
};
},
{
color = 4;
glyphname = Eng;
kernLeft = KO_N;
kernRight = KO_N;
lastChange = "2024-05-01 04:05:56 +0000";
layers = (
{
anchors = (
{
name = bottom;
pos = (366,0);
},
{
name = top;
pos = (366,690);
}
);
layerId = m01;
shapes = (
{
closed = 1;
nodes = (
(537,-251,o),
(625,-163,o),
(625,-38,cs),
(625,615,l),
(704,674,l),
(704,690,l),
(464,690,l),
(464,674,l),
(543,615,l),
(579,160,l),
(166,690,l),
(52,690,l),
(52,674,l),
(121,597,l),
(109,75,l),
(30,16,l),
(30,0,l),
(270,0,l),
(270,16,l),
(191,75,l),
(166,544,l),
(538,65,l),
(538,-42,ls),
(538,-137,o),
(494,-197,o),
(425,-197,cs),
(405,-197,o),
(388,-194,o),
(371,-186,c),
(305,-48,l),
(289,-48,l),
(221,-166,l),
(271,-218,o),
(345,-251,o),
(413,-251,cs)
);
}
);
width = 734;
},
{
anchors = (
{
name = bottom;
pos = (383,0);
},
{
name = top;
pos = (383,690);
}
);
layerId = m002;
shapes = (
{
closed = 1;
nodes = (
(586,-251,o),
(674,-163,o),
(674,-38,cs),
(674,597,l),
(743,666,l),
(743,690,l),
(495,690,l),
(495,666,l),
(564,597,l),
(616,233,l),
(252,690,l),
(36,690,l),
(36,666,l),
(118,569,l),
(95,93,l),
(26,24,l),
(26,0,l),
(274,0,l),
(274,24,l),
(205,93,l),
(170,500,l),
(558,13,l),
(558,-22,ls),
(558,-117,o),
(521,-176,o),
(463,-176,cs),
(455,-176,o),
(447,-175,o),
(439,-174,c),
(335,-22,l),
(308,-22,l),
(226,-168,l),
(292,-221,o),
(376,-251,o),
(462,-251,cs)
);
}
);
width = 769;
},
{
associatedMasterId = m01;
layerId = "5A0A2E06-0FCE-4319-8A3E-09C603F094AA";
name = "2 Dec 23 at 07:21";
shapes = (
{
closed = 1;
nodes = (
(482,-235,l),
(585,-178,o),
(625,-114,o),
(625,-6,c),
(625,110,l),
(551,110,l),
(551,-156,l),
(573,-132,l),
(435,-108,l),
(427,-124,l),
(471,-235,l)
);
},
{
ref = N;
}
);
width = 736;
},
{
associatedMasterId = m01;
layerId = "E4C04393-004F-4057-A1AC-46BFB2CAAAE0";
name = "23 Apr 24 at 11:46";
shapes = (
{
closed = 1;
nodes = (
(537,-251,o),
(625,-163,o),
(625,-38,cs),
(625,122,l),
(538,122,l),
(538,-42,ls),
(538,-137,o),
(494,-197,o),
(425,-197,cs),
(376,-197,o),
(344,-178,o),
(299,-122,c),
(299,-204,l),
(380,-204,l),
(305,-48,l),
(289,-48,l),
(221,-166,l),
(271,-218,o),
(345,-251,o),
(413,-251,cs)
);
},
{
ref = N;
}
);
width = 734;
},
{
associatedMasterId = m002;
layerId = "FEC65602-0F89-421E-B1FD-366495966AF8";
name = "23 Apr 24 at 11:46";
shapes = (
{
closed = 1;
nodes = (
(586,-251,o),
(674,-163,o),
(674,-38,cs),
(674,122,l),
(558,122,l),
(558,-22,ls),
(558,-121,o),
(521,-183,o),
(463,-183,cs),
(416,-183,o),
(381,-162,o),
(349,-115,c),
(349,-216,l),
(468,-216,l),
(335,-22,l),
(308,-22,l),
(226,-168,l),
(292,-221,o),
(376,-251,o),
(462,-251,cs)
);
},
{
ref = N;
}
);
width = 769;
},
{
associatedMasterId = m002;
layerId = "4D101BD2-E079-48F6-96DA-54F666211ADB";
name = "23 Apr 24 at 11:46";
shapes = (
{
closed = 1;
nodes = (
(586,-251,o),
(674,-163,o),
(674,-38,cs),
(674,122,l),
(558,122,l),
(558,-22,ls),
(558,-121,o),
(521,-183,o),
(463,-183,cs),
(416,-183,o),
(381,-162,o),
(349,-115,c),
(349,-216,l),
(468,-216,l),
(335,-22,l),
(308,-22,l),
(226,-168,l),
(292,-221,o),
(376,-251,o),
(462,-251,cs)
);
},
{
ref = N;
}
);
width = 769;
},
{
anchors = (
{
name = bottom;
pos = (366,0);
},
{
name = top;
pos = (366,690);
}
);
associatedMasterId = m01;
layerId = "9F368E08-CC84-4C16-A2F5-C5DA3A757297";
name = "1 May 24 at 14:05";
shapes = (
{
closed = 1;
nodes = (
(537,-251,o),
(625,-163,o),
(625,-38,cs),
(625,122,l),
(538,122,l),
(538,-42,ls),
(538,-137,o),
(494,-197,o),
(425,-197,cs),
(376,-197,o),
(344,-178,o),
(299,-122,c),
(299,-204,l),
(380,-204,l),
(305,-48,l),
(289,-48,l),
(221,-166,l),
(271,-218,o),
(345,-251,o),
(413,-251,cs)
);
},
{
closed = 1;
nodes = (
(625,-6,l),
(625,615,l),
(704,674,l),
(704,690,l),
(464,690,l),
(464,674,l),
(543,615,l),
(579,160,l),
(166,690,l),
(52,690,l),
(52,674,l),
(121,597,l),
(109,75,l),
(30,16,l),
(30,0,l),
(270,0,l),
(270,16,l),
(191,75,l),
(166,544,l),
(593,-6,l)
);
}
);
width = 734;
},
{
anchors = (
{
name = bottom;
pos = (383,0);
},
{
name = top;
pos = (383,690);
}
);
associatedMasterId = m002;
layerId = "A52012B2-3E12-408D-82AC-5C9C21AD0B55";
name = "1 May 24 at 14:05";
shapes = (
{
closed = 1;
nodes = (
(586,-251,o),
(674,-163,o),
(674,-38,cs),
(674,122,l),
(558,122,l),
(558,-22,ls),
(558,-117,o),
(521,-176,o),
(463,-176,cs),
(415,-176,o),
(377,-156,o),
(349,-115,c),
(349,-216,l),
(468,-216,l),
(335,-22,l),
(308,-22,l),
(226,-168,l),
(292,-221,o),
(376,-251,o),
(462,-251,cs)
);
},
{
closed = 1;
nodes = (
(674,0,l),
(674,597,l),
(743,666,l),
(743,690,l),
(495,690,l),
(495,666,l),
(564,597,l),
(616,233,l),
(252,690,l),
(36,690,l),
(36,666,l),
(118,569,l),
(95,93,l),
(26,24,l),
(26,0,l),
(274,0,l),
(274,24,l),
(205,93,l),
(170,500,l),
(568,0,l)
);
}
);
width = 769;
}
);
metricLeft = "=N";
metricRight = "=N";
unicode = 330;
},
{
color = 4;
glyphname = O;
kernLeft = KO_O;
kernRight = KO_O;
lastChange = "2024-05-06 01:18:14 +0000";
layers = (
{
anchors = (
{
name = bottom;
pos = (380,0);
},
{
name = center;
pos = (387,345);
},
{
name = ogonek;
pos = (488,0);
},
{
name = qtail;
pos = (451,0);
},
{
name = top;
pos = (387,690);
},
{
name = topleft;
pos = (15,690);
},
{
name = topright;
pos = (431,690);
}
);
layerId = m01;
shapes = (
{
closed = 1;
nodes = (
(584,-16,o),
(728,136,o),
(728,352,cs),
(728,563,o),
(590,706,o),
(393,706,cs),
(189,706,o),
(45,554,o),
(45,338,cs),
(45,127,o),
(183,-16,o),
(380,-16,cs)
);
},
{
closed = 1;
nodes = (
(246,41,o),
(150,164,o),
(150,359,cs),
(150,537,o),
(237,649,o),
(375,649,cs),
(527,649,o),
(623,526,o),
(623,331,cs),
(623,153,o),
(536,41,o),
(398,41,cs)
);
}
);
width = 773;
},
{
associatedMasterId = m01;
layerId = "4B5359D8-5C3C-4EAD-988D-C5E79A7FA3B5";
name = "22 Aug 23 at 12:03";
shapes = (
{
closed = 1;
nodes = (
(591,-16,o),
(737,138,o),
(737,357,cs),
(737,552,o),
(587,706,o),
(396,706,cs),
(188,706,o),
(42,552,o),
(42,333,cs),
(42,138,o),
(192,-16,o),
(383,-16,cs)
);
},
{
closed = 1;
nodes = (
(239,40,o),
(138,167,o),
(138,369,cs),
(138,542,o),
(231,650,o),
(378,650,cs),
(540,650,o),
(641,523,o),
(641,321,cs),
(641,148,o),
(548,40,o),
(401,40,cs)
);
}
);
width = 779;
},
{
anchors = (
{
name = bottom;
pos = (418,0);
},
{
name = center;
pos = (420,345);
},
{
name = ogonek;
pos = (546,0);
},
{
name = qtail;
pos = (476,0);
},
{
name = top;
pos = (420,690);
},
{
name = topleft;
pos = (16,690);
},
{
name = topright;
pos = (512,690);
}
);
layerId = m002;
shapes = (
{
closed = 1;
nodes = (
(656,-16,o),
(807,125,o),
(807,350,cs),
(807,569,o),
(659,706,o),
(424,706,cs),
(183,706,o),
(32,565,o),
(32,340,cs),
(32,121,o),
(180,-16,o),
(415,-16,cs)
);
},
{
closed = 1;
nodes = (
(316,57,o),
(247,174,o),
(247,361,cs),
(247,535,o),
(306,633,o),
(412,633,cs),
(523,633,o),
(592,516,o),
(592,329,cs),
(592,155,o),
(533,57,o),
(427,57,cs)
);
}
);
width = 839;
},
{
associatedMasterId = m002;
layerId = "53B6C055-2B2D-4198-9E9A-BF683F5FE9FD";
name = "7 Oct 23 at 08:21";
shapes = (
{
closed = 1;
nodes = (
(620,-16,o),
(789,153,o),
(789,367,cs),
(789,566,o),
(636,706,o),
(419,706,cs),
(205,706,o),
(36,537,o),
(36,323,cs),
(36,124,o),
(189,-16,o),
(406,-16,cs)
);
},
{
closed = 1;
nodes = (
(312,56,o),
(241,177,o),
(241,369,cs),
(241,539,o),
(298,634,o),
(401,634,cs),
(513,634,o),
(584,513,o),
(584,321,cs),
(584,151,o),
(527,56,o),
(424,56,cs)
);
}
);
width = 825;
},
{
associatedMasterId = m002;
layerId = "706DFDE0-3502-4BE9-A950-F4F49DBAD841";
name = "10 Oct 23 at 17:07";
shapes = (
{
closed = 1;
nodes = (
(634,-16,o),
(793,142,o),
(793,367,cs),
(793,566,o),
(638,706,o),
(418,706,cs),
(193,706,o),
(34,548,o),
(34,323,cs),
(34,124,o),
(189,-16,o),
(409,-16,cs)
);
},
{
closed = 1;
nodes = (
(315,57,o),
(245,177,o),
(245,369,cs),
(245,538,o),
(301,633,o),
(400,633,cs),
(512,633,o),
(582,513,o),
(582,321,cs),
(582,152,o),
(526,57,o),
(427,57,cs)
);
}
);
width = 827;
},
{
associatedMasterId = m002;
layerId = "68D48603-4004-46F4-A79B-C9402F61A7D8";
name = "15 Oct 23 at 14:48";
shapes = (
{
closed = 1;
nodes = (
(657,-16,o),
(807,129,o),
(807,360,cs),
(807,563,o),
(650,706,o),
(426,706,cs),
(186,706,o),
(36,561,o),
(36,330,cs),
(36,127,o),
(193,-16,o),
(417,-16,cs)
);
},
{
closed = 1;
nodes = (
(323,57,o),
(249,175,o),
(249,364,cs),
(249,537,o),
(304,633,o),
(403,633,cs),
(520,633,o),
(594,515,o),
(594,326,cs),
(594,153,o),
(539,57,o),
(440,57,cs)
);
}
);
width = 843;
},
{
associatedMasterId = m002;
layerId = "6BC559CA-0FEB-4280-92CB-014FF6965E1E";
name = "20 Oct 23 at 17:00";
shapes = (
{
closed = 1;
nodes = (
(650,-16,o),
(807,143,o),
(807,369,cs),
(807,567,o),
(646,706,o),
(416,706,cs),
(193,706,o),
(36,547,o),
(36,321,cs),
(36,123,o),
(197,-16,o),
(427,-16,cs)
);
},
{
closed = 1;
nodes = (
(323,57,o),
(249,174,o),
(249,360,cs),
(249,535,o),
(304,633,o),
(403,633,cs),
(520,633,o),
(594,516,o),
(594,330,cs),
(594,155,o),
(539,57,o),
(440,57,cs)
);
}
);
width = 843;
},
{
associatedMasterId = m002;
layerId = "0CA6C685-6F55-42C8-9F7F-254C281D6521";
name = "22 Oct 23 at 11:34";
shapes = (
{
closed = 1;
nodes = (
(657,-16,o),
(807,130,o),
(807,362,cs),
(807,573,o),
(660,706,o),
(426,706,cs),
(186,706,o),
(36,560,o),
(36,328,cs),
(36,117,o),
(183,-16,o),
(417,-16,cs)
);
},
{
closed = 1;
nodes = (
(321,57,o),
(249,175,o),
(249,364,cs),
(249,537,o),
(306,633,o),
(408,633,cs),
(522,633,o),
(594,515,o),
(594,326,cs),
(594,153,o),
(537,57,o),
(435,57,cs)
);
}
);
width = 843;
},
{
associatedMasterId = m01;
layerId = "F12D4DD8-11ED-4630-A555-BD8AD39FFF50";
name = "22 Oct 23 at 11:34";
shapes = (
{
closed = 1;
nodes = (
(580,-16,o),
(733,148,o),
(733,357,cs),
(733,562,o),
(595,706,o),
(398,706,cs),
(203,706,o),
(50,542,o),
(50,333,cs),
(50,128,o),
(188,-16,o),
(385,-16,cs)
);
},
{
closed = 1;
nodes = (
(251,41,o),
(155,168,o),
(155,369,cs),
(155,541,o),
(242,649,o),
(380,649,cs),
(532,649,o),
(628,522,o),
(628,321,cs),
(628,149,o),
(541,41,o),
(403,41,cs)
);
}
);
width = 783;
},
{
associatedMasterId = m002;
layerId = "710AE380-85D4-4BFA-93C6-AE6385B36B9E";
name = "27 Oct 23 at 19:12";
shapes = (
{
closed = 1;
nodes = (
(657,-16,o),
(807,125,o),
(807,350,cs),
(807,569,o),
(660,706,o),
(426,706,cs),
(186,706,o),
(36,565,o),
(36,340,cs),
(36,121,o),
(183,-16,o),
(417,-16,cs)
);
},
{
closed = 1;
nodes = (
(318,57,o),
(249,174,o),
(249,361,cs),
(249,535,o),
(308,633,o),
(414,633,cs),
(525,633,o),
(594,516,o),
(594,329,cs),
(594,155,o),
(535,57,o),
(429,57,cs)
);
}
);
width = 843;
},
{
anchors = (
{
name = bottom;
pos = (424,0);
},
{
name = center;
pos = (392,345);
},
{
name = ogonek;
pos = (705,10);
},
{
name = qtail;
pos = (456,0);
},
{
name = top;
pos = (392,690);
},
{
name = topleft;
pos = (20,690);
},
{
name = topright;
pos = (763,690);
}
);
associatedMasterId = m01;
layerId = "B965BD0A-20DB-4FC3-AA77-E7A38881349C";
name = "10 Nov 23 at 22:22";
shapes = (
{
closed = 1;
nodes = (
(589,-16,o),
(733,136,o),
(733,352,cs),
(733,563,o),
(595,706,o),
(398,706,cs),
(194,706,o),
(50,554,o),
(50,338,cs),
(50,127,o),
(188,-16,o),
(385,-16,cs)
);
},
{
closed = 1;
nodes = (
(251,41,o),
(155,168,o),
(155,369,cs),
(155,541,o),
(242,649,o),
(380,649,cs),
(532,649,o),
(628,522,o),
(628,321,cs),
(628,149,o),
(541,41,o),
(403,41,cs)
);
}
);
width = 783;
},
{
anchors = (
{
name = bottom;
pos = (424,0);
},
{
name = center;
pos = (424,345);
},
{
name = ogonek;
pos = (762,10);
},
{
name = qtail;
pos = (480,0);
},
{
name = top;
pos = (424,690);
},
{
name = topleft;
pos = (20,690);
},
{
name = topright;
pos = (827,690);
}
);
associatedMasterId = m002;
layerId = "5AD1FE21-32F9-4B2F-928B-F37F79D1ED5E";
name = "10 Nov 23 at 22:23";
shapes = (
{
closed = 1;
nodes = (
(660,-16,o),
(811,125,o),
(811,350,cs),
(811,569,o),
(663,706,o),
(428,706,cs),
(187,706,o),
(36,565,o),
(36,340,cs),
(36,121,o),
(184,-16,o),
(419,-16,cs)
);
},
{
closed = 1;
nodes = (
(320,57,o),
(251,174,o),
(251,361,cs),
(251,535,o),
(310,633,o),
(416,633,cs),
(527,633,o),
(596,516,o),
(596,329,cs),
(596,155,o),
(537,57,o),
(431,57,cs)
);
}
);
width = 847;
}
);
metricRight = "=|";
unicode = 79;
userData = {
KernOnName = O;
};
},
{
color = 9;
glyphname = OU;
lastChange = "2024-05-01 05:32:11 +0000";
layers = (
{
guides = (
{
angle = 90;
pos = (523,221);
},
{
angle = 90;
pos = (45,228);
},
{
angle = 90;
pos = (628,242);
},
{
angle = 90;
pos = (150,249);
}
);
layerId = m01;
shapes = (
{
closed = 1;
nodes = (
(505,-16,o),
(628,91,o),
(628,242,cs),
(628,336,o),
(570,415,o),
(482,456,c),
(637,507,o),
(615,644,o),
(528,706,c),
(498,706,l),
(530,583,o),
(461,486,o),
(339,486,cs),
(217,486,o),
(148,583,o),
(180,706,c),
(150,706,l),
(63,644,o),
(41,507,o),
(196,456,c),
(103,414,o),
(45,332,o),
(45,228,cs),
(45,91,o),
(170,-16,o),
(330,-16,cs)
);
},
{
closed = 1;
nodes = (
(226,41,o),
(150,121,o),
(150,249,cs),
(150,355,o),
(222,429,o),
(325,429,cs),
(447,429,o),
(523,349,o),
(523,221,cs),
(523,115,o),
(451,41,o),
(348,41,cs)
);
}
);
width = 673;
},
{
guides = (
{
angle = 90;
pos = (512,219);
},
{
angle = 90;
pos = (247,251);
}
);
layerId = m002;
shapes = (
{
closed = 1;
nodes = (
(591,-16,o),
(727,83,o),
(727,240,cs),
(727,345,o),
(663,423,o),
(553,461,c),
(752,517,o),
(685,676,o),
(516,726,c),
(483,726,l),
(499,586,o),
(464,496,o),
(379,496,cs),
(294,496,o),
(259,586,o),
(275,726,c),
(242,726,l),
(71,676,o),
(5,514,o),
(210,460,c),
(98,420,o),
(32,339,o),
(32,230,cs),
(32,79,o),
(164,-16,o),
(375,-16,cs)
);
},
{
closed = 1;
nodes = (
(297,54,o),
(247,125,o),
(247,251,cs),
(247,357,o),
(292,416,o),
(372,416,cs),
(462,416,o),
(512,345,o),
(512,219,cs),
(512,113,o),
(467,54,o),
(387,54,cs)
);
}
);
width = 759;
},
{
associatedMasterId = m01;
guides = (
{
angle = 90;
pos = (523,221);
},
{
angle = 90;
pos = (45,228);
},
{
angle = 90;
pos = (628,242);
},
{
angle = 90;
pos = (150,249);
}
);
layerId = "B1AA3B07-6AA9-44F5-A452-347AC73EDAD5";
name = "1 May 24 at 15:32";
shapes = (
{
closed = 1;
nodes = (
(505,-16,o),
(628,91,o),
(628,242,cs),
(628,379,o),
(503,486,o),
(343,486,cs),
(168,486,o),
(45,379,o),
(45,228,cs),
(45,91,o),
(170,-16,o),
(330,-16,cs)
);
},
{
closed = 1;
nodes = (
(226,41,o),
(150,121,o),
(150,249,cs),
(150,355,o),
(222,429,o),
(325,429,cs),
(447,429,o),
(523,349,o),
(523,221,cs),
(523,115,o),
(451,41,o),
(348,41,cs)
);
},
{
closed = 1;
nodes = (
(644,437,o),
(636,629,o),
(528,706,c),
(498,706,l),
(530,583,o),
(461,486,o),
(339,486,cs),
(217,486,o),
(148,583,o),
(180,706,c),
(150,706,l),
(42,629,o),
(34,437,o),
(339,437,cs)
);
}
);
width = 673;
},
{
associatedMasterId = m002;
guides = (
{
angle = 90;
pos = (512,219);
},
{
angle = 90;
pos = (247,251);
}
);
layerId = "F47AC879-3168-488D-90C3-CDE5A26A0431";
name = "1 May 24 at 15:32";
shapes = (
{
closed = 1;
nodes = (
(591,-16,o),
(727,83,o),
(727,240,cs),
(727,391,o),
(595,486,o),
(384,486,cs),
(168,486,o),
(32,387,o),
(32,230,cs),
(32,79,o),
(164,-16,o),
(375,-16,cs)
);
},
{
closed = 1;
nodes = (
(297,54,o),
(247,125,o),
(247,251,cs),
(247,357,o),
(292,416,o),
(372,416,cs),
(462,416,o),
(512,345,o),
(512,219,cs),
(512,113,o),
(467,54,o),
(387,54,cs)
);
},
{
closed = 1;
nodes = (
(776,441,o),
(723,665,o),
(516,726,c),
(483,726,l),
(499,586,o),
(464,496,o),
(379,496,cs),
(294,496,o),
(259,586,o),
(275,726,c),
(242,726,l),
(35,665,o),
(-18,441,o),
(379,441,cs)
);
}
);
width = 759;
}
);
metricLeft = "=O";
metricRight = "=O";
unicode = 546;
},
{
color = 9;
glyphname = "Omega-latin";
lastChange = "2024-05-01 05:32:24 +0000";
layers = (
{
layerId = m01;
shapes = (
{
closed = 1;
nodes = (
(782,-16,o),
(907,173,o),
(907,413,cs),
(907,585,o),
(822,706,o),
(701,706,cs),
(655,706,o),
(618,698,o),
(580,680,c),
(647,560,l),
(661,560,l),
(734,643,l),
(784,626,o),
(807,553,o),
(807,411,cs),
(807,179,o),
(745,49,o),
(634,49,cs),
(563,49,o),
(519,123,o),
(519,241,cs),
(519,370,l),
(433,370,l),
(433,241,ls),
(433,123,o),
(389,49,o),
(318,49,cs),
(207,49,o),
(145,179,o),
(145,411,cs),
(145,553,o),
(168,626,o),
(218,643,c),
(291,560,l),
(305,560,l),
(372,680,l),
(334,698,o),
(297,706,o),
(251,706,cs),
(130,706,o),
(45,585,o),
(45,413,cs),
(45,149,o),
(154,-16,o),
(328,-16,cs),
(402,-16,o),
(453,47,o),
(471,154,c),
(490,47,o),
(546,-16,o),
(624,-16,cs)
);
}
);
width = 952;
},
{
layerId = m002;
shapes = (
{
closed = 1;
nodes = (
(860,-16,o),
(1007,170,o),
(1007,406,cs),
(1007,582,o),
(878,706,o),
(695,706,cs),
(649,706,o),
(607,696,o),
(576,679,c),
(637,519,l),
(662,519,l),
(740,609,l),
(773,582,o),
(792,519,o),
(792,430,cs),
(792,171,o),
(759,85,o),
(658,85,cs),
(603,85,o),
(576,152,o),
(576,287,cs),
(576,331,l),
(463,331,l),
(463,287,ls),
(463,152,o),
(436,85,o),
(381,85,cs),
(291,85,o),
(247,199,o),
(247,430,cs),
(247,519,o),
(266,582,o),
(299,609,c),
(377,519,l),
(402,519,l),
(483,679,l),
(432,696,o),
(390,706,o),
(344,706,cs),
(161,706,o),
(32,582,o),
(32,406,cs),
(32,158,o),
(170,-16,o),
(366,-16,cs),
(441,-16,o),
(498,38,o),
(520,122,c),
(541,38,o),
(598,-16,o),
(673,-16,cs)
);
}
);
width = 1039;
},
{
associatedMasterId = m01;
layerId = "E8BFD0F6-477C-4429-9208-82CFB60AF33A";
name = "30 Apr 24 at 20:55";
shapes = (
{
closed = 1;
nodes = (
(738,179,o),
(690,49,o),
(605,49,cs),
(534,49,o),
(490,123,o),
(490,241,cs),
(490,322,l),
(418,322,l),
(418,241,ls),
(418,76,o),
(481,-16,o),
(595,-16,cs),
(731,-16,o),
(838,173,o),
(838,413,cs),
(838,593,o),
(759,706,o),
(632,706,cs),
(589,706,o),
(552,696,o),
(511,677,c),
(578,550,l),
(592,550,l),
(686,667,l),
(562,668,l),
(562,642,l),
(640,642,ls),
(711,642,o),
(738,578,o),
(738,411,cs)
);
},
{
closed = 1;
nodes = (
(384,-16,o),
(447,76,o),
(447,241,cs),
(447,322,l),
(395,322,l),
(395,241,ls),
(395,123,o),
(351,49,o),
(280,49,cs),
(201,49,o),
(145,173,o),
(145,350,cs),
(145,457,o),
(154,519,o),
(179,598,c),
(150,598,l),
(150,530,l),
(301,598,l),
(301,614,l),
(221,697,l),
(118,640,o),
(45,495,o),
(45,346,cs),
(45,143,o),
(144,-16,o),
(270,-16,cs)
);
}
);
width = 865;
},
{
associatedMasterId = m01;
layerId = "7D7CD069-4617-4BBB-8BF6-419B9293D819";
name = "1 May 24 at 15:32";
shapes = (
{
closed = 1;
nodes = (
(782,-16,o),
(907,173,o),
(907,413,cs),
(907,585,o),
(822,706,o),
(701,706,cs),
(655,706,o),
(618,698,o),
(580,680,c),
(647,560,l),
(661,560,l),
(755,667,l),
(631,668,l),
(631,647,l),
(709,647,ls),
(777,647,o),
(807,575,o),
(807,411,cs),
(807,179,o),
(745,49,o),
(634,49,cs),
(563,49,o),
(519,123,o),
(519,241,cs),
(519,370,l),
(464,370,l),
(464,241,ls),
(464,83,o),
(526,-16,o),
(624,-16,cs)
);
},
{
closed = 1;
nodes = (
(420,-16,o),
(478,83,o),
(478,241,cs),
(478,370,l),
(433,370,l),
(433,241,ls),
(433,123,o),
(389,49,o),
(318,49,cs),
(207,49,o),
(145,179,o),
(145,411,cs),
(145,575,o),
(175,647,o),
(243,647,cs),
(321,647,l),
(321,668,l),
(197,667,l),
(291,560,l),
(305,560,l),
(372,680,l),
(334,698,o),
(297,706,o),
(251,706,cs),
(130,706,o),
(45,585,o),
(45,413,cs),
(45,149,o),
(154,-16,o),
(328,-16,cs)
);
}
);
width = 952;
},
{
associatedMasterId = m002;
layerId = "38C45439-07C3-4392-904A-B48938DA4862";
name = "1 May 24 at 15:32";
shapes = (
{
closed = 1;
nodes = (
(860,-16,o),
(1007,170,o),
(1007,406,cs),
(1007,582,o),
(878,706,o),
(695,706,cs),
(649,706,o),
(607,696,o),
(576,679,c),
(637,519,l),
(662,519,l),
(752,623,l),
(638,649,l),
(638,623,l),
(702,623,ls),
(757,623,o),
(792,549,o),
(792,430,cs),
(792,171,o),
(759,85,o),
(658,85,cs),
(603,85,o),
(576,152,o),
(576,287,cs),
(576,331,l),
(510,331,l),
(510,201,ls),
(510,74,o),
(577,-16,o),
(673,-16,cs)
);
},
{
closed = 1;
nodes = (
(462,-16,o),
(529,74,o),
(529,201,cs),
(529,331,l),
(463,331,l),
(463,287,ls),
(463,152,o),
(436,85,o),
(381,85,cs),
(291,85,o),
(247,199,o),
(247,430,cs),
(247,549,o),
(282,623,o),
(337,623,cs),
(401,623,l),
(401,649,l),
(287,623,l),
(377,519,l),
(402,519,l),
(483,679,l),
(432,696,o),
(390,706,o),
(344,706,cs),
(161,706,o),
(32,582,o),
(32,406,cs),
(32,158,o),
(170,-16,o),
(366,-16,cs)
);
}
);
width = 1039;
}
);
metricLeft = "=O";
metricRight = "=O";
unicode = 42934;
},
{
glyphname = Oogonek;
kernLeft = KO_O;
kernRight = KO_O;
lastChange = "2023-12-22 05:51:16 +0000";
layers = (
{
anchors = (
{
name = bottom;
pos = (380,0);
},
{
name = center;
pos = (387,345);
},
{
name = ogonek;
pos = (488,0);
},
{
name = qtail;
pos = (451,0);
},
{
name = top;
pos = (387,690);
},
{
name = topleft;
pos = (15,690);
},
{
name = topright;
pos = (758,690);
}
);
layerId = m01;
shapes = (
{
closed = 1;
nodes = (
(584,-16,o),
(728,136,o),
(728,352,cs),
(728,563,o),
(590,706,o),
(393,706,cs),
(189,706,o),
(45,554,o),
(45,338,cs),
(45,127,o),
(183,-16,o),
(380,-16,cs)
);
},
{
closed = 1;
nodes = (
(526,-251,o),
(576,-215,o),
(593,-158,c),
(579,-148,l),
(560,-169,o),
(530,-182,o),
(502,-182,cs),
(459,-182,o),
(438,-157,o),
(438,-107,cs),
(438,-55,o),
(466,-9,o),
(505,5,c),
(505,20,l),
(427,20,l),
(427,-15,l),
(385,-39,o),
(356,-93,o),
(356,-147,cs),
(356,-208,o),
(400,-251,o),
(463,-251,cs)
);
},
{
closed = 1;
nodes = (
(246,41,o),
(150,164,o),
(150,359,cs),
(150,537,o),
(237,649,o),
(375,649,cs),
(527,649,o),
(623,526,o),
(623,331,cs),
(623,153,o),
(536,41,o),
(398,41,cs)
);
}
);
width = 773;
},
{
anchors = (
{
name = bottom;
pos = (418,0);
},
{
name = center;
pos = (420,345);
},
{
name = ogonek;
pos = (546,0);
},
{
name = qtail;
pos = (476,0);
},
{
name = top;
pos = (420,690);
},
{
name = topleft;
pos = (16,690);
},
{
name = topright;
pos = (823,690);
}
);
layerId = m002;
shapes = (
{
closed = 1;
nodes = (
(656,-16,o),
(807,125,o),
(807,350,cs),
(807,569,o),
(659,706,o),
(424,706,cs),
(183,706,o),
(32,565,o),
(32,340,cs),
(32,121,o),
(180,-16,o),
(415,-16,cs)
);
},
{
closed = 1;
nodes = (
(593,-251,o),
(638,-218,o),
(660,-143,c),
(642,-132,l),
(620,-155,o),
(598,-165,o),
(569,-165,cs),
(525,-165,o),
(498,-137,o),
(498,-92,cs),
(498,-48,o),
(523,-10,o),
(562,4,c),
(562,24,l),
(475,23,l),
(475,-16,l),
(425,-40,o),
(390,-92,o),
(390,-143,cs),
(390,-212,o),
(434,-251,o),
(513,-251,cs)
);
},
{
closed = 1;
nodes = (
(316,57,o),
(247,174,o),
(247,361,cs),
(247,535,o),
(306,633,o),
(412,633,cs),
(523,633,o),
(592,516,o),
(592,329,cs),
(592,155,o),
(533,57,o),
(427,57,cs)
);
}
);
width = 839;
}
);
unicode = 490;
},
{
color = 4;
glyphname = OE;
kernRight = KO_E;
lastChange = "2024-05-01 04:06:16 +0000";
layers = (
{
anchors = (
{
name = bottom;
pos = (493,0);
},
{
name = top;
pos = (493,690);
}
);
layerId = m01;
shapes = (
{
closed = 1;
nodes = (
(935,0,l),
(941,167,l),
(925,167,l),
(814,55,l),
(592,44,l),
(592,333,l),
(757,326,l),
(826,261,l),
(842,261,l),
(842,451,l),
(826,451,l),
(757,386,l),
(592,378,l),
(592,646,l),
(811,635,l),
(913,546,l),
(929,546,l),
(923,698,l),
(912,698,l),
(799,690,l),
(413,690,ls),
(197,690,o),
(45,543,o),
(45,333,cs),
(45,137,o),
(189,0,o),
(393,0,cs)
);
},
{
closed = 1;
nodes = (
(150,539,o),
(244,640,o),
(413,640,cs),
(496,640,l),
(496,50,l),
(403,50,ls),
(248,50,o),
(150,169,o),
(150,359,cs)
);
}
);
width = 986;
},
{
anchors = (
{
name = bottom;
pos = (521,0);
},
{
name = top;
pos = (521,690);
}
);
layerId = m002;
shapes = (
{
closed = 1;
nodes = (
(1003,0,l),
(1009,188,l),
(982,188,l),
(840,64,l),
(712,53,l),
(712,329,l),
(808,322,l),
(892,244,l),
(919,244,l),
(919,468,l),
(892,468,l),
(808,390,l),
(712,382,l),
(712,637,l),
(831,627,l),
(962,518,l),
(989,518,l),
(989,706,l),
(969,706,l),
(812,690,l),
(451,690,ls),
(205,690,o),
(32,544,o),
(32,337,cs),
(32,130,o),
(187,0,o),
(434,0,cs)
);
},
{
closed = 1;
nodes = (
(246,520,o),
(327,630,o),
(455,630,cs),
(516,630,l),
(516,60,l),
(455,60,ls),
(327,60,o),
(246,170,o),
(246,345,cs)
);
}
);
width = 1041;
},
{
anchors = (
{
name = bottom;
pos = (493,0);
},
{
name = top;
pos = (493,690);
}
);
associatedMasterId = m01;
layerId = "C43AC07C-EB7D-4231-A164-3E27BFC7A03D";
name = "1 May 24 at 14:06";
shapes = (
{
closed = 1;
nodes = (
(558,0,l),
(558,50,l),
(403,50,ls),
(248,50,o),
(150,169,o),
(150,359,cs),
(150,539,o),
(244,640,o),
(413,640,cs),
(558,640,l),
(558,690,l),
(413,690,ls),
(197,690,o),
(45,543,o),
(45,333,cs),
(45,137,o),
(189,0,o),
(393,0,cs)
);
},
{
closed = 1;
nodes = (
(895,0,l),
(895,59,l),
(574,43,l),
(574,0,l)
);
},
{
closed = 1;
nodes = (
(592,0,l),
(592,690,l),
(496,690,l),
(496,0,l)
);
},
{
closed = 1;
nodes = (
(935,0,l),
(941,167,l),
(925,167,l),
(800,41,l),
(800,0,l)
);
},
{
closed = 1;
nodes = (
(810,388,l),
(565,377,l),
(565,334,l),
(810,324,l)
);
},
{
closed = 1;
nodes = (
(842,261,l),
(842,451,l),
(826,451,l),
(746,375,l),
(746,337,l),
(826,261,l)
);
},
{
closed = 1;
nodes = (
(895,690,l),
(574,690,l),
(574,647,l),
(895,631,l)
);
},
{
closed = 1;
nodes = (
(929,546,l),
(923,698,l),
(912,698,l),
(799,690,l),
(799,646,l),
(913,546,l)
);
}
);
width = 986;
},
{
anchors = (
{
name = bottom;
pos = (521,0);
},
{
name = top;
pos = (521,690);
}
);
associatedMasterId = m002;
layerId = "16DD961C-D016-4128-98CE-BC3B6C11BFED";
name = "1 May 24 at 14:06";
shapes = (
{
closed = 1;
nodes = (
(592,0,l),
(592,60,l),
(455,60,ls),
(327,60,o),
(246,170,o),
(246,345,cs),
(246,520,o),
(327,630,o),
(455,630,cs),
(592,630,l),
(592,690,l),
(451,690,ls),
(205,690,o),
(32,544,o),
(32,337,cs),
(32,130,o),
(187,0,o),
(434,0,cs)
);
},
{
closed = 1;
nodes = (
(970,0,l),
(970,75,l),
(654,48,l),
(654,0,l)
);
},
{
closed = 1;
nodes = (
(712,0,l),
(712,690,l),
(516,690,l),
(516,0,l)
);
},
{
closed = 1;
nodes = (
(1003,0,l),
(1009,188,l),
(982,188,l),
(821,47,l),
(821,0,l)
);
},
{
closed = 1;
nodes = (
(891,396,l),
(654,378,l),
(654,333,l),
(891,316,l)
);
},
{
closed = 1;
nodes = (
(919,244,l),
(919,468,l),
(892,468,l),
(794,377,l),
(794,335,l),
(892,244,l)
);
},
{
closed = 1;
nodes = (
(970,690,l),
(654,690,l),
(654,642,l),
(970,615,l)
);
},
{
closed = 1;
nodes = (
(989,518,l),
(989,706,l),
(969,706,l),
(812,690,l),
(812,643,l),
(962,518,l)
);
}
);
width = 1041;
}
);
metricLeft = "=O";
metricRight = "=E";
unicode = 338;
},
